<mxfile host="Electron" agent="Mozilla/5.0 (Windows NT 10.0; Win64; x64) AppleWebKit/537.36 (KHTML, like Gecko) draw.io/28.1.2 Chrome/138.0.7204.243 Electron/37.4.0 Safari/537.36" version="28.1.2">
  <diagram id="90832658-a9be-4065-8f95-46ddbe46ca4d" name="Olympic Data Analytics Architecture">
    <mxGraphModel dx="3495" dy="1138" grid="1" gridSize="10" guides="1" tooltips="1" connect="1" arrows="1" fold="1" page="1" pageScale="1" pageWidth="1600" pageHeight="900" math="0" shadow="0">
      <root>
        <mxCell id="0" />
        <mxCell id="1" parent="0" />
        <mxCell id="7b8d44dd-d432-4bea-8b3f-bb658f8cbc00" value="" style="rounded=1;whiteSpace=wrap;html=1;fillColor=#e1d5e7;strokeColor=#9673a6;" parent="1" vertex="1">
          <mxGeometry x="10" y="182.5" width="170" height="115" as="geometry" />
        </mxCell>
        <mxCell id="4a9927db-17e9-49d1-a62d-5a918ea1de46" value="" style="rounded=1;whiteSpace=wrap;html=1;fillColor=#dae8fc;strokeColor=#6c8ebf;" parent="1" vertex="1">
          <mxGeometry x="265" y="175" width="180" height="130" as="geometry" />
        </mxCell>
        <mxCell id="ce38ffa1-fa96-4ddf-ba6d-ced67c7137b9" value="" style="rounded=1;whiteSpace=wrap;html=1;fillColor=#d5e8d4;strokeColor=#82b366;" parent="1" vertex="1">
          <mxGeometry x="260" y="410" width="190" height="140" as="geometry" />
        </mxCell>
        <mxCell id="46fccf31-0761-42e9-a95b-d418a9678e21" value="&amp;nbsp;&lt;div&gt;&lt;br&gt;&lt;/div&gt;&lt;div&gt;&lt;br&gt;&lt;/div&gt;&lt;div&gt;&lt;br&gt;&lt;/div&gt;&lt;div&gt;&lt;br&gt;&lt;/div&gt;" style="rounded=1;whiteSpace=wrap;html=1;fillColor=#fff2cc;strokeColor=#d6b656;" parent="1" vertex="1">
          <mxGeometry x="530" y="170" width="170" height="130" as="geometry" />
        </mxCell>
        <mxCell id="2e422b75-70e7-471e-af71-00d837bd0d44" value="" style="rounded=1;whiteSpace=wrap;html=1;fillColor=#fff2cc;strokeColor=#d6b656;" parent="1" vertex="1">
          <mxGeometry x="950" y="210" width="170" height="130" as="geometry" />
        </mxCell>
        <mxCell id="25e4b622-9917-419a-b643-233c820a8318" value="" style="rounded=1;whiteSpace=wrap;html=1;fillColor=#ffe6cc;strokeColor=#d79b00;" parent="1" vertex="1">
          <mxGeometry x="1243.57" y="195" width="170" height="160" as="geometry" />
        </mxCell>
        <mxCell id="4ac030b0-a86f-4274-8dec-cfc69f478b07" style="edgeStyle=orthogonalEdgeStyle;rounded=0;orthogonalLoop=1;jettySize=auto;html=1;endArrow=block;endFill=1;" parent="1" source="7b8d44dd-d432-4bea-8b3f-bb658f8cbc00" target="4a9927db-17e9-49d1-a62d-5a918ea1de46" edge="1">
          <mxGeometry relative="1" as="geometry" />
        </mxCell>
        <mxCell id="bcbac021-6ec4-4c51-a3e4-95a569d06196" style="edgeStyle=orthogonalEdgeStyle;rounded=0;orthogonalLoop=1;jettySize=auto;html=1;endArrow=block;endFill=1;" parent="1" source="4a9927db-17e9-49d1-a62d-5a918ea1de46" target="ce38ffa1-fa96-4ddf-ba6d-ced67c7137b9" edge="1">
          <mxGeometry relative="1" as="geometry" />
        </mxCell>
        <mxCell id="cea7bed0-3877-45b0-bd0d-9c24f3ee554c" style="edgeStyle=orthogonalEdgeStyle;rounded=0;orthogonalLoop=1;jettySize=auto;html=1;endArrow=block;endFill=1;" parent="1" source="ce38ffa1-fa96-4ddf-ba6d-ced67c7137b9" target="46fccf31-0761-42e9-a95b-d418a9678e21" edge="1">
          <mxGeometry relative="1" as="geometry" />
        </mxCell>
        <mxCell id="93ad3509-4c54-466c-8ced-a3f8be1f3041" style="edgeStyle=orthogonalEdgeStyle;rounded=0;orthogonalLoop=1;jettySize=auto;html=1;endArrow=block;endFill=1;entryX=0.5;entryY=0;entryDx=0;entryDy=0;" parent="1" source="46fccf31-0761-42e9-a95b-d418a9678e21" target="QhQH7k_Fv8NDYgwHrIGU-13" edge="1">
          <mxGeometry relative="1" as="geometry">
            <mxPoint x="920" y="240" as="targetPoint" />
          </mxGeometry>
        </mxCell>
        <mxCell id="673cd527-8e2d-42d3-b5cf-4bc6d7b984e9" style="edgeStyle=orthogonalEdgeStyle;rounded=0;orthogonalLoop=1;jettySize=auto;html=1;endArrow=block;endFill=1;" parent="1" source="2e422b75-70e7-471e-af71-00d837bd0d44" target="25e4b622-9917-419a-b643-233c820a8318" edge="1">
          <mxGeometry relative="1" as="geometry" />
        </mxCell>
        <mxCell id="QhQH7k_Fv8NDYgwHrIGU-1" value="" style="shape=image;verticalLabelPosition=bottom;labelBackgroundColor=default;verticalAlign=top;aspect=fixed;imageAspect=0;image=data:image/png,iVBORw0KGgoAAAANSUhEUgAAAT4AAACfCAMAAABX0UX9AAAAwFBMVEX///8Ab9IAZtIAaNEAbNHa6Pebv+pP5P0AadC40/IAYs4Aa9EAZtAAatEAYtCpyfDT4/WGsOUlgNnK3/Qxg9lVmOLk8Pn4/P7z+f4AXNCPt+hKk+DB2fJyp+SixOzY5/cAdNZDjNxS6v8AWs/i7vpln+LX9/2m7vyA6fxA4vxE0fUcjNwZfNkQd9Z5rOY8idu/8fyT6vuw8fyj3vZ06Pzp+v04ve0xrucpo+Qil9/M6Pg7zfO41vIAVdBtoeBineO6VLcXAAALPUlEQVR4nO2caZuayBpALaokbJYsyiYq3tbMJBcwucvM5E5H//+/ulWsBdpuUel+nvd8SBCKEo4vtdODAQAAAAAAAAAAAAAAAAAAAAAAAAAAAAAAAAAAAAAAAAAAAAAAAAAAQBvv87ffvv+e8/23b5+9vq/nI/H5+6cvnE85xeb3z31f1Qfh26dKnAjb963vK/sI/OuIu9Lgv/u+tg/Af0p9/xAo/X1lh/2+r+8dw93899MXpu7T1z/+/OvHPxk//vrzj698z6cv/2NVStT3Nb5jTJn9433/+0dqaFgZkZyRgjWc/vj7d5cdlMd9X+M7ZvjC/bEQs1axxpAMQ+L/k22m5k+t/KL2e4XvmqEkTaqn0x9GkcqIItMvm33RRJJA39sMJUS0JDSPHPJMK9UIAn0nYPoQIgrVZ9bYdIug81zXHFsrnSqEHQR9J8j1cQg2NA2jOE1TxLaMXB16nD72G7kfv2NY63uTB+nbS5haD8n5mfSlzzd4xD8i56fSlz4ZI1YrffgmZV/6EkJsQraPyPqZ9KQvktBogZG0fEDez6QnfVOdrLwRUuYPyPuZ9KPPNXi5txkh/YMP5/SjL8RcnCMh4y6VB2tDij+D76iRe498z9OPvpTkjy2rPGzxWpJJC3vD9/psQ24SmckkccptlW27Ay/TJUmq/S1YN52BdsP7X/cBveh7lZDGFbDWi+Q0u5eUtKC5NV8hRtgkciih1RjHWCLU91PM0uJSn5lIhCgY60SRBOmPohd9M50k/H9fQvqu2S3oQzFCOA++ga8jLOgzpUb52ECaO8ESShEt9EVMnmRncrgyCKLCaQ+iD31rCeEiMvY6Ggmllu/VrAhJii7xaX2jkCY8GJ08G9NgjfHX4sYSHVEhtB9DH/osjHBRtEe1yA4ZS7IuNk/rQ2ki+GeNcVSeNvAR0ld3vvIDbtW3Prbzjb1dEBrty012v8mRFKqGtOprz+gTW95jdqyZmeEl62UXdDs36lNnxzKzsku+UhVukrVgtMOpqCFGRp3VaX26eCGTVjfQxY/vVN+mT6bTI3ntLhuBYsVaWm2vmYB9N4GXEL3RcFqf2HBkjXG8EPJBSLno9/wFbtKXafqhPm9mKJfoY98o6JjqVTnYsGctkWbfmZpXeHZ5R9pa1IzjppB4FLfom7L67UCfayvoIn2ZgrDqVIRKSw5HlhAVHujT+qjgfsGKQsVoYHXHsYfknlyvz59gdKhvyVoMF+nzdJanIVXwvNJWAtaVk0Sh59p9zSFWkCJsiNCjRfQduVrfMOX339UXYT41cok+VjuiVt+i8w0+Ikrrpi+PPlbVKuG4xesFCn6Fa/U5uaeuvnGRyyX6Juz8mQhp154rncStYRimT7lMn2q0+oDP4Ep9rJeJDvVZGrpUH7v7TqotEZtnFlPQnnT22hWo6Kijz3yrEf44rtMXlp7a+jZVHhfomyutynKQRy6uz3tlsbXonGITMTxZzfOWPo8g8vB+Rpur9O3qxII+b4urvef1+SNEJp197MS4nPFdj6qBAoGZLoyqevyK3tA32OjPfnqv0McadvXORp+bKPXe8/oWnZYth8dT+R22fqQPJxtCeG7wCX2mxqpxoeCMHj7kd7k+3rA71Gcivdl7Xp9NkNIdn+fLbIpOBnczHDTDLkVMutxY4dzbaMkJfYM568TEVZtxuQmOLd25KxfrG8ZE2FnpUw1x71l9rE13pCOwIkjjcbKgLI+4yW5U1hghu0ZjEi4Wc2SgV3xCHy9I+Hgf63PMbUmn70Zf0bDr6pPbZ5/Vt8HkyAiBqhE8549ee7CZ1MMGG8oqBYyxgvXlkjZZ8NHmTo9vQ3XER5sNRdc1++ETURfqW3SSFfoyrb33nD4/se1uxcHwbNtO/IHMjrZI6uzUiSGxngqa+wMztdM6+hI77XaYnanOl3hKRrx/wqriy/RZHU+Fvmn33Iv6vLfhRqrqXBZMvsmXeK6fsnzrIn2bg0RMX973fZq+d8p5fXg8O/CEyN5N9YO9oO8Yh54QSlsVMei7Bw8f3H133FcfRN8v6YPoA33X8FR9/mvEcNa/1BlYRzWPnsU9z1P1mS9awHjRbOv2O5cDGhT8fPwalnM8V5+WqOPx2JqSQNu9FYLjxenglKWZWs5knB0RcBYPHv57rj5a9ng9NaHxG4NxaXB6wbOsXb6i13p5cFugH32MjOrHH2Cb3k9f+Og1amf0jar52OKjXn0sJ4yqj/r1+gaZdmTwhZGcWdfzgfSNMrNcDZDm9jblR9Pm/khSHjR3o+v1sTAr1qcMw9lksi8GZR15kY4sWZbDvACMspW9zdrR2NVXpGmKQVeeTrYbeT1ww8UUTxcsr+Kgt5hOJptq5jeyooE33u2HQ6uaPfDCq2Wf1tfM++X6RvWFT3J99cJkS7lBn1qEnxwEJI1psSDA+hkQxGvWn3wcb/tC41SntDX72NG3Coo01Z2HUoDTFL/MBubPACPM88rPd+IAJ6kWbIuaKXxZDFFAf6q+Vq5MHajB1fN0v6Svnta5SZ+HJO7I2fHoWk5yK+7QTYzX9XCY1yuW7PJqRg/E+rOjL+RpBmq14DmjseqxkxwWW8N1JmU8L67H0SSZHXB3tJhMkrVQR6HDju3Lp4BtXL0S9K769DOlUlvfYCIO3PtYKgaOE6lbJY81MSpk7diPpNJ8tsmhsTj8LJR9aeVmTvOpUBmPVl55ajGN7On46iHWPvVN6bj1qbi/5OBNLd8Q356RjWRVMBGnyEf5qwntLAV943q1kEfyZUWyURc9qFiWr9KDKeazvB99llbc6qG+QaIJlbGM+SvbjJiIgWbTYR5ArTZ3o2/aPJjz/GtlrW4SZsV17On1kyP9PrximVbd6hF9dkvf8YZLrs/U7NbORl9C6yxkOh+09DmUFw6eHl8/PXLXmvc6fX7xvA38xWY1SdJqGZqoz7SmW5sdkk7oW4b7PA2fKnY6C/pqfR4y6lCN8kSCPvaV7EJe6Q3jRaf1KaFbUrT7dn75sYy+6mg2ukGfrOX3qhoB3u732co40LdjjZLpfpOlJ/TNaRDPeBo6rOKooYk+IQtV6+oL6YLPEN8wqX6m16Hjks7HcqKj+lj2Oq7S5xdLcIdUWXjirSZ1py2k5dtrJx5euU7D9a2NuPWFjb6JZrZ3ivrWLB49/dgbEue4a5/3Kn0rLV+uYVXL8Zuyr2q4pNVSthP67Kr8zPWxIGu1esJ6rX/WNGG2+c8m6htMJD8Kbunf9aXP3VI7D7p5Vf1uyhXNq/pVqrh8TdKP335403Jxsxfn+iwqvCPHV81Ujpa0qhhMGhfZCPpkqs7pLcux+tE3zAw6K24nLEpsb6OVVUdW99GSQuQw1d/WVza914mSrzLySKuH59D6/ZBd+SqKW7afW/pcbZUeH8A4w3P1aelut9vMUkrTqsm3lozQdGSSzMt235LqsqNmPo+JVDWjebCbvP3wLvI0WbDZFtFjjuh24USLfSEn0XZRFOa/woomshNZozIg5VZFO1OMm5b1PldfgCVJMkb2XGigqqxX/8LuJQzKcBhLfECfy2C1avASjwd2IDxYctB6PjOeBvE0RUHp7vOxfKm4lHXK8yp+l1DnB5Ky+RwGoj5VOng55yKeqm/gc7qNUz8a88U/Xn2g3MHv/lVd5qcJyb1OBq6qmq00vjNWzTqNM65nlDxTVetGUTsbR7ttUfRz9b1b5vS2lwfvq293/gvfJR7Bt02e3lff9UMW74OI3vjuIOjj7OmNb28tA3w/tEe///kgfDq6cS2qG8p35IP+ocn1GP64MgAAAAAAAAAAAAAAAAAAAAAAAAAAAAAAAAAAAAAAAAAAAAAAwPvk/y317c6VKXbqAAAAAElFTkSuQmCC;" parent="1" vertex="1">
          <mxGeometry x="295" y="210" width="130" height="65" as="geometry" />
        </mxCell>
        <mxCell id="QhQH7k_Fv8NDYgwHrIGU-4" value="&amp;nbsp; Data Ingestion" style="text;html=1;align=center;verticalAlign=middle;resizable=0;points=[];autosize=1;strokeColor=none;fillColor=none;" parent="1" vertex="1">
          <mxGeometry x="300" y="180" width="110" height="30" as="geometry" />
        </mxCell>
        <mxCell id="QhQH7k_Fv8NDYgwHrIGU-5" value="" style="shape=image;verticalLabelPosition=bottom;labelBackgroundColor=default;verticalAlign=top;aspect=fixed;imageAspect=0;image=data:image/png,iVBORw0KGgoAAAANSUhEUgAAAT8AAACeCAMAAABzT/1mAAABFFBMVEX///+goaI+Pj5dtNc+msQAAAC40kJZoRvNzc309PQ7OzsrKytcXV0tlMGio6TCwsJuuNZwcHD1+Pm6urrf39+Ojo57e3vo6Oitra3Q0NDD2+jw8PBUVFTZ2dnHx8czMzOVlZWamppLS0u10DdHnsVlZWWGhoZOnAAmJiZMTEw+ODVPnL4ODg55eXmxsbEWFhbx9t+tzD2QvDGbwjZkph94sCgeHh6dxYE+eZSWo6mGqLc+j7T1+enr8tHk7r3f66/X5p/l78LL3oa81Vy71E3E2m7L3n6yzirA12PT5cWw0JpurTmPvmu92Kl7slDn8d90rcUtXXI+T1c+boaBqrxSka2y0+KCvtbd7POcx9293OlqutpaUnDwAAAJFUlEQVR4nO2da3vSyhaAA3R1JwEJ5I6BhKAgKqU9VeulF6322K3u7W2f08s+//9/nLUmCQWaUtqRjY+s94tpMpnLO2vNjI+XKArDMAzDMAzDMAzDMAzDMAzDMAzDMAzDMAzDMAzDMAyzfPa2trb29w9evxG8fn24v4939pbdrZ+fvf2Dt++Oju4dH9+b5vje+tG7d28Ot5bdx5+Uva2Dt+skan0WVODozSGH4hQH/16/Tt2ExKP3+8vu8s/D1vv1ud1dODx6y1FI7L0/vqm8TOGbZff9J2Br/Xb2hMF3HIJHt7ZHAt8vu/vLZv/20ScELrv/y2ZLzt+7Zfd/WXjZxeHxZSv/Ip5sbz8TbG9vP6EbOdF3fJjWYppLGseyUO3sav/oIgRR2rNnT5/+ls/TpyjzyYW+499Hvxmxg+UMY2mEFS273Ht9hMc/UneVuCmNQuK9498PRrUFvpbbyq+LutMdG/LB+2cPHjyYyx6BZbffHl68rvmFlfNXjrqtsZ+1Dx+ff3pwvUQq8umPjx/G1zu7Wqiunr+iHsVTq9behz+ff/4sNObx26fPn5//+WHqzBxYcWEl/RWLkV71cp7tffmC0Yj8IaCr5x8/fPmS95sNYW9V/WEIRhWJpT8I/ULCivoTCov1gnqLGuxwWIgLK+8PDepRubMxvMkJzlOH1Xgkb8X9pQ6jpuv4DTtvQRxhBl4rNKbcsb8Lh+Wy3uzW3dgykDAMG57n2URLNayhXy3El9Sxv2mN6BFFCpokLCFPG/ubjV6pztTG/tjf7WB/crA/OdifHOxPDvYnB/uTg/3Jwf7kYH9ysD852J8c7E8O9icH+5OD/cnB/uRgf3KwPznYnxzsTw72Jwf7k4P9yXGVP/37DH8v2V/GFf704u4L/Up/pa/sLyXf36Pvu2trL3Q931+tdKXA6qr9+4+73x7p+frW1naLj3L8vUR9pVItV9/L2sr5u/NiZCmz9+jbWsLu91TumL9XpZRXl/W9Kq2gv7W1v1CZPpJX/La7NgIN0qORv1e10ojaq2l7pdX0h5r++k5/3w8XvG8vxuyJRy++FfVHFUrO/3wtTfE1U5g9W1F/5Emwlsvu7n9rtWl3ozCsjT1bXX+zeXyVvWmZ7I/93QT2Jwf7k4P9ycH+5GB/crA/OdifHOxPjjn93Wd/+bA/OTh/5WB/cnD+ysH+5GB/crA/OdifHOxPjrMf7G/Z4/mnMe//UH8nyx7PP87Zj/R3uuzRLIG5BM7n73TVVj/BWen6NXAuf6uXvCkn968zOIe/07NlD2OJ3L1/Z6bCa/2ttD3i7HyWwtn+Tu+u5MI3DSpcu8LhDH+nf7O8EWd3z2sYh5ck5vurnf99xvKmMVHiaa10JyXX3+k5qlv1JW82pnn35OT8/PS0Vnt8//H/kBpaOz854ZhjGIZhGIZhGIZhGIb5cWjeL/ofGni+f4MP7ai+7w8N+1oXQdWYvOFAN7eg7TtO25q/A5fQ1NhxYiP/oV11nBt9R+jm1AE25i/dhQR3/KZmudPlGtCZvHGFP2wdBgAk3Jm/F2NYaYdyP1g1BCjjs0UK9GAHYOYniiaog+N5dgGgMnYzBH26XAOakzfy/cXQb5im11AUf6LGuYkBYk/TPMvOfVoIFK17u5rnZAPiHlTxYkgf1IljW23TVA7bttJqh57rK4rRc3vZlxnroqzSAhgqZui4vaGmWHXox74SWFguTMuN/LXarht7qT81bmtKMHTd7OuWvWxsfhf0AiahV3Bdhxrz295ww9awbVdkt91zHa9KNWm+62b/O0wDIGsRUbEDOBVe7Adt18mM+hAtQlyCCdCyoYhXUZIHDQd6+FMTLGy4WUYNGwDFUTfrUBC/NlEHps5DgLrSES8qOvSxnJ8NLPHniTJ9TfhD67ESbMJOBHqSUwa+L4J/QFVUsEmBT93Bao0eDDpiscjSNFTsMmyWoZ+kTA8eXoylB/SOhZUO+lQ2FbgB7cX5s2idirBRRQs0TwcHB0oLUUX4A9fzqtDVUIduTvhr42BbGKitAWimBbqmKTGGjZqFXeYvGJpUmYHV1r0+6kPzDr3uZu3j8osvagWoYBoCVDXNp6EXoW94mtGgWN9UzAjamtYmf0XSgbWJ1ytUmdZ22m0fu9vRaIpoUgomNpYsqA4MFrjzR5iHo1ms0E4y7i8SV1VVDfvQmPAnEs8LfWcHV+5QBLBih34P+pP+cHu0CkVMegeaOuW+jVGlqsNRTgVORFGJjWF+V5O3KqioCEZap7M50FpJC5ugBhhhqlpNt6cmyQzKuEl0MA3cRhjuQCOEsughKfYqEOUujT8GI00L0VkXOuakPwqSYlpi0l8RS2G+NDf6mT8NC1bq0/4wvvR64g/ELIVpdeWLoGhT5WL/6CWpRpNTBFoFu9TEzkCzkurQn52+n/hz02aGWLee7cShmJw2+aP1YZF/xleHul+t+h3qRiHpiyOOM52Rv8rE0SDdP9qwGSSKIkwpg/wNSYA57W9Ae3tP+KtvYJpT/F1Kpz4mQRp/IsyauAAKf6roSzTQGuKBORDxN3ZaaCQzj9P0ELucrr2GiD/yF6aPF4WXno0soCmGlkbLGGx6dHDK/LWhjAnQSjfgOvTshlWk85ZB641DS1II/SDJPffCX8dutXBrwqWs1Rf+uuglIuH0nephUp/j2KYWU20+FE3qjyPOJF7iz6IYwj1ECwYYmXgSwcb6sIHvW2l/sH3HDmxMHZz/HeyorY75w5T2bLu1sATeSNNAK0Mljf6hQifOfln4oxXErGdbIpGen13UblLBThmHhK9DXyRWBwaZP0Gd0ha374LISUzxKAh2xpaDXlKsJ05EaNgQ+zB5KJM/jcp2+jjJYmNu7tD+G6UbcUK2MfeyymL0t6kkB6ZsdVrUBhIa6dS0jAxPMQ3L0BqWp3jpJKuWZWTnPyoYtpL+UEGlYaDKwLBCxTMsnPt0XFpSW0tpWJbnYWU2baVYzla0EOtLc9BsGJYVihywLWqOHoa0YqkGNRIkTSSPVVz/qB9j7ytig8qqaOED0Qp1wsbG0zGNHRFXFTHP7YUeRX5pcCVzowXvBr8yVvdhsdlb4EmOYRiGYRiGWU3+D+3SJ2FxMfuSAAAAAElFTkSuQmCC;" parent="1" vertex="1">
          <mxGeometry x="274.24" y="450" width="161.52" height="80" as="geometry" />
        </mxCell>
        <mxCell id="QhQH7k_Fv8NDYgwHrIGU-8" value="Raw Data Store" style="text;html=1;align=center;verticalAlign=middle;resizable=0;points=[];autosize=1;strokeColor=none;fillColor=none;" parent="1" vertex="1">
          <mxGeometry x="295" y="420" width="110" height="30" as="geometry" />
        </mxCell>
        <mxCell id="QhQH7k_Fv8NDYgwHrIGU-9" value="&amp;nbsp; &amp;nbsp; &amp;nbsp; &amp;nbsp; &amp;nbsp; &amp;nbsp; &amp;nbsp; &amp;nbsp; &amp;nbsp; &amp;nbsp;Data Source" style="text;html=1;align=center;verticalAlign=middle;resizable=0;points=[];autosize=1;strokeColor=none;fillColor=none;" parent="1" vertex="1">
          <mxGeometry x="-20" y="190" width="150" height="30" as="geometry" />
        </mxCell>
        <mxCell id="QhQH7k_Fv8NDYgwHrIGU-10" value="" style="shape=image;verticalLabelPosition=bottom;labelBackgroundColor=default;verticalAlign=top;aspect=fixed;imageAspect=0;image=data:image/png,iVBORw0KGgoAAAANSUhEUgAAATYAAACjCAMAAAA3vsLfAAAAxlBMVEX///8AAADtPCzf39+IiIiPj4/sIADtOCfa2tru7u69vb2fn59hYWH6+vrtNybtNSPsJQmvr69zc3PsKxTS0tLsKA/sMB375eRZWVnyfXX5xsN/f3/n5+eqqqr09PTwZlz+9vX2q6bHx8dKSkrvVkr97Ov3trIpKSlqamqZmZn72NbuQzP0lY/yeG/zjYbwYlf1oJsSEhI7Ozv6z8z4wLzuSz30nJb3sKz95+bzhH3xbmX2pqEaGhojIyMXFhYwMDDuUUVRT083VGknAAAL7UlEQVR4nO2cCVviOhSGy74UlN1qaQdRRnAbcZur4jj+/z9125ykOVkooDiAyfc89450Cenb0+QsKY5jZWVlZWVlZWVlZWVlZWVlZbUhHZ1vugc7qIMfxeLhYNO92DENnor72ex+43HTHdkpvbR72exeKZvtlX5uui87o6OLdjZbavw4jf/pnt5tuj87ofNfjcjM2hdHjvOzFxldqXj136b7tPUaHRb3omezfUw+1S8b8RBXvBxstlfbrkfAdD1gG0ZXxXiI6/3eYKe2XfShfBYeyvPTLnlo7RCn193fbjbi86Dwuc/CFHGwiV5tuf57jmeC3r7W4bghDknxafCPO7XtGlyTQa1xWZ+z/6lBZoqXf9utLdfveFDba1yN5h9y8AP8kvt/16st190D+LULQnfqBf+yEX6sKGaPzSi7hBn9hiEuzSgNURSz78We2nKD1uCaRPhF0wPVl3gmWGWKHD1Httm+/sIubb8+5JDd/S0a7cFR9//haOUTv6I3O6LRFfHEPhNsnpsX4Y/isT3b+8SFR0F+r7i+Du2GDooRtf1PDO0kpWQctsEpCUGzKw9sIBJWGIgtcfoXxQY63ZFTS0Zic5xjcPoPV3T6ITrtXZyWzMTGnP7uKmU9mitp3zhP+4ZiiywHsmx7S0dLL5AreYos9NBcbCynu2RZT0iCGI3NcX7uQwVh4RCHSoGxDMfmOI+Q17iek9oFDYRSoGMqNux4RB4/QZISaTG0g2SLidgGWTGPcX4qPICy2IOMS4FXBmKLgqt9Mc12fzE3i0SnDaEUOHruGejuHjSySiWKrDPab8g5y/+ei8raowFd5fD1Hd0uEWxyJQoy5L3IlUXbwL0VXWKodBlYVIixkfFKrETRsh6vxxxrAC1Z6fqOirDtPx531aBUiPDhgwgIKl29kpEF0whb7yapW4lPIC3rDQ7AvS2pz/F+48YxUoAtsZ0eHu/rlxDhd+OBrivOGqtWur6ZGDY6UkkLjWBVW1bxUaDS9cvcwhXHxnzZxrPo/nZLJdkj/mCl6xsJY2NrTRsocopg7skGSCpdx47JirGhUYuW/9oYCg7s65ddDdgH42bTCFvpl+YR1Ael7DHGIWkUcZXMixKKcWguDvilOQM+TBpySFo0sQRTp/6Xzr0QX7XSuShQhDAQm35dm+r+0ipNQ+MQm2htsXSxJa3msXTHi6YmyN4t+mFqwU+7ZvcIRrIYpm7ZKY24Lu6NzO5SaVeIE5ilxqFmkTNeMW4wNv37CBSmuqT+po1CUqOxRR6b5u0XyOjuySFpD6fNDcemL7BEMLUhKX/3ykhsA2H9gvJmX6SfOGDQvOlnIrZRsSvEUSO5eCxooHuv9HnPPGxRcCV5FtJSBazf9C1moaDw18TVlKOi+s7enLeDtF4xzL/tf9DT7VLkgdF1akiahYIHUCUVYzDq7Rn5cxc0jpKAiCEo+6yDa16VlArW4Hb/aup5sFDwhVYEB+iAT6z5/Taig/2zUj3ORjCPsupYRyeOZd4H/M7S/mQFuL/ttjKzsjVu9iXmpLYirG0jMJWKyyMpKJhbJRXFKnlioaqxJ0UNNCR9NrdKKuu+1FPWtp2fKoVT7c9dGK2brhqUIrGQ1PTXlhWN0kZ7+q73vJ+7MFoH83wLUnEpmeveLpJuORvziY12bxeJLp7kQakuArNSJC7VhXhfXMxrpRXNCcWVUqiSKkvHrbS6e4C31x7sj/OsJvj9u7TXYqy0Ist3e12zFwF+QFFcsOCVPyutzm3MbmVlZWVlZWVlZWVlZWVlZWVlZWVlZbXTqjSr1Wqz/AUt90nL/ZU6U+0sOqRDWg0/3q31qJyJlf+Clpuk5eoKZxSi42eV9GN80mruUz1bgwBb4QtaXhlblZxwln5QfgexhURLtrwytlpmCSQ7iK1Ojh0v2fLK2E4AW/rwtrPYWku2vDK2AmBLL+JbbErzZ/EJzfSDLDZVk1prkQdisX1IFtuHZLF9SBvEVg7yvu/CKKLB1nF9Px/QQaZO/4v/VyHH1sgnNN/Vh5P4hLJ0AsZGv1GYJJMDowbcQt8RfyKPHtOJTyyg4E/BVsfd6Tf5la1X9ck0Q5UPVWwVn+3NFOrMc6+y7nLdshP6LbZp5kYfJ+TP+DI5tuCMHeLzENVl1x+SBobCXQGVx/z7fEpKwha+wm7SbueEHT1ZN7WqcPFVGZsr7O4sxiZsf81psPXf8CET8ZtyTge2q9jCmviN41DFFs4QtQI6eLre5IQvdiUT5ARsUk8zw2E6tvqttDnnStiGOemIdwFbn+1WsHUyiqoytrnUMouCjc9Ri24LxuapXWX91WN70x6OsclcM5kTjK3JWpCxDVP7Adjq9AklSZOyfPCCVMoKaiZteq3WCfoKwMbR1FpjfL1Rd13P8+gZtehPj8yniXHOohMwwrLwZRG8cYsbso+wJZKw9ZMdr7WxR0fjiSNgE6jRW17r9HPU7E7WRS1kPYHprc57TrCx+3UL9l3hFJkXQT5wB4SNkx4MJHxykLDl4cKG7E50JGye2wz6IrY38dR+3BeX39ocotZHfRtz5rO1uT70svh1h6x3BNsJ+psoGZZoD2S/je7lUWTyZAnYuLdA7YA84Ak2jz1NCBs994xPvKEXkH8TbPUzgRqY5xA+RAYQfIoUFjU2nPipzziqskyNPyp6bFWZGh/HMTacFqfcYnNj2PhdQNjAkGaaZAjDJlGjt5hZWHWN70IEpOWpsA2x8rklJGqmYfOUu8DcNoxNfFbgOY1HN4rtje/j2Dq8FVl5CkuiRu/w7AuKDHCZkvXWEmxniSEgvaVgU40p2cixvYm7AUic+KbYhnwfx1bQ3BAqwBbcKl9OjdddO7g/pF2p2SHDBo/wTDrHnY8NDFWer3wJmzuvE67yfRzbu0yUS3CE8C2bsI3eeutawOVW2lph2MraO9yZj62a2ClWVcIme51jth+w+UpXYmxg+NrxCWMTbwlygDwt8Y8pTHoliF08mJ0czFXmY4OhUk7GdiRsstM5YYbkKqdzbOCnaa9CsDZh8Aux43i7Un02TV+DTfaOVsSGzWJ1bNKII4RX6zI4wCaPRSHD1hGYMAnzuu4hlTkPJWxyZgx8xw7Dhp9hju11IbYWjJHSkBO6KLZZl71ldJ3pMGzQaWniE3ONIraO1noLEjb5IX5jVpKG7UTZlyhPbxb1nJTZth+woPFdd/oHdIIRMPkMG53jcinniNjgkzwzzyRsknWD9f5x0rEBG9/RiPltzC2UZ+pIfZqmW1MsP9HYNXSVYGtprIf6nQK25C4CUnH5CL0Y5O6KNlNLyKdhG86/bh6T0myObgxrzd3zAfU5okQoDh0KiEBTcRv5kIQZAUfERO8CxvYHt1fll5qGjY4nuhwGyoDQvidjWCEZYcrqlXxC74pds2wOQfkqc0uSkAI2/hwjRqDKHxVb5pb7X5Taa/x3KjY6J3po7wSMByeO4KAptO+iK+us09qSzFCN3qBOkuMvoIvK+KFwkQjbu2gELBovUDBBcoKYOKKnhz7+nIqNEslM2fDQfKXH4jQlvR7SH/iTTkBgDWtz3ZLk7kmhGeQTaOzBTTKJ3qQZ+FO+m2FjAYyfz/vxKYmDOXabLs+2KWnKqR80J0nquIaYz8GGbllr4hY83qqQFKdf4fNL84ZhZfhO/pTjoU9ITVELSfFXZfdMwNZHe2oOH8qU9uTsLtarswQ2uTIACuUSDIUVcPvkWmeFVuY2EUowocxtWBV7gGoRNZkjXI9cgmlKye/Ma7gUNg23P/HBUsGPL+6SSz3LVsGXU0toO5ALfmNh99CRsDm8AAGXF+KKRGaqK/gF+Ajuny7CphRhwNORsDEji3yV3BQfvV5quAZLpgZ57e6Q22M8NcjYuBGwWa7KLbTg4CghiVn7vPpyy2e3yRxsaPbEhtqiA7y8dpcZWR33LXO2xhQIUz8Ye543Dog3Wc/Fwo5l3413t5pkegzJbiESGLqFwsRF6wvKk7iW5QPbCjmhLp5aCVrxN7p4buMHJiJbhPmvTPoStV2fe1ol149Er6DqR0fXJl+x8N3KysrKysrKysrKysrKyspqR/U/NKAAd1jIJBUAAAAASUVORK5CYII=;" parent="1" vertex="1">
          <mxGeometry x="550.0000000000001" y="210" width="133.13" height="70" as="geometry" />
        </mxCell>
        <mxCell id="QhQH7k_Fv8NDYgwHrIGU-12" value="&amp;nbsp; Transformation" style="text;html=1;align=center;verticalAlign=middle;resizable=0;points=[];autosize=1;strokeColor=none;fillColor=none;" parent="1" vertex="1">
          <mxGeometry x="550" y="180" width="110" height="30" as="geometry" />
        </mxCell>
        <mxCell id="QhQH7k_Fv8NDYgwHrIGU-13" value="" style="rounded=1;whiteSpace=wrap;html=1;fillColor=#d5e8d4;strokeColor=#82b366;" parent="1" vertex="1">
          <mxGeometry x="750" y="380" width="190" height="140" as="geometry" />
        </mxCell>
        <mxCell id="QhQH7k_Fv8NDYgwHrIGU-14" value="" style="shape=image;verticalLabelPosition=bottom;labelBackgroundColor=default;verticalAlign=top;aspect=fixed;imageAspect=0;image=data:image/png,iVBORw0KGgoAAAANSUhEUgAAAgAAAAIACAYAAAD0eNT6AAAABGdBTUEAALGPC/xhBQAAAAFzUkdCAK7OHOkAAAAgY0hSTQAAeiYAAICEAAD6AAAAgOgAAHUwAADqYAAAOpgAABdwnLpRPAAAIABJREFUeJzt3QncdlO9//GfPGYPkWT20KBykqFBZqFQNCg5OsdYUilRJ/9TndwqUSpp1ojqFOlUhiQqRaRImoT0IFOmDCGU8/9973Vd53nu2z1cw97rt/a+Pu/X6/t6ndfr6Ln3Wtfe6/pde6+9lhkAAAAAAAAAAAAAAAAAAAAAAAAAAAAAAAAAAAAAAAAAAAAAAAAAAAAAAAAAAAAAAAAAAAAAAAAAAAAAAAAAAABQs2U9K3vW9Wzk2dyzg+eVnRzQySGewzzv8hzdyfHT5GTPKdPk5Gn+N59Z6N99V+dvHbLQ3+8ezw6dY9yoc8wrd9oAAMDIWdHzVM8Wnpd49rH05fkez8c9X/Gc6bnQc4XnZs9dnv9tWdSmmzptvLDT5q90+uA9nT7Zp9NH6qv1PCv03dsAANRoaUtf6tt6/t3SL+JjPV/2nO35ledGz0MW/8Xb9DzY6Uv16fc6ffwRz9s7fb+NpWJh6Zk+MAAAZrOY54me7Tz7e47wfMnSl89vrZ2/ztuSv3Y+I31WX+x8dvt5nm/pkcRiBgAYaY+39Kx6b8+Y50TPjz3Xef5h8V9kpJ7os73Wc57nBM/hnr08m3lWMgBAKyxu6VffLpZu0Wsy2zmWnrFHfxGRMnOn5xJLEyI14VHFwSbGREYAKJJu665vaRb6mKXB+3eef1r8FwppTzSBUQXkcZbefNBEReYdAEAma3leaumL/lTPHzwPW/yXAxnN6NzTWw3fsPQ4YVfPmgYAGMpqlm7fj3lO99xi8QM+Ib1EkxEvsHS3QI8RdIfqMQYAeJQnWPr19H7PD42Z9qR9UVHwA8/7LBW2mogKACNljqVfRHqOepKl5/WPWPwATUjuaF6B5qwcbGlOwRIGAC2ylKUFc/ROtl61u9/iB15CSsx9lu6AHe7Z2rOkAUCDaGa0fs3o1TvNmn7A4gdWQpoYTTLUa4l6JXF7S8U0ABRjUc9zPP/l+YmlpVujB05C2pi/W7qL9k7Ps4yJhQACaNKe3rvX4jp6jhk9MBIyirnd0hwCzafh9UMAtdDEPT3H/7ClSXvRAx8h5NH5tecYz1aW7swBwED0vFGvK+lXPu/gE9Ks3GHp7oDWIZhrADCLVSzdTjzDmLxHSFuiN29O87zGs7IBQMcKln4laLU9ltUlpN3RHhlapVBrD1AMACNoeVvwpf+QxQ9KhJD80fbIKgZ01285A9BaWmVsd8+3Lb1OFD34EELKiR75fdOzm6WttAG0gJbd1UIit1r8IEMIKT/at0CTfzc2AI3zWEu39S61+MGEENLc6LVfrerJ5kVAwRbxPN/Sqz/c4ieEVBmNKSd7tjEAxVjW0q99LQISPUgQQtqfP1h6i0BjD4AAT7L0bF8LfkQPCISQ0cvdluYKPN0AZPECz9meRyx+ACCEEK0t8F3Pdgagctr1S8vy/sziL3ZCCJkul1laY4S9CIAh6X1cXUxXWPyFTQghveaPluYJLGkA+rK0562eGyz+QiZlRuu73+m5zXNNJ/r1dYml1d3OWSh6ZHRKnzl70r9xQeffvmyhv3db5xjuL6A/SJm53vMWS5uLAZiBfvG/wXOTxV+4pJ5o6eW/WJpJfZGlZ6df9XzC8x7PIZY2bXmlZ0dLW7tu4nmiZ1VLyziXSsemY9Sx6pi39uxkqS1q06Ge91pqq9qstqsP1BfqE/aiaG/0Y+Z1nsUMwAR6XqZb/X+y+AuV9J8HPfM953u+YekL7nBLxdzLPVt6nupZ0TAb9ZH6Sn2mvlMfqi/Vp+pb9bH6Wn0e/bmT/nO1Z09L85qAkabFezTIabWt6AuTTB1tmHKt5zzPCZZ+pb/e0qTMjTxPMERR3+szeLHnQM8Rlj6jH1n6zLijUG60bskukz9QYFQ8y3OhxV+IJK19/nPPVyzdot7f0qqK6xq3LJtMn906lj7L/SwVb/qML7Y0dyH6vCNmP/FsON0HCLSN9uD+nKV3Z6MvvlGKbhn/xtKOZ0dZ+kLYwljjfJTps9/cs6+lc+JUS79MebyQN7rL9mnPSjN/XEBzzbG0ZO/tFn/BtTm67asZ6qdbWilRcys0IY3XkdArXau6+6Nb1NoI5yRLb0Boy9zo87vN0Z24gzv9D7TGtp7fWvwF1rZoKdLzPMda+qLfwNjLHPXRI4VnWDrXdM6d57nL4q+DtkV3Ybbq7SMByqXXoj5rLNtbRTTQ6n3091t6rUx7ISzS+0cB1ELnoF571Dmpc/P7RlFQRTRmfsozt/ePAiiH3uHWIhjRF1ITo2eCejNCt151S1C38HltCE2iRwi6U3CcpUWU2KJ7sNzo2bXPvgfC6D1mfXFFXzhNyr2WVp57l6Vbf0v33etA2XRO69zWOf49zz0Wf901Jbob8EXPY/vudSAjTRq62eIvmNKjLYy/Y2m54+cYk34wenTO61Vgrfz4LUvLKkdfl6VHdwN2HKSzgTrpYh4zXu2bLlorXrdBNSt/e+MLH5iKHhvoTSHtxcAdgqmjuwF6rMJkXxRBC41oEZnoC6Ok6CK91NK71frC5xU8oD+6ZrSAkSYW6hVEJhJPjBZRW3vg3gUq8FJjRbFu7rM0S1+T9tYYplMBPIoWLdKkQt0d4C2DFPXDK4fpVGAQeh/44xZ/AUTnWs/HPC/wLDFMhwLoma61HSzdCp9v8eNAZHRnRGsy8FgRWei91DMt/sSPigYcDTxaRpf38IF461uag/R7ix8foqL1F3hLALXS4jNXWPzJnjsaWLTT2jOH70IANdJKhWM2mjuMqs3rDN2DwBS0acitFn+S54r2LDje0i99AM3TvTMw3+LHk5zj1tYV9B3wf/a20dghTK8enWjpmf6ilfQcgGi6lvU2zpcs7Z8RPc7UHa26+OpKeg4j70Br//v9es1I7x8vW1GfASiTXi/UzHm9sdPmVwvVtjdV1GcYUVqpLvpErivaelO3+HmuD4ym9SwtztXWR5sqAg6prLcwUt5h8SdwHbnY0u0xXtsDIBoL9vT8zOLHpzpyWHVdhVGgEyb6pK0y2l3vdEvPAQFgOtp5U3cGH7D4cavKHF1lJ6G9tFtX9MlaVbRK4ZGe1SvtIQBtt5rnfZY27ooex6rKf1baQ2idf7N2TIz5i6XXf1gYA8AwNDFYy3vfYPHj2rDR2L5Ppb2D1tjJ87DFn6TD5FpLF+tS1XYNgBGn3fe0F8GVFj/ODZOHPC+suG/QcNqX+16LPzkHzfWe11jaowAA6qI19/fzXGfx496g0XonG1XdMWgm7cF9i8WflIPkNs+hxna7APLSmwNvsea+QniTsZ3wyNNJrH3ro0/GfvM3S8/4l6u8RwCgd9oc7XBr5h1UvRK9ePVdgqb4pMWfhP1Gr/OtXUdnAMCAVrX0+mDTVk09to7OQPm0HGb0yddPfmlszAOgbM/2XGTx42Wv0ZsBL6+lJ1AsbevblE0x7vK8zvOYWnoCAKqlsUp7i2i58ejxs5foONlGeERopnxTnvufZiziA6CZNHZpDIseR3uJ5gPMqacbUJImLPOrFfwOqKsDACAjPW5twtsCbBzUcvM891n8iTZTvutZuab2A0AEjWlnWvz4OlP0JsOadXUA4pV8O0qrEI4Zz/oBtNMillYq/bvFj7fT5Vu1tR6hXmHxJ9d0me95Xn1NB4BibOy5yuLH3enykvqajgjLeG60+BNrqpzlWb6+pgNAcTTm6XFn9Pg7VbS0OvuptMjbLP6kmipaOIOZpwBG0aKeoy1+HJ4qB9fYbmS0tJW31v+DljbvAYBRt7+lMTF6XF442iuAuwAt8FaLP5kWjibA8IwJABbY1srbT4C7AA2nXfJKevavTXy2r7XFANBMW1pZK7TebNwFaDRVcNEnUTd3eJ5Tb3MBoNE0RmqsjB6vu3lTvc1Fna6w+BNI0eJDm9XcVgBoA20oVMrjgCstrV+Ahtnc4k8e5SHPTjW3FQDaZGdLY2f0+K1sWnNbUYPPW/yJo60m9627oQDQQq+2NIZGj+PH191QVEsL/9xj8SfOB+puKAC02DEWP45rYuLSdTcU1dnb4k+aiyxtPQwAGIwWSjvf4sfzPetuKKoTvcSktr5cvfZWAkD7rWHx2wmfUXsrUYnFLb1vH3myvKz2VgLA6NjNYsf0+401ARphK6NSBIC2OdNix/YX1d9EDOs9Flslrlt/EwFg5KxtsXd3P1J/EzGsn1rcCXJEhvYBwKiK/IF3SYb2YQjLeR62mJNDK1etWH8TAWBkaYyNWiVQ3y1z628iBrWNxVWHH6y/eQAw8j5kceP8FhnahwG92WJOCi1ZuWqG9gHAqFvN4u70vjFD+zCgqOV/z8rROADAuO9ZzFjPssAF+7HFnBT7ZGgbACDZz2LG+h/kaBwGc53lPyEe9KyQo3EAgHEaczX25h7v5+doHPqndff/YflPiJ/laBwAYIKLLf94r7kHc3I0Dv3RJLzcJ4Py8RyNAwBM8EmLGfNXztE49OcZFnMy7JOhbQCAiaLmATw9R+PQn6g9AJ6bo3EAgAk2tZgxn7UACrSjxZwMT8zROADABE+2mDF/hxyNQ392tZiTgeV/ASC/lSxmzH9xjsahP1H7RS+Wo3EAgAk09kaM+bvlaBz680qLORmWy9E4AMAEy1vMmP/KHI1Df6IKgLVzNA4AMME6RgGAjqgCYMMcjQMATLCxUQCgI6oAeFmOxgEAJni5UQCgI6oAODJH4wAAExxlFADoiCoAzs7ROADABOcYBQA6ogqAO41XAQEgJ425fzUKAHREFQDKjhnaBwBIdra48Z4CoECRBcAXM7QPAJCcaBQAWEhkAaDHAEvW30QAGHlLWdztfwqAQkUWAMqB9TcRAEbeGyx2rKcAKFB0AfAnz5zaWwkAo0tjrMZaCgBMEF0AKP9WeysBYHT9u8WP8xQABSqhALjOs0zdDQWAEbS0xf/6pwAoVAkFgPL+uhsKACPoaIsf3ykAClVKAfCwZ4Oa2woAo2R9z0MWP75TABSqlAJAudizeL3NBYCRsITnFxY/rlMAFKykAkD5aL3NBYCR8HGLH88pAApXWgGg7FZriwGg3Uoc1ykAClTiiXKX5xl1NhoAWkpzqe62+HGcAqABSiwAlBs98+prNgC0zpqe6y1+/KYAaIhSCwDlas/K9TUdAFpjJc8VFj9uUwA0SMkFgKI3A1aorfUA0HwaI39u8eM1BUDDlF4AKL/1rFpXBwBAg+ku6WUWP05TADRQEwoA5Q+eNWrqAwBoIv0w+o3Fj88UAA3VlAJA0XrWT6+nGwCgUTQWlrDGPwVAgzWpAFDu8exaS08AQDO80PNXix+PKQAarmkFgPIPz2F1dAYAFO5gS2Ng9DhMAdACTSwAuvmyZ271XQIAxdFY9xWLH3cpAFqkyQWAMt+zaeW9AgDl2NhzlcWPtxQALdP0AkDRdpdjnsdU2zUAEGoRS7f8/27x4ywFQAu1oQDo5mxj+WAA7TDP832LH1cpAFqsTQWAcp+lCYKLVtlJAJCJfvUfYOmNp+jxlAKg5dpWAHRzgeepFfYTANRNY5bGrujxkwJgRLS1AFA0N+A4z3KV9RYAVG8ZS/OY2vCsnwKgQdpcAHRzk6VbakwSBFAS3e7XGFzqFr4UAC03CgVANxd6nldNtwHAUPT6ssak6HGRAmCEjVIB0M05no2q6DwA6JPW8D/F84jFj4UUACNuFAsA5Z+WLsInD9+FADCrtT3HWzOX8aUAaKlRLQC60UTBL3qeMmxHAsAUNLZ8wdJYEz3eUQBgglEvALrRHYHTPc8erjsBYNwzPCd5Hrb48a2EUAAUiAJgYvRc7gzP1sN0KoCRtaWlHxOj9ox/tlAAFIgCYPpcZun1waUG7l0Ao2BxS2PpRRY/bpUaCoACUQDMnls9R3vWHLCPAbTTEywtPX6DxY9TpYcCoEAUAL1Hs3fP6fTZnEE6G0DjaUGx7S29RfSgxY9LTQkFQIEoAAaLKn7dFZjXd48DaKJVLf3av8bix58mhgKgQBQAw0V3BTRpcA9jrgDQNrqmd/ecZszmHzYUAAWiAKgu91u6LbiLZ7F+PgQAxdAt/i0sLdpzt8WPK20JBUCBKADqyc2eYz2bG5sQAaXTNap9Qj5iafOw6PGjjaEAKBAFQP25zdKCINwZAMrR/aWvLcOZxV9/KAAKRAGQN3ql8LOeFxlzBoDcdM3tbOn2/l8sfjwYpVAAFCiqAGCVrDRnQBMIX+9Za7YPCsBAtH7HgZZW57vP4q/7UQ0FQIGiCoBdPbcH/e1S82vPUZ5tPUvM9KEBmJaunW087/f8yuKv65Jyp2e3oL9NAVCgqAJAtIrW2UF/v/To7oAWHdJ7x5sYEwmBmaxradluvYXDzP2p87NOP1nQ36cAKFBkASCLev7L2CpztmjuwNcsPS5Y37OIAaNJ5/7TPa/zfNVzi8VfnyVH6xccYRNXL404DgqAAkUXAF3aOvOXQcfSxNxjC+4QaCbz4lP0KdAG+pGgorf7C1/FcPT115T8zqbe4jziWCgAClRKASB6dnekseLWILnX8yNLyxO/zLPaNH0MlE5L7r7E0jP8H1o6t6Ovr6ZFK5RqLFhymj6OOCYKgAKVVAB0Pcu4G1BFrvd8w/M2z9ae5WfpdyC35TxbeQ71nOy5zuKvm6ZHEx+fO0u/RxwXBUCBSiwARJPedMvvnqDja2u0yplehxqztDDRqj18FkAVHmvpcdXBlhbG0u3pf1r8NdGW6BXHMevtcWDE8VEAFKjUAqBL7/D+T9AxjkpUFHzf82HP/pZ+Pczt5cMBprCspefO+3qO8XzPWGmv7nzb+ltLJOIYKQAKVHoB0KX9t38TdKyjmvmeMz0f8LzG0q3aVWb7oDAyVrb0i34/S8+bdWfpT8YiXzmjuygvmO2DmkLEsVIAFKgpBYDoNZY3GgsIRUfvWV9i6bVEvV70akubHmniIa8ntos+080sfcZjnv/2/MJzl8Wfh6OcOzxvsomv9vUj4pgpAArUpAKgawXPBy0tlhN9IZKJ+bvnD5Zu+37a0muKr7JUIKxtvK5YEn0Wum2sz0af0dstfWZnea7wPGDx5xOZGH0mH/KsOMXn2Y+IY6cAKFATC4CuNTyfN14bbFq0VbLe8tAtY33hvNvSbWRNStzUM8+ztGFQ6ru1LfWl+lR9q8W2PuU5zXOppc+AW/XNiV7r+4KlOVFViGgDBUCBmlwAdD3V0gIhzChuV/5m6ZnyhZ7veE7wHGvpy+wgS7eltbOb9nHXOaD5CW2avKi2qE1qm9qotqrNarv6QHvXf8lS36iP/mipz6I/N1JdNKbpVd6nWbUi2kIBUKA2FABdWi3s60YhQNI8Bf3K1Zei5iv82NKtbRWKOkeO70S3UzWBTXMZ9LhCt8EPmCaa1f7KSdl3hv/+sE6O6PyNDy/0d0/uHMtZnWO7pHOsNxtr2ZM0hukc+RerR0SbKAAK1KYCoEvrhGuNcB4NEEKaFN3q1+Ra/ZipU0TbKAAK1MYCoEuL3IxZ2gIz+sImhJDpouWOdWdoPcsjoo0UAAVqcwHQpWepWn1sfkXHTgghVUSLcI1ZerMpp4i2UgAUaBQKgC4tL6xZ0Rf0eIyEEFJH9CbGXp7FLEZEmykACjRKBcDCNrG0HjnzBAghOaKJfXr1VauaRotoPwVAgUa1AOjSSmeaqa0Z2NEDBCGkfdE+CHoLZF0rR0Q/UAAUaNQLgC49HtC65pqIo121ogcNQkhzoxUx9ZqnHjkuauWJ6BMKgAJRADza8pbe42auACGkn2hzHt1RfLyVLaJvKAAKRAEws408HzdeJSSETB2NDZ+0NK+oKSL6iQKgQBQAvdFtPD0iOM5zq8UPOoSQuGg3RE0i1i3+Jax5IvqMAqBAFAD9W7gYuM3iByNCSP3R3CDN4teY2cQv/YVF9B8FQIEoAIajgUC/AvRrgD3SCWlXul/6eme/TTtURvQlBUCBKACqo2JgV0tbFGuFr+jBixDSf3Tt6hrWtdz0X/rTiehXCoACUQDURxt6aEbwOZ6HLH5gI4Q8OlqgR7sx6l19PdpbxNovop8pAApEAZDHipb6WusMcHeAkNjcbuk9fb3uu4qNnog+pwAoEAVAfppEuKnnPZ6fGncHCKk7WvJb19p7LV17JS7Ok1PEZ0ABUCAKgHiaXKRbj93HBVpFLHrAJKTJ+Yel2/p6U0djnBb3wgIRnwkFQIEoAMpDQUBIf+l+4es5vt7K4Qt/ZhGfEQVAgSgAyreMZwdLjwy+Z6xKSMhfPWdbuqX/AkvXCHoX8ZlRABSIAqCZtIuhPjvd4tSeBQ9Y/KBMSB3R83utsa+1NjRpT2/XaPMuDC7ic6QAKBAFQDvofeXnet7k+bLnSs8jFj94E9JPdM7+wdKXvc5lndOLG6oW8dlSABSIAqC95lraoESrmOlOgeYTsI8BKSV3W3pury/7gz3bex5nyCHi86YAKBAFwOjR4wMNthp0NfhqEGaiIakrmqB3jaUldccsjTm6jT8KC+6UKuI8oAAoEAUAZEnPMy2dD+/wnOC50NKCKdFfIKQZ0bmic+ZLls6hV1g6p3RuoSwR5wcFQIEoADAbrWKoxVP0KOF9llZQu8xzr8V/6ZC8ubfz2Z9s6VzQOaHn9DpH0BwR5w4FQIEoADCMpTzrWnqkoBnaeg9bjxU030C3fbXOevSXFuk9esVUj4R0u17LVmstCo0RmkuiR0fctm+HiHOLAqBAFACok27/PsXSOgb7et7l+ZilX5A/9lxh6Z3u6C++tuevnb5Wn3/d0qTQd3U+k+07nxG36kdHxDlIAVAgCgCUQK8xrmnpdrJWctvf0hfURy3NR/iOpS+vX3v+bKP9+EFtv77TFz/u9I366NhOn+3nebHnOZ0+beuWthgcBQDGUQCgqRbzPN7Sr1d92b3Qs7ulRxEHWbp9rdUT9Vji05b2eNf8hdMsPaK4yNLt7msm5WZLt8IXzv02/bl8/xT//c1T/LuXdP6m/vZ3Osfy+c6x6RiP6BzzQZ027N5p03M6bVRb51TScxh1FAAYRwEAAL3RCoSaEHuU53xLhd79ndxiaVVOFXPPs7JXK6QAwDgKAACYme42vdFzg/U+xt1o6W7OYgHHOxsKAIyjAACA6WmS5NU2+Fh3deffKAkFAMZRAADA1DQX4yEbfrzTaoiHZT72mVAAYBwFAAA8mp7zVz3ufTBrC6ZHAYBxFAAAMJFWOKxr7DsgYzumQwGAcRQAALDAhlbv5lgPejbO1pqpUQBgXFQBwPvMAEp0rtU//v0wW2sebc4Mx0UBMGKiCoBlczQOAPqghZdyjYE7ZWrTZHP7OEYKgJaLKgDWzNE4AOiDVonMNQaenqlNk63dxzFSALRcVAGwQY7GAUCPlvbcZ/nGQM0zmJulZRNtOODxUgC0UFQB8OIcjQOAHu1q+cfBl2Zp2US7DHG8FAAtE1UAjGVoGwD06nDLPw4ekaVlE71niOOlAGiZqALgjByNA4AeaWfG3OPgl7K0bKIzhzheCoCWiSoAbvUsmqF9ANCL/7b84+CpWVq2gMbc2yo6dgqAFogqAJRtM7QPAHrxScs/Bn4lS8sW2K7CY6cAaIHIAuAzGdoHAL14l+UfA4/N0rIFPlvhsVMAtEBkAaBbUSXulQ1g9Oxt+cfAnPsCLO65vaZ2UAA0VGQBoOxbfxMBYFareR6xvOPfOllalrymxnZQADRUdAHwR2MyIIAy/MLyjX2XZWqTaIy9sqZ2UAA0WHQBoLyq9lYCwOzeYvnGvbdnapPsUWM7KAAarIQC4GrPknU3FABmoXHoOqt/zLvRs0ymNi1l6U5r9DhPAVCgEgoA5b11NxQAerC31T/evTZba8yOrLEdFAANV0oB8KDnaTW3FQBms4jVuyjQtzyPydSW9SxtOhQ9vlMAFKqUAkC5yHgtEEA83Ta/xKof4y73LJupDXrt7+Ia2kAB0CIlFQBK7oUxAGAqj/f8xKob2y70rJLx+D9W4bFTALRUaQWA3sPdrdYWA0Bv9Cv6eBt+XPuiZ4mMx717BcdMATACSisAlLs9G9TZaADowxaWfsH3O5b93LNN5mPd0HPPAMdKATCCSiwAlJss7ypZADATTQ7UZjraNOjPNv3YpVf8tM/JCzr/m5ye6Ll5hmOjAMAEpRYAylWeletrOgAMRF/s63p2sDSGKi+09AWc+0u/6wmW1lSJHrcpABqk5AJAudSzUm2tB4Dm04RFLS0cPV5TADRM6QWA8nvP6nV1AAA0mN4s+LXFj9MUAA3UhAJAmW/p9hoAIFnbyr7tTwFQuKYUAMoNno3r6QYAaJRNLE04jB6XKQAarEkFgPKA599q6QkAaAa953+fxY/HFAAN17QCQNFiQUdbvvW0AaAEesPgMEtjYPQ4TAHQAk0sALo5w9LsVwBoO70S/V2LH3cpAFqkyQWAcotnx8p7BQDK8Xxr1vN+CoCGaHoBoOh22HGW1u0GgLaY4xnz/NPix1kKgBZqQwHQza88z6q2ewAghPZD+YXFj6sUAC0WVQBcV9O/+5DnSM+SVXYSAGSylOcoz8PWrLGXAqCBogqAeZ4/1fjvX+HZsrpuAoDabe250uobF6+xNPZSAGBcVAEgq3p+V/PfOd3SalkAUCotdX6S1ft6nwqLNTp/jwIA4yILAFERcHnNf+tvnv+ydGsNAEqhMendVv+iPtooaJWF/i4FAMZFFwCynOfsDH9zvmdPYwEhALE0Br3ac63VP+5p7YC5k/4+BQDGlVAAyKKeT2X627/rtDtq324Ao2t7zy8tz1j3Bc9iUxwDBQDGlVIAdL3V6pv9OjkXWVpgAwDqpi/+iy3P2KYx9JAZjoUCAONKKwBkK8/NGY/lAs8uxh0BANXbwnOu5RvPbvVsN8sxUQBgXIkFgGi26s8yH5MWEnqVpccRADAojSF7WBpTco5hP7X0RsFsKAAwrtQCQPTsSrv+5V4G82rPgZ5lejxOABCNGa+3NIbkHLM3x91uAAAgAElEQVT+YWkBtKme90+FAgDjSi4Aurb1/DngGO/2HO9Zr8/jBTBa1rH0Y+UOyz9OXW9pAaF+UABgXBMKAFnR87WgY1V1/S1LEwaZJwBANBboWfu3LW6znq96Vhjg2CkAMK4pBUDXiyzmbkA3V1nanWutIdoAoLm0oM7Bnt9a3Dh0k+flQ7SBAgDjmlYAyPKWbs3XuWzmbNFdgXM6/TdnyPYAKJsW7tFrfKdY2nAsatzRmKclg1ccsj0UABjXxAKga2vPr4OOf+Hc4PmQZ6OK2gWgDLqmj7F0jUePM3qjYIuK2kUBgHFNLgBEv74P8Nwe1I7J+b2lRwRPrrCNAPLR4z3d4s+1Wt9s+WvneKq800gBgHFNLwC6nuD5nKVb89EXrKJbdRd6DrW0/SaAcs2ztAqprtnIR4sLR6v56VHn42toLwUAxrWlAOh6qqXndNEX7+Ro/4Exz9NrazmAfqxr6Ze1VgIt5Uu/G80v2qC+poe0iQKgQG0rALq2sXzrbvcbzR7Woh2bG6sOArnoWtM1935LBXn0ODBVtD/JlnV1wEIi2kYBUKC2FgBdmrn78xrbMWy0cIjuWGgew8L7dQMYnmbLa4zTrfSc+4v0m8st7w6lEW2kAChQ2wsA0UX1EitnUs900fwF3Y483NIvFV4vBPqjpXA1U17XkNbFL2VO0HS51GI2IotoKwVAgUahAOjSRfZiz096PMbo3OM53fMWz7/U0B9A0+ma1rWha0TXyr0Wf932kh9bWtQsamXRiDZTABRolAqAhW1msUt4DhLdwtTjgjdbej+Z+QMYNTrnde7rGtC1UPJt/cnRWPNNz6aV90r/ItpPAVCgUS0AuvTWwKc9f7P4AaLfaLOi73reYWni0NIV9w0QTee0zu13WjrXdc5HX3f9RnfyPuF5SsV9M4yIfqAAKNCoFwBdy1maiKeFfKIHjEGj552a3aylQvV60yaWljAFmkKv5u3lOc7SfJi/W/x1NWj+6DnMhl+2tw4R/UEBUCAKgIn0hal5Ano8ELnmd1XRL6ZzPUd5drf0K4SiANF0DupcfJWlbXR1jjbx1/3kPGjpNv/OVvZ1FtE3FAAFogCY3sqWVvKL3PWrjuiW5Pmej3v282zsWbKiPgMm07mlc2x/S+ecftk3ZbJer9GeJJqIWMeqfXWI6CMKgAJRAPRGt9N1W7KUPQfqiLYY1Uxq/SLbq9PmparoPIwEvYKnW/h6rU23vvUoSo+kSn8Vb9DcZWl9gao26Mkpor8oAApEAdAffSHuaWmpzia9QTBotB75FZYeiWhXNM2T2NazxrAdicbSZ69zQOeCzgmdGzpHdK5En691R9f82Z49rNl3zSL6jgKgQBQAg1vb8x+en1l5a4nnyH2Wtij9hqUvgjdaerdZ+x1w56C5NPNen6E+S32m+mxPtfRZ6zOPPu9yR9e2luh9m2fNIfq1JBH9SAFQIAqAamhg0Mx7LTI0CncGesktloqjr3s+YukZqSZ96ZbpPM8Sg3Q0hqI+X8fSZ6DP4hBLn83JlvbO+IvFnzclRI8tzvO8ydp5tyuiTykACkQBUD2t6f96SzObR+G26DDRF45+Weod7xM9H7K0LavmIOxkafKYBmCKhempb9RH6ivNPlffqQ/Vl+pT9a36mC/3maNr9fue11naXrzNIvqXAqBAFAD1WsnS7OczPfdb/CDX5Oj28w2e31i60/IdzwmeYz3vtnQH5rWWzml9EW5jaSLjkzyreR474ycVQ8e0uufJlo51G0vHrjaoLWqT2qY2nmCpzWq7+kB9MYq35Ks+pzTxdV8r8339ukT0NQVAgSgA8tFz8RdauuVa6nakoxK9hnanpccU11hatOWShXLONDnL0hK0p3T+7+n+u4X/rWs6uaXzN9v2ClzTouJJd0d2sGZP5BtGRL9TABSIAiCObjOq//W6lLYFjh4YCWljVHDpV77eWljLIBGfAwVAgSgAyqBNTp7nGbM047it704TUnd07VxoaUtgbbzDplmPFvG5UAAUiAKgTMtamqmtBVX060WLjkQPrISUGD3H1+qCWsBKixCtYJhNxOdEAVAgCoBmmGNpkpgmhen5860WP/ASEhG9zaCiWMWximTeEOlfxOdGAVAgCoDmeprnNZZmh2slNtYfIG2Lzmnt0PklS/tWrGeoQsRnSQFQIAqA9ug+NtBdAq1Rrtui2p0sehAnpJdM3s56e+N2fl0iPl8KgAJRALTb4p71rT17rJN2RIvuLPxlr8J1GUMuEZ85BUCBKABGj959frZnb0sTp06z9B48bx6QqqNz6mpLCxh1d5l8lo3u+/eliDgXKAAKRAGArqm2c9VCNqxgSGbLQ5YWO5q8nbQ2FkJ5Is4RCoACUQBgNioMNOHwJZY29NGjBA30vzWKg1HKfZ3PXHeMdA7o1v2ulibm6S0VNEfE+UMBUCAKAAxLmx9pEaM9Pe/yfMHzQ898YzOkJuXhzmf2A8/nPe/sfKZaTKftm+OMmojziwKgQBQAqJtmcmsiomZ169awHi/oF6TWM9CkRN061i3k6C/ANkd7EGjSnfYp0KMd3abXL3hd/5qAp0c//IofHRHnIAVAgSgAUIJFLP3K3MCzo6VfngdZ2gnvo5a+tM6wtMTrHywthDSKkxb1K10L4Wjdh59aehRzUqeP3t3psz07ffgM45c7pkYBgHEUAGiy5T3zPBt7trMFW+lq0ZjXW7rbcISlX7xaG+EES3cevuf5kU3cte8qW7Bzn3KtpV/OC+cBW3AOPzDF///aSf/GlZP+xo86f/uUzrEc3zm2IzrH+vrOsasNO3me32mb2rjc0L0FJBQAGEcBAAC90cZCW1naTvhiS3eiHrE0pun//rnnw56trexNiCgAMI4CAABmpv0GDrH0+KXXMU7/7aFW5l4FFAAYRwEAANPTfIr5NvhYd62lxzkloQDAOAoAAJjaAVbNq6x6TDCW99BnRAGAcRQAAPBoes5f9bj30awtmB4FAMZRAADARPtYfWPfgfmaMS0KAIyjAACABfTaZZ3baGvRq2dla83UKAAwLqoAYNUxACXSUsh1j3/n5WrMFOZMc0wUACMoqgBYNkfjAKAPmvGfawx8UaY2TTa3j2OkAGi5qAJgzRyNA4A+aGnlXGPgmZnaNNnafRwjBUDLRRUAG+RoHAD0aGlLWx7nGgP/bunXeG4bDni8FAAtFFUAvDhH4wCgR7ta/nHwZVlaNtEuQxwvBUDLRBUAYxnaBgC9Otzyj4NHZGnZRO8Z4ngpAFomqgA4I0fjAKBHn7f84+AJORo2yZkDHisFQAtFFQDaOavk3bIAjJavWf5x8NQsLVtAY+5tFR07BUALRBUAyrYZ2gcAvTjR8o+BX8nSsgW2q/DYKQBaILIA+EyG9gFAL46x/GPgR7K0bIHPVnjsFAAtEFkA6FbUYvU3EQBmtZ/lHwNfm6VlyeKe22tqBwVAQ0UWAMq+9TcRAGa1mqVte3OOf/NyNKzjNTW1gQKgwaILgD8akwEBlOEXlm/suzRTm0Rj7JU1tYMCoMGiCwDlVbW3EgBmd4jlG/felqlNskeN7aAAaLASCoCrPUvW3VAAmIXGoeus/jHvBktLD+ewlKU7rdHjPAVAgUooAJT31t1QAOjB3lb/eLdfttaYHVljOygAGq6UAuBBz9NqbisAzGYRz1etvrHum52/kcN6ljYdih7fKQAKVUoBoFxkvBYIIJ5um9cxIfCXlu/Wv177u7iGNlAAtEhJBYBybL3NBYCerOQ5z6ob237iWTnj8X+swmOnAGip0goAvYe7W60tBoDe6I7kp2349QGOt/SLPJfdhzxeCoARUVoBoNzt2aDORgNAH57nOd/6H8su8GyW+Vg39NwzwLFSAIygEgsA5SbPOjW2GwD6tbXno575Nv3Yda3nOM82Acf3RM/NMxwbBQAmKLUAUK6yvM/MAKBXa1oqCF7eif7vtQKP5wmW1lSJHrcpABqk5AJA0XKZK9XWegBovsd7LrP48ZoCoGFKLwCU33tWr6sDAKDBVvH82uLHaQqABmpCAaDMt/R8CwCQrG1l3/anAChcUwoARetnb1xPNwBAo2ziudHix2UKgAZrUgGgPOD5t1p6AgCaQe/532fx4zEFQMM1rQBQtCjH0Z7H1NAfAFAq7SFwmA2/MBEFAMY1sQDo5gxLs18BoO30SvR3LX7cpQBokSYXAMotnh0r7xUAKMfzrVnP+ykAGqLpBYCi22FaeSvnWtsAULc5njHPPy1+nKUAaKE2FADd/MrzrGq7BwBCaD+UOrYkpgDA/4kqAK6r6d99yHOkZ8kqOwkAMlnKc5TnYWvW2EsB0EBRBcA8z59q/Pev8GxZXTcBQO229lxp9Y2L11gaeykAMC6qABBtpnFVzX/ndEurZQFAqbTU+UlW7+t9KizW6Pw9CgCMiywAZDXP5TX/rb95/svSrTUAKIXGpHdb/Yv6aH7UKgv9XQoAjIsuAGQ5z9kZ/uZ8z57GAkIAYmkMerXnWqt/3DvLM3fS36cAwLgSCgDR6y6fzvS3f9dp9yID9hkADGp7zy8tz1j3Bc9iUxwDBQDGlVIAdL3N6pv9OjkXWVpgAwDqpi/+iy3P2KYx9NAZjoUCAONKKwBkK8/NGY/lAs8uxh0BANXbwnOu5RvPbvNsN8sxUQBgXIkFgOgNgVzVcjeaKPMqz6I99RwATE1jyB6WxpScY5juanZn+s+EAgDjSi0AREv7ftDyL4N5tedAzzI9HicAiMaM11saQ3KOWRojtXjQVM/7p0IBgHElFwBd23r+HHCMd3uO96zX5/ECGC3rWNqi/A7LP07pcekL+zxeCgCMa0IBII/znBJ0rP/wfMvShEHmCQAQjQV61v5ti9us5+ueFQc4dgoAjGtKAdD1Ys8NQcesaOXCMc9aQ7QBQHNpQZ2DPb+1uHFIv/p3G6INFAAY17QCQB5r6dZ8nctmzhbdFTin039zhmwPgLJp4R69xqe7kNpwLGrc+d/OMTxuyPZQAGBcEwuALt2Sj6zCu9EdiQ95NqqoXQDKoGv6GIu969jNry1tFlQFCgCMa3IBIPr1rdtxdwe1Y3J+b+kRwZMrbCOAfPR4T2NKrtX6Zov2Mhmz9FZUVSgAMK7pBUDXqp4vWdxknMnR44kLLa3GNa+G9gKozjzPWy1ds5GPFheOHjNqKd8n1NBeCgCMa0sB0PV0i3tbYKZo/4GxzvEBiLeupV/6Wgm0lC/9bjS/6Jn1NT2kTRQABWpbAdCVc8ONfqN5C0d6NjdWHQRy0bWma+79lgry6HFgqlxiefYniWgbBUCB2loAiN7T1Rr/l2Zq0yDRwiG6Y3GATdyvG8Dw9I68xji9NZRzf5F+8xvLu0NpRBspAArU5gKgSxfVKyzNoo2+0GeKnvnpduThln6p8Hoh0B8thavNd3QN/dTSNRV9Xc+Uyz0vt/wLjEW0lQKgQKNQAHTpXd6XWdowI/rC7yX3eE73vMXzLzX0B9B0+uLUtaFrRNfKvRZ/3fYSTTZ8qaUxKUJEmykACjRKBcDCtvacaeVN/pkpuoWpxwVvtvR+MvMHMGp0zuvc1zWga6Hk2/qTo7FGRcqWlfdK/yLaTwFQoFEtALqe4fm8536LHyD6jdY++K7nHZYGlaUr7hsgms5pndvvtHSul7LeRz+5z9IchPUr7pthRPQDBUCBRr0A6Fre0itB8y1+wBg0et6p2c0nddqyicXdYgQGoVfz9vIcZ2k+zN8t/roaNDdaevV32GV76xDRHxQABaIAmEi3GDUpR48HSp9A1Ev0i+lcS3uF7+55ilEUIJ7OQZ2Lr7K0ja7O0Sb+up+chy3d5tfz/ZIf0UX0DQVAgSgApre65z89V1r8wFJlNLnwfM/HPft5NvYsWVGfAZPp3NI5tr+lc06/7JsyWa/XXOF5u6UVSZsgoo8oAApEAdAb3U7Xczx9eUYPNnXlJku/XvSLbK9Om5eqovMwEvQKnm7ha+2Nwyw9itIjqTbcSZsqd3faqEXHcr/GN6yI/qIAKBAFQH+W9ezj+bE16w2CQaNbmvp1821Lu6JpwaJtPWsM2Y9oLn32Ogd0Luic0Lmhc0TnSvT5Wnd0zf/IUoHc5Em3EX1HAVAgCoDBPcnS7ORSlxyuO5rd/CvPNyx9EbzR8yJL+x1w56C59MWmz1CfpT5TfbanWvqs9ZlHn3cR0Wqiehy47hD9WpKIPqQAKBAFQDU0MOgZ4MU2GncGesktnp95vu75iKXFWjTpSyu1zfMsMUhHYyjq83UsfQb6LA6x9NmcbOnc/YvFnzclRNewFgx7W6e/2iaiTykACkQBUL01LX3ZaaJdKdsTlxp94eiXpd7xPtHzIUvbsuoW606WJo/pljPFwvTUN+oj9dXOlvpOfai+VJ+qb9XHfLnPHM1V0KO9N1v7H3FF9C8FQIEoAOqlWcFvsPSa00MWP8g1Obr9fIOljVN+4vmO5wTPsZ53W1r74LWWzml9EW5jaSKjHtWs5nnsjJ9UDB2T3jZ5sqVj3cbSsasNaovapLapjSdYarParj5QX4zqLfmq8qClrXcP9Dxhxk+qXSL6mgKgQBQA+WgC4a6eT3r+aPGD3yhHr6HdaekxxTWdz+OShXLONDnL0hK0p3T+7+n+u4X/rWs6uaXzN9v2ClzTcpXnE5beVljGRlNEv1MAFIgCII7mDWgmtb5M7rL4gZGQNkZ3SVSU6dVETW5EzOdAAVAgCoAyaNUw3QIes/SrkbkDhAwerT+g9Sz0jj7zRx4t4jOhACgQBUCZlrM0eI1Z+vXygMUPqoSUGK0/oKJZ+wdoPFvJMJuIz4kCoEAUAM2gVdZ0h0CTwvTI4A6LH3gJiYjmUKgoHrNUJLPmRP8iPjcKgAJRADSTHhls6DnI0nv28y1+YCakjvzJ89+WFiXawNjMqgoRnyMFQIEoANpDWxprgRfdJeiuw85cAtKkdPejGLM0S39lQx0iPlsKgAJRALSb5hJQFJASM/nLnmf3+UR83hQABaIAGD0qCrb0vM7zUc/3Pddb/BcCaWeu85xtaTEjvfaqgnSuIVLEeUABUCAKAHTpdan1LZ0TY5YmG7Z5O1dSbfSLXpPzNBufL/qyRZwfFAAFogDAbJa0NOFwd0uLqRxv6a7B1ZaWUo3+4iF5os9aq+jp1/xnLG1+pfFD54bOETRHxPlDAVAgCgAMawVLryjqXOoWCPolqOVvmW/QrGipYr1Tr7s/WkhHv+T1qp1WrVzU0BYR5xYFQIEoAFCnxS1txKMCQRO99IUyZqlI0ASwCywVCjxmqDf6YtfjHBVmmgyqL3dNDNXOgfqC16OfZaf+CNFCEecgBUCBKABQAi10pC1YN/W8xLOvpS1tj/R8ytJaB/ryutTSmgd3W/yXalTu7vSB+uL7nb5RH73Pc6hnH0ubTj2306eL9f4xYERQAGAcBQCaao6l98Sf6tnM0i9Znc+vtnSnQQXEOyz92v2YpbsOurWtLXVVTFxs6Xa3tta9ZlJutfSruZuZNmu6a9J/e+sU/95vOn/rZ52//Z3OsRzfObajO8f61s6xqw2v6LRps04bV+60GRgWBQDGUQAAQG+0CqHuUh3lOd9zs+f+TrTdsx5pqZh7npW9YiEFAMZRAADAzPQYRUsR32C9j3E3Wlqqu8RHMBQAGEcBAADT28HzRxt8rNPrsttnP+qZUQBgHAUAAExN8zEesuHHO73lcljmY58JBQDGUQAAwKN9wKof9z6YtQXTowDAOAoAAJhob6tv7DsgYzumQwGAcRQAALDARlbvEtf6tzfO1pqpUQBg3G4WczLwPjOAEv3A6h//fpitNY82Z4bjqjO75Wgc+qPlWSNOBvb+BlCaHS3fGLhTpjZNtlIfx1hldsnROPQn5wm/cJ6co3EA0IfTLN8YeHqmNk32lD6OscrskKNx6M9WFnMyPDdH4wCgR0tbWtEv1xiov7VMlpZNtOmAxztstsjROPRHu4BFnAz75WgcAPRIGyjlHgdfmqVlE+0/xPEOk6flaBz6s4rFnAyfytE4AOjR4ZZ/HDwiS8sm+swQxztMHp+jceiPZoRG7MX+8xyNA4Aefd7yj4NfytKyiX4xxPEOmoc9i+ZoHPp3reU/IbS85ooZ2gYAvfia5R8HT83SsgUeZ9Usbdxv/pSjcRjMeZb/hFBek6FtANCLEy3/GPiVLC1b4IAKj72fnJujcRjM5yzmpPh+jsYBQA+Osfxj4LFZWrbAuRUeez/5TI7GYTBvspiTQs+F1sjQPgCYjd5Myj0G5twXYC2Lme+lvCFD+zCgqLUAlNwVMABMZXXPI5Z3/FsnS8uSj9XYjtmyeYb2YUBzLWZiiHKf8XoIgDJcYvnGvl9lapNojL2vpnbMFt3pXbb+JmIYF1hcdfj+DO0DgNkcavnGvbdnapMcVWM7ZguvfDeAFqSIOkH+7lmv/iYCwIyW9Fxn9Y95N1q+ZYC178oDGdo0XT5UfxMxrC0t7gRReCMAQAn2sfrHu9fmaozFzfzvZuf6m4hhLe6512JPlD1qbyUAzGwRz8lW3zj3zc7fyOHVNbajl2jewVK1txKVOMNiT5Y7PfPqbiQAzEI7A15q1Y9xl1u+CXF6w+CvNbShn0RteYwB/LvFnizKxZbuRgBAJM2cP9+qG9sutLT5Wg5LWMya/5Pzr3U3FNVR1Xu3xZ80x9XdUADogX6MfNaGH9O+aOlLOZdPVHDMw0Z3H7j93zBRywJPzpvrbigA9GhTz0+s/3FMr8Btm/lYDxzgOOvIp+tuKKr3PIs/cRQtWfmymtsKAL3SxL3tPJ/0/NmmH7v0ip/Wvn+B5Zvs1/UKzz9nOLaceW7NbUVNrrD4k0fRu6tb1dxWAOiXvtjX9ezgeWUnL/Q80fJ/6XdtY2lNlehxW/ldvU1FnXT7PfoE6kZzErast7kA0Ghbe+6x+PG6mzfW21zUSath3WDxJ1E3epd0x1pbDADNpLHxfosfp7u5yZj813hvsfgTaeE86Nmt1hYDQLPsYrHL/E6Vg2ptMbLQXQBNZok+mRaOJgYeVmejAaAhDrC4XVynC7/+WyTnzlj9RK8qslgQgFE0x8p4z3+qvKnGdiMzLQw00+sukTnPs1JtLQeA8mh1wkHWI8iRay3dOUaL6F386BNruqg44TVBAKNgaytrcvbk7FJf0xHpOxZ/ck0XzQsY8yxaV+MBIJDGtjFLY130eDtdTq2r8Yi3ludvFn+SzZTzPGvW1H4AiKCxt9Rb/t1o/YHV6+oAlOFtFn+izRYtGnSw5zE19QEA5KDVBDXLv4TN2WYL+7aMAM08LWF7yV7yQ0tLcgJA0zzZ0h3N6HG0l1xkPH4dGVr7Wls8Rp90vUSrB+quxWK19AQAVEuvNmudk5JW9Zspd3jWrqUnUCzN9HzE4k++XnOVZ+daegIAqqFdBn9r8eNlr9F3wEtr6QkU7ziLPwH7zTmep9bRGQAwID2qPMXix8d+c0wdnYFm0K2qiy3+JOw3WjP7Q57HVd8lANAzLWL2YStn+95+8lPj0erIW9vSus/RJ+Mg0czad3vmVt4rADA9jTmHW1lb9/YTLUS0RuW9gkba0Jrxmsp0udVziLF5BYB6aYzR3iq3Wfy4N2ju8mxQdceg2ba1Zt7GmlwIjHkeW23XABhxy1pam6S0nVX7jXYd3KHivkFL/Ks1682A6aLbcprguEq13QNgxOgZ/5ilV+Wix7Vho7F9r0p7B63z/yz+RK0qWvZYhcCTKu0hAG2nRXw+ZuUvnd5P3l5pD6G1tIhF9MlaZf5p6fVBrX2wSIX9BKBdtrD0Ol/JG/YMksOr7CS0339Y/ElbR37neZ3x5gCARGPBgZbGhujxqerotv+h1XUVRokuCv16jj6J64jWElClv31lvQWgSTbxHO+51+LHo7q+/NngB0N5rbW3COjm95Yee7CwENBuy1vane+XFj/u1BmN2ftV1GcYcXo7QL+Yo0/quqM2fsPzEkurJAJoPl3LuqZ1x28UxjFtQvTKSnoO6NjUc4vFn9y5ot0ST7L0iICJg0Dz6Ba/3gLS+iDR40muaIGiLaroPGCyeZ7fWPxJnjvXWVrvezPPY4btRAC10LW5uecjlq7Z6HEjdy73rDV0LwIz0IpYp1n8yR4VVdi6M6BXCtlIA4i1qKVfvPqlr/Xto8eHqJzlWW7IvgR6ootOu/G1YdXAYaJbi1/07GZcfEAuutZeYenaa/Ka/FVEY/AHLI3JQFb6FXy7xV8EJUQLh1xg6W2CTYbpVACPsq6l2funW/P3LKkqKn5eNEynAsNa09IXX/TFUFqu8nzC81JLrx4B6J029HqZ55Oeqy3+ei4t53lWH7RzgSrNsbRhRtvXCxg0ujtwiedoS28VLDFQLwPtpTFEd850B03LdmvXuujrtsTolr/mOzD/CMXRNpN/tviLpPRog5FzLa3PrW2Ylx6ks4EG0zmvc1/XgK6FNm26U1f0ZsPzB+lsIBfd7v6sMUGwn+jXzk8t3SHQMz1WJETbaFvdF1uasHah8Qu/n2gs/bSxfwkaZEtLz8GjL56m5iZLE550S1SvOS3ZX/cDYXQ7f31Lk/b0yqw22eEHwWD5k2e7/rofKIPWDPi4MTegimjms345aY/yfT0bGs8BEU/noM5FnZM6Ny8yZulXEY2Zeta/TO8fBVAm/YK9zOIvqrblQUuTCz/neYPnecZ6BKiPzi2thvlGz+c9l1o6B6Ovg7bl0k4/A62hZTr38vzF4i+wtkePDzSTWr8gdBtWBdiys39EwDhtnqNb+NpQZszSJjq6jc+dvHpzh+dgY1EftNiKlt6Pf9jiL7hRigbvaywtGarCQHcM9NbGPGN/g1Gkz3yepXNAv+h1Tujc0DnCF33ePNzp/xVm+sCANtnA8yOLv/hIemarTZ7+x9JGKm+ytMrjvxjPIJtMd330Geqz1Geqz1afsT5rntOXEb0Cuf50H/Q6sZsAAAU1SURBVCDQdjt7fmnxFyKZPtrz4OeWbgUf6znEs4elRwvrGAsbRVCfq+/1GeizONTSZ6PPSJ/VKG2B28Ro7s4LH/WpAiNoEc/unj9Y/IVJBovmdvzKc6bnBM8xlr6U/t2zo6WZ4qtZer6MqalvtLyr+monS3Nm3mqpL0/0fNdSHzOPprn5vaWNjBYxABPo/eH9Pddb/IVK6ss9llY105fZjyzdlv6CpR0m3+F5vWdvS5PQtHSy3m54pqUNYbSgzFJWHh2Tjk3HqGPVLG4du9qgtmjOxTsttVFtVZvVdvWB+kJ9Ev25kPpyraVXJZngB8xCtzcP8sy3+AuXlBs9x77T0uzpazq53NLtVa2ZcM4U0US3U6bJWdP8by7s/JuXL/R37uj8bZ6lk5mihXxU/PGYDOiTZiprApPei42+kAkhpNdooqUe4eiuJoAh6HmZCgGtlx99YRNCyHTR1ugaq3jGD9Rga89pxrvKhJAyou2+v21p/xMAGWi29JjnNosfAAgho5e7LC3go9cxAQTQ5Bo9a2OvAUJIjmis0RLbSxuAYugW3H97HrD4QYIQ0p5oTPmqpYWXABRseUsVuibkRA8chJDmRq9/aoMerfEAoGGe5jnac4vFDyaEkPKjNR6Ot7QiI4AWWMzzUksLvtxv8YMMIaSc3Of5umdXS2MFgJbSsq16V/ckSxd+9OBDCMkfreJ4uqVJxHMNwMh5rKUBQAPBQxY/KBFC6ove2dfcIJ7rA5hAA8Lenm96/mbxgxUhZPjc6znVUqH/OAOAWSxpaTc3LfRxo8UPYoSQ3nOrpUd82o1xGQOAAWlTok0977e0MdEjFj/AEUIWREuD/8LzPs9zLV2zAFA5PSrQLwu9KvRnix/8CBnF6Fe+3urRmh+rGQBkpl2/NvIc5vmB8YohIXVF19a5nrdbekefHfcAFEX7f29iqSDQmwV3W/zASUgTo1d0NWNfC3lpPo7m5QBAYyzu2dzzTs/ZnnssfmAlpMSoWP6e5z89mxkL8gBomUU961t6JUlzCH5naQJT9OBLSO5cY2mmvt7J110zXRsAMFJW9OzkOcLSXYLbLX5wJqTK3Gbp1/2YZ0fPCgYAmJJmNWu54jFLcwlusvhBnJBecqelZ/daQ0N3unTHiwl7ADCEVT0vsjSfQBuX/MZYvpjE5UHPrz1f87zDs7NnFQMAZKG3Dta1BXcL9F605hVozfPoLwjSnugOlO5EaUa+ftXrmT2z8gGgQHr7QIWBXp/SJCtNODzH0sQrVjIkU0W37i+xVESOWVrsSl/0LKULAC2hHRCf7dnT0q3bz1kqDq62dFs3+ouI1JMHO5/x9z2ftfS63b96nuVZ3gAAI01rqK/p2dLSrd53W7p7oNu/v/L8xeK/yMjU0WdzWeez+kzns9ur81muYayPDwAY0hKWHi9sYekX5CGeD3pO8JxpaVOW6z0PWPyXYtPzQKcv1adndPr4A50+36PzGazT+UwAACjGXM9TLK2GqImK+kWqOQljll4T00Iw+sWq18Y0eVGbK+lZdJvmKfyz0yZ9kf/Wc77nNM+JnT4Y6/TJXp0+2rzTZ3P77m0AAFpgKc/jLN1t2MDSlsya1LibpQlq+1raCe4gS3sv/D9Ls9SVT1h6dDE5X7Y0yW2qfHma/80nFvp3D+vkoM7f3rdzLLt1jk3H+IzOMWuBJ2bKAwAAAAAAAAAAAAAAAAAAAAAAAAAAAAAAAAAAAAAAAAAAAAAAAAAAAAAAAAAAAAAAAAAAAAAAAAAAAAAAAAAAoF7/Hz6elcQP6AZLAAAAAElFTkSuQmCC;" parent="1" vertex="1">
          <mxGeometry x="50" y="217.5" width="80" height="80" as="geometry" />
        </mxCell>
        <mxCell id="QhQH7k_Fv8NDYgwHrIGU-15" value="" style="shape=image;verticalLabelPosition=bottom;labelBackgroundColor=default;verticalAlign=top;aspect=fixed;imageAspect=0;image=data:image/png,iVBORw0KGgoAAAANSUhEUgAAAT8AAACeCAMAAABzT/1mAAABFFBMVEX///+goaI+Pj5dtNc+msQAAAC40kJZoRvNzc309PQ7OzsrKytcXV0tlMGio6TCwsJuuNZwcHD1+Pm6urrf39+Ojo57e3vo6Oitra3Q0NDD2+jw8PBUVFTZ2dnHx8czMzOVlZWamppLS0u10DdHnsVlZWWGhoZOnAAmJiZMTEw+ODVPnL4ODg55eXmxsbEWFhbx9t+tzD2QvDGbwjZkph94sCgeHh6dxYE+eZSWo6mGqLc+j7T1+enr8tHk7r3f66/X5p/l78LL3oa81Vy71E3E2m7L3n6yzirA12PT5cWw0JpurTmPvmu92Kl7slDn8d90rcUtXXI+T1c+boaBqrxSka2y0+KCvtbd7POcx9293OlqutpaUnDwAAAJFUlEQVR4nO2da3vSyhaAA3R1JwEJ5I6BhKAgKqU9VeulF6322K3u7W2f08s+//9/nLUmCQWaUtqRjY+s94tpMpnLO2vNjI+XKArDMAzDMAzDMAzDMAzDMAzDMAzDMAzDMAzDMAzDMAyzfPa2trb29w9evxG8fn24v4939pbdrZ+fvf2Dt++Oju4dH9+b5vje+tG7d28Ot5bdx5+Uva2Dt+skan0WVODozSGH4hQH/16/Tt2ExKP3+8vu8s/D1vv1ud1dODx6y1FI7L0/vqm8TOGbZff9J2Br/Xb2hMF3HIJHt7ZHAt8vu/vLZv/20ScELrv/y2ZLzt+7Zfd/WXjZxeHxZSv/Ip5sbz8TbG9vP6EbOdF3fJjWYppLGseyUO3sav/oIgRR2rNnT5/+ls/TpyjzyYW+499Hvxmxg+UMY2mEFS273Ht9hMc/UneVuCmNQuK9498PRrUFvpbbyq+LutMdG/LB+2cPHjyYyx6BZbffHl68rvmFlfNXjrqtsZ+1Dx+ff3pwvUQq8umPjx/G1zu7Wqiunr+iHsVTq9behz+ff/4sNObx26fPn5//+WHqzBxYcWEl/RWLkV71cp7tffmC0Yj8IaCr5x8/fPmS95sNYW9V/WEIRhWJpT8I/ULCivoTCov1gnqLGuxwWIgLK+8PDepRubMxvMkJzlOH1Xgkb8X9pQ6jpuv4DTtvQRxhBl4rNKbcsb8Lh+Wy3uzW3dgykDAMG57n2URLNayhXy3El9Sxv2mN6BFFCpokLCFPG/ubjV6pztTG/tjf7WB/crA/OdifHOxPDvYnB/uTg/3Jwf7kYH9ysD852J8c7E8O9icH+5OD/cnB/uRgf3KwPznYnxzsTw72Jwf7k4P9yXGVP/37DH8v2V/GFf704u4L/Up/pa/sLyXf36Pvu2trL3Q931+tdKXA6qr9+4+73x7p+frW1naLj3L8vUR9pVItV9/L2sr5u/NiZCmz9+jbWsLu91TumL9XpZRXl/W9Kq2gv7W1v1CZPpJX/La7NgIN0qORv1e10ojaq2l7pdX0h5r++k5/3w8XvG8vxuyJRy++FfVHFUrO/3wtTfE1U5g9W1F/5Emwlsvu7n9rtWl3ozCsjT1bXX+zeXyVvWmZ7I/93QT2Jwf7k4P9ycH+5GB/crA/OdifHOxPjjn93Wd/+bA/OTh/5WB/cnD+ysH+5GB/crA/OdifHOxPjrMf7G/Z4/mnMe//UH8nyx7PP87Zj/R3uuzRLIG5BM7n73TVVj/BWen6NXAuf6uXvCkn968zOIe/07NlD2OJ3L1/Z6bCa/2ttD3i7HyWwtn+Tu+u5MI3DSpcu8LhDH+nf7O8EWd3z2sYh5ck5vurnf99xvKmMVHiaa10JyXX3+k5qlv1JW82pnn35OT8/PS0Vnt8//H/kBpaOz854ZhjGIZhGIZhGIZhGIb5cWjeL/ofGni+f4MP7ai+7w8N+1oXQdWYvOFAN7eg7TtO25q/A5fQ1NhxYiP/oV11nBt9R+jm1AE25i/dhQR3/KZmudPlGtCZvHGFP2wdBgAk3Jm/F2NYaYdyP1g1BCjjs0UK9GAHYOYniiaog+N5dgGgMnYzBH26XAOakzfy/cXQb5im11AUf6LGuYkBYk/TPMvOfVoIFK17u5rnZAPiHlTxYkgf1IljW23TVA7bttJqh57rK4rRc3vZlxnroqzSAhgqZui4vaGmWHXox74SWFguTMuN/LXarht7qT81bmtKMHTd7OuWvWxsfhf0AiahV3Bdhxrz295ww9awbVdkt91zHa9KNWm+62b/O0wDIGsRUbEDOBVe7Adt18mM+hAtQlyCCdCyoYhXUZIHDQd6+FMTLGy4WUYNGwDFUTfrUBC/NlEHps5DgLrSES8qOvSxnJ8NLPHniTJ9TfhD67ESbMJOBHqSUwa+L4J/QFVUsEmBT93Bao0eDDpiscjSNFTsMmyWoZ+kTA8eXoylB/SOhZUO+lQ2FbgB7cX5s2idirBRRQs0TwcHB0oLUUX4A9fzqtDVUIduTvhr42BbGKitAWimBbqmKTGGjZqFXeYvGJpUmYHV1r0+6kPzDr3uZu3j8osvagWoYBoCVDXNp6EXoW94mtGgWN9UzAjamtYmf0XSgbWJ1ytUmdZ22m0fu9vRaIpoUgomNpYsqA4MFrjzR5iHo1ms0E4y7i8SV1VVDfvQmPAnEs8LfWcHV+5QBLBih34P+pP+cHu0CkVMegeaOuW+jVGlqsNRTgVORFGJjWF+V5O3KqioCEZap7M50FpJC5ugBhhhqlpNt6cmyQzKuEl0MA3cRhjuQCOEsughKfYqEOUujT8GI00L0VkXOuakPwqSYlpi0l8RS2G+NDf6mT8NC1bq0/4wvvR64g/ELIVpdeWLoGhT5WL/6CWpRpNTBFoFu9TEzkCzkurQn52+n/hz02aGWLee7cShmJw2+aP1YZF/xleHul+t+h3qRiHpiyOOM52Rv8rE0SDdP9qwGSSKIkwpg/wNSYA57W9Ae3tP+KtvYJpT/F1Kpz4mQRp/IsyauAAKf6roSzTQGuKBORDxN3ZaaCQzj9P0ELucrr2GiD/yF6aPF4WXno0soCmGlkbLGGx6dHDK/LWhjAnQSjfgOvTshlWk85ZB641DS1II/SDJPffCX8dutXBrwqWs1Rf+uuglIuH0nephUp/j2KYWU20+FE3qjyPOJF7iz6IYwj1ECwYYmXgSwcb6sIHvW2l/sH3HDmxMHZz/HeyorY75w5T2bLu1sATeSNNAK0Mljf6hQifOfln4oxXErGdbIpGen13UblLBThmHhK9DXyRWBwaZP0Gd0ha374LISUzxKAh2xpaDXlKsJ05EaNgQ+zB5KJM/jcp2+jjJYmNu7tD+G6UbcUK2MfeyymL0t6kkB6ZsdVrUBhIa6dS0jAxPMQ3L0BqWp3jpJKuWZWTnPyoYtpL+UEGlYaDKwLBCxTMsnPt0XFpSW0tpWJbnYWU2baVYzla0EOtLc9BsGJYVihywLWqOHoa0YqkGNRIkTSSPVVz/qB9j7ytig8qqaOED0Qp1wsbG0zGNHRFXFTHP7YUeRX5pcCVzowXvBr8yVvdhsdlb4EmOYRiGYRiGWU3+D+3SJ2FxMfuSAAAAAElFTkSuQmCC;" parent="1" vertex="1">
          <mxGeometry x="764.24" y="430" width="161.52" height="80" as="geometry" />
        </mxCell>
        <mxCell id="QhQH7k_Fv8NDYgwHrIGU-16" value="Transformed Data" style="text;html=1;align=center;verticalAlign=middle;resizable=0;points=[];autosize=1;strokeColor=none;fillColor=none;" parent="1" vertex="1">
          <mxGeometry x="785" y="390" width="120" height="30" as="geometry" />
        </mxCell>
        <mxCell id="QhQH7k_Fv8NDYgwHrIGU-18" value="" style="shape=image;verticalLabelPosition=bottom;labelBackgroundColor=default;verticalAlign=top;aspect=fixed;imageAspect=0;image=data:image/webp,UklGRvrUAABXRUJQVlA4TO7UAAAvQQNJEI1AbNtIkgQV+l6p8w943+m7ACL6PwH8i5sdsM7aUCBHSxUqfM4h0S1SfCE0Wl1jJdtdgTem5jUzit0+AJVO0LXWA7nemUWxg3uzpmmGrhluk7lDoxnjAYoPUouZy1TrTtNqyOptI4Aaj5xpJkfe/wXsXbHVIAwrugC2u2pjxcFffMLeHcYXdv8oPvsTR05gJ5LkyErOhPPfjrOnPk82xbCiGZp7WjXPANeNbavK4HyRWwL91+T+/N3gcnMDy5Ft1UrhLl+E+Q+FuLvbwh2ewpObk/5PAPx8Ucz5l1pNQ3dDURCioegTDrOilcEwXShSVXXoqvGYz1gWST05bzRMzhhuocJpGGBg+4GszsVfqqVGFyrEPJV5AgBwt8xiXfaTLY9SVN5lSdNNJIRSp78yLJF9kOXA3gDABqnCsgPATQdwCISvJSwDAXr3xzh0RwcBgoVhFul2dz2VJ89cJXeRJckVgMgafVrIsTzJcgEfuWmV807qwDL2SU/kk0jzW8K8lzqnJjPdfsINNw3wVk0qzgLA2bJsGww+Vc9heebaYlqi2ADgBhqOvACREqkKPVlOy89xAzWAzfDZ5PmXKb5V0NQWQ2cZd+TWw4YTgLNRq9n+8ko+DOPQN9SshyxdXBldspvMmDqZ1Tj0Dqr4wU+p+VOrRgHd+cjilqIcbzX4n9WiuG0bR9p/7FxN+UfEBHDvkNRYsyLp7jQZQBoCYZ8DvE0HmZZhnQxWpvCejCqUuE7BgxHJrzSt19q25ZIk59t7xw5myOCIhEiGSirIgsws5maqWQ0Dzd3DPNVrGoaZqnt4prlquiC7IDuhujCxqjKzEioxMjIiISIyKDM4YseO2NvY//4jMmogd4ieg+ixfjFTr5Vhi+EAmHmYTLEleYzticklXwMptJhe4SHgL/DGE4QTrvz2xEwDacmSOZ6YpRIzuWOJmUJQY4nhE3g6APqMPgJBGGWJj2DaEmug3PBka8lkSDGlmA9AJoVfsug/CZnMLKUzPOfAY/VauXqVNWusWjqAtsQDKWbIMUVe21pbLDNF25apw2ClwJeOgZl50BKDxTOjFJtowI1tW3WzJGWsUDrjFlyAG3E7tyD3wHbElDMzMziqbdtpNh1mdYQDpOABQdjCQQQk04x674kHbNuWK9H/73xydbAW3Z0CgtQgKoKBNYzNjB28ouPLiP2+TnePMdaUOtaEgy12J92MdIOwgAUsVj/PMwGcJwBfdkmW8jy/3/t+37H0zMrKzKos6bKuvu6Ku7u76z/ArHB3WDUOK3fuuGtfKenu8qqsqsxK96Pf976/51nkya8yT55MIk4iD96FuxXOjbjc3e3ZdeMVvaJx+JZv4H1wCn+Z3cXdxt0N5+Bk4SR+mtW8cXf9sRucD3d3RorNjelZVsSsTi8P3rk9vWK+WU0kzvhMjssKd0jcreauJhNPnLO81fiLU7hbRQzu7txc3rpoJRFjmejNu6vcQTd+0Bu460jjLt3Yje5glXFXZO4mcvnidO3G5R6cwt3dOmZXl11d/AReB6eD1belIgpd1gJ3mgiXxum7rB60Gr1nW4l09B305vZ2sHIZd3etwSmcWp65rOrg5NYD/0+K7Dbb9q+q7p6ZhbN7+IgsW5JjCHNyMfN1MzMzMzMzY+BiSi7mkOUrZohtxTKIpXOODtPSUHeVZ22bFEmybev/RURVzdzcIzIjK7No0sC5GJvcZepim+EK1hWsJva4xcy8Vm8y85yrBhRXZQa4u5mpiogF/v/XT2mev39eJ3dHHg3SII10g6SATilrqNiue7PRzdm12QITO+iUBqV7xNHdcF0TwCCwOJUJATyB8L7rb8dHv/uLHO6iovDwe08DUCHzcfI/ReiQ7/V20+5hwiHty+EjRNsVLuqh7T+0vbntO7/8AoAj82+UvlJz9jnR/odHuXPsoQydcCRUqzhzRYN+fuj5lz8NfvD7l1zpQ2Ptlb97bAWgZL4MvozIAe8bdUdsvp54jX15bHz5VjrvvxPV2yJeOkZQ6GBxoh4oRUPfzS339k1vvTis93oRAMXzXzAQjH4JzUbt3N1z9V27e/TeITthUNXbmbBibHTj7EiUJhpHQKSXTL9zsz0+/nzevX3D06uxR301AIXzV4x++Zg0enzKHzddO4x3l7vGjH3QtOOKTt6iVSXyM+V3mpwbyYpCacMQBOAOJd1QuFoMf3QtHbb6zowh514u2OVDsQuAq/NRXBMvY5O++vqOI/bj/tG71mb6qCUlJxVpoXHDuKTwCeCOKBDuaCsQBOkNxclQMOGWoVkRuaLhKBvwvjy4y9fW1/f8Te/8D4CL80vwDcSnrk/dnsrh7f0HjtYBlbOSU94CKwEB8aDgmAhjhTpRagAVAtgGRgcUCA4Y2pU9Rxhic0PhAOcHXqgn7u873n33yl+bXxd9/XQagOr5ID6PfeZv8yakpwkHHa/Pjz8o8cr9BZULAikN4BJzh7YDELYnYDOlBUAgEmAguBXnAjuw5NozgGS5gfwKFp4MeZca8ti8aOjZu0e3Cy8LdvniPykHoGp+h4PfXnJG7WHi6M3j1NF7rdW4mUQbWAbKO5akooBYYDTxaocGjl+YQCYnxBkaaVUcD1ApQAyIldtVFEk1M7SJAYHvCtbckEftyA4fLMt3T+O9XpVsBqBofobvuOzbpxoPdeMHxhwq16Fj5KnTtCnqmfFMVxOGMjSgA6AERqACVegmiHGCApADoAFN6USQDBisXwRwJMAKoIVCg1SRAQRHftP3FPQHfhyCsub+ZttXw9PTbgitAoDy+Rb2ett67DPap0+59t6IUSOkOwA7Vt+3bpULoYxyIpLDljIs3ae1iEigGRXpb/OYEjkDLFQKyAJIsCqyGcYqp6HYbcwi9Ou14mGhnN2Dpqv3FudBAJyZT6Hsqdbu4NE70/bbXCbuP4r0hAUCIJRBYkAsKTaQUEIBAkYDoCav6WJExyBAYBKMyTcIMGjDpQQH6AJNCiHYRDvlM86rZG52oOfuJ9vfGh7aFyWDdzbcff4DfhnRfUffm3fYDF0n69Odh49zROXBEVYzB6BJ3DEQA1AKIuI3ZQCFoJGgpW6EY0DoMyqgCqDAwm27FQfW1K5hjvVNqJQ35A0WC17Z7Jja1m2raebQWczdVXHkseYzuOb2m5Qx+88HHrWx3D9++2X3SYctjWfGlQGxIzZSQ4FvYU5FAxjatS2Di/xwcPHi2wfqvn/0ecxHwJ9D8n7d93vtt1emjDjae06soh5VDbVmIQUBzqlZgapqCGUByCjXQF4VhOOFnVvdurvMX9+r3c8DoGC+Af4phJ/i//rKuP2f9ftKDxga0JnZqhQnQvgDVABmwkiNUc3A7BFYxdYQVNIFa/Gs90PD/X3311++v+/6zc8CcG6+gPe2Rfgtu/h2zr3+9psJ79kf+P6nq16c8/vrM33CpJzAzjYkOwgBxXBbYD0BNyxsqxkKlAsUBMK4pKxuwUPa5h3z1V0+8vyd/hf40fZncQCA0rp+fPnHI2MHX6970N6x60P9mzLhiFtz08R0KMnI8gFciEkwDkCIibhRa20CRlgoNVODwnbNhlQQCZbAPmHvquQULm/zwGnr7hd+cNFwyLI9T35h+4up23fQLWm/9z4/OOBAa5rjZ1V2eVDglM2O3QDkiAb2BGwu1FHEkPyubqRUMy7emDRCLn4mMAINCGC5wt4G+12vxWNh367uv2+8/tuuSZcAUFR374QJr9w3ucbm9PuHOKgTJ05q3GmEFqdzpyQQB80dEC3BqHIXoe9cOMbq90FR+VmFRGFqptNBUtgUWqvgtgZXIAEIEAXqAvUEhfrODzuq73wLjj76EwDf1dEbcWtKmL4bNUakMeioSu4dexg9pp+AKY1KZAkwUgQMeSRokwgRACkfIQlJ2c+DJZFQ8hLI0XYLwATYCqUiOJcxgBATIBTqDGzCAu6i6xXSIPaDw2v/ZtgYc4a12/7h733/8vOoezf21V9Jvia9GnzQyfHuSbvab+LJKZnGSTc7w6Tt4hsBSnkSQaI6FmkdbnwcMrAQBYMpgUFKngCJQGaeTs1kJ6iDiiu0XRAADKEiKkDIQ+zkuXdr2vQKpXJwT/dvV8icXTneA+BonbuDL18GP429d6aNOukdp8aoVxUj/Ia/JsNGcQFUUAJFkAEBZmAKCy9WCC8XIJagicuDlG4JBkEowUxQITVFJgyZU0OTMvBloREyPqT19JFuBcmMfaMy6mvrpcHYCu6jwUdXSU8/9PnZf3r4ZdSl2//4kn3o7nznwVvztNFbrXHVroexcedqPUMeyFXIjcMzUSCCuMmiDg+ZlmazDOV7XVEqQRiKiPRIKCIXpWaZYJAhWsOWNmhzwQpGOt7NyYsdf+ELZD4BNMyOOzt3fjU8Q+mVLDfvyviNufT2xpvWmXtK+5ZRfosjJm7rYweWaD95hrA17ewGyAxCGYZuIxDYccd+4lCjMUB0KiZUpVAAFiAVkVGyQ7cDWUEqfC8lEQkCIYDMuCG1h/GXtAOKjJGU37BhpYXErNxwi9ygZGNcACXdFHYljDcFLg3P9Nj2c/xiJ3+ZdS9Lr7YAUFkXjoHQ6Bce6zzk5m33o8D+R5EOLB1JY7cNEAmbABGY1EpRFAjJ8xAEICQBBqs85vBRAAUk19SjIBgKIHzPE1maIRaKYDMgWDO3xekW7hz1cqtBtqmIYfKM3PJWJEgr4p22GwapIVCghlAA1O77gugk25zNEIOHELdXRjlhNiyJXWAatNKbQisWkgfsq5KO2GGERb0PMX93d/3xftoPd9Z9YyD8tG+s7Q46qL89Yq8NKt1GVqIKHIOk2pPr2SgLv2agbqGiQZlq0zAsaovI0m7xmSDYZER1xWbBiCjM1aB56J9t23un+x+nzph/5N40dMTuW/HpGtiSxV8CvufS91IAsGRs0CasCESQyxJUNivAgxecKyJyIZgCM1lP6U6km1nIC5AuFgEkChL0FpQMXu77d3J4eb8PIqjjxm8gdr8f+sGmT+XM6TcTP8tbR0wzq9JqWFuCVqg2pAS0Qrrw/DALagAKWJ1FRMzGsPgDmMJClXZp1CDXsa1gFE5SsaSYq8rzJt57smP66Ni2J/HHieXbh8eld2NF+z00ZeW+yyHT+9cO2Ze2kw4PKqcvUd3E650RsEiQJ9fBhYRCJVLJeXf+0j2yhSfHeZ4v7adkqxFmIWctBCIxQne0LGhc9XNzSWLr62PslzEIXkZSHbbvzn33N/Petxe+2/WQ9MX74+2NonZBJTAVBqBjun5K64FSkM1n8/X+FmDIZI5jwGVbJbshm2RQGAo4EYZizureVgvuLeJ4n/bT9wCXmIgIZOfsA9efTX86hz7lsHKuNb1mMoxXSU9s4vw1GobYsCZlLlAW7iBGZ553nNfsS3t2STtaQBtERLb2GBFeEICY74ftCjuzqYP7hL07/6/DQ+jP3/Bgsy8bDH35dybVVTviBJlP+u0v+9vV/ujII3R3D27ZzUFBqoibnFz6UaT2Ru/YngVSsiR/PhOADx+FjhtLd8REYUZ+9qJf9AYrXhl31qu7GpRdSgZnj5vsVfwTgItSPeTn0Jgr0my/GR7Yf2oTxh5mrdJJY0qF9RGAAIGko2wDfgATGGeqna0mOEDyAK65WeRCBvkiaElkq7d0c1OQP78ezdn1GcnCLW+YvRcq99+rOXq6TtMLX/Y9YvHHc+EfI1wXja8gecB7flvP9/rzv/rw5LI0r4riEsigBETZYKAwCjuCETg3pUd8lvVt9cjJa/YQYekdGhQTklnLasDgjVIB1Em6M/TLhiGtLFIHZaaeSqT3Cz8WlpnDN59D45895RxQL80n0NOAw+x8/6jDkWv2j3g6U6a6ye0oh0bQmYqzFsBKBOCkWcRrk6xUryzVC4loCvKrFjjZhuUiiavSyUNkzO5Tyv43MMF98xujpz2DBnXPns7PZPbhbx+n7/8U7pv8dqnlbtaQqqoWZPcHJA0sJrcuYiBCSg3ItABBd1gvtwok3S0IxWwaG6WenSoOYc9O2KV7/u04XM/FP3gXyNF8lx9/N1r87C/ddIjDjL35ocuEOkBUxsO51DHtoBXESRviSqTbC0S6RU7NV0dGQbi2JwwdE6CbGMH37dIJU0V+iA3W6uL575Tvcua87K14yH8HwPY6ZU/pid8f2WbvP9cee/vu7v2emiaNeT0bT9+D5MzYCogmuJhgiAA4LScxGJOOLiVU0bb+YcFRN4PYFERhKREZFelWFf0XNAHEla2P2D0oGFztNHhzacg85o2l0x9kVl61+iT6EOk6/KHyy2uHpaxVPqoRPGw4VQsBF06+uQ2mI0UUQgryl4fSnWESIiAkskFEmJIwUiCo6bkaBnYDyHBrFROmG8QztyiKht3A+Xt79h9nDj1/fsGafrgHgPK6YvzEL0fGbr9T96Gef6fvYTfn4eO3y4RJdxJNErROgZQBJdO+4sIQGFhoE6aArUsJKXgNn1czk/Hb80TCssQkXFG2DklyVl/Fi7CN01PDx1hRXOeGePslmbVXxefBEbfQbZ9Cxo/Mr8OPdJcbnJlKJEXWITtGAmsIgCR0Sm1ggKBc9+KMeGBBZK0vaZEwFOluuuGn2a10IGsUFW4wXAxucTUgXwsHdPHj9tyXPci8LNth9ZN9j1U37Gn/KPsd8CT+OPrNm1bjrh1rVh0sgW07Th1QYA5kKY2kLgEY6WZW7BVE15HScQtO9Xz/bCKlAWli5TpjEaB2KLBND7YdYCf08Q3M2VmZ9U/qz/y5hMP4s0FTIu4ZZRh90LFz6wSJNKiTDRBqw9+9Ao1yTJTxhEFAQUT89iYRIZAE3rLzhcXdmOBsCEcEisLQuJQ0n+3Wfyx8gFO5a6dTY/WQBx7//GLqfjEhuNLL39fqal9YHhv5mo0Zc01qlB1UHJXWQERAuyaAalxLEHcgKeSSSwDmtoBdSucDApBAVS3n+ChJCSUz4IJs75xAA9xqty4UpNOLU09erC3bvY3J7LzqT3w1fPjD76WOuDBajbX9dwecxMijRo2aJF3vTjFU6AjaDCiAqbQA0mIm8EREwu61AhAi8ojMMys9UrZ7cV/Dr8Qsvh5FTyA9SbquuDY7HdGetbrSXOizup0vmVtfKzi3r4XHsQWAC3W7+ElEel/8ZuZ7/zuPA8ZfeXjk4K/UzhXrFY6EikoZIFwShaLdrZ5lbgEB6r8VeXilAlA8yo1TAoPFvjRJkEsKaBE3sZnVOzq7uq3YoeHh/s/w2Hshme1P6ok/VvPgpjw/YqSDDp481S4dX52CUJAER2hBMznJSL00iOQDEQYBgYiI16Z1oyx8DcSTLUnnlD2Kxyf9Euwhk92nMHR2VRQ2iaFKDp8UnHH23Hwb9eeF/U6jEICKOlwPsfk8/f24dRzKdX1s4q33+kwavYSsSBO4jnXA1BXoFVnFKFaSFW3fyCJCICkiSHAaJDruDimRmzA3TddHDQoENHwjCi6eDUN70CeLtQWMzyd2fL3UyHfpJ0fDBzu+/3fitanfCLW0KRqUCW4AlFRSAJERWew1i5wqIjIDUqfw2j0ZDUI8CtKOaYPW9VPasYarpG57C/HQOVlShxArg50AilS1tLPfmR85p2Luth88fvcP1tV6iB/8ndEHep9MfS8/dzt6rNM2U30Xgyu2EJKKk49DdQvYRJjzRbzMqV5jNi0L2oFIGkUhtfmKHVHB6r4RRU4lQxAKJhmSyhP1aPCgVQ5AW1m8lV9v00YxZOdkqZlXfZohePXjtL3fmAbtNWy9x8m4dcwIuWXjmS4JjSwFwwM5YiabhNMKNPFBNmmDttMMBAgAANQdd+PPy3GTDVqTbgfC6gMsrnbDTezOxXagfraDmMhS87VQqamZiwR9VzDkZrtvH+tLsq3gMWwH4GKdrDF7yHk/tx4mPOS1r01OKqpUaeImfn4EoCVAId6CTDonqc/g+4EwApFR6LSASwkTZRdrgt4dMSxjab+ifZnMsbz3u08hqcFv/Zt/MGnbQxt/yA7e2W+vJkw5HpIWTnTcCoNad5qSCqIhExrJYwCDlAgX4CmB1wO2IzhyhWUDNCuMm+J6Myimq5jYmWAQOhOFY2Ab6QQYgbzYKqpJTZYLmG2VibWtxFzIYnxMbos9dLsRgOt1rpgRlHz1rt6uj7w/+T1+4Z2/jJ3WGvGFBzFQjAo0OkXATPOCtug4NkKolNrzjX6ztDMcOMWWFMOtTAtUEUJAPugBwdANnZPCYVnbuKPqb2HYwlLDr/obGX/qLR/c63j8+ojjljP95BChcqaqQccA2ACScURuCAgJQYFKpExlCWTQJDNSGgrL1855mIG128XUlUntgCtugaLYIEYTA9ArdmRCBQyY4IpYDJRWtk/U7SgbpSVrxxX2JVnLD+eG+LvbqseqS/XPbvttv77u+/jIy+6VT8fUQ+E3gKpBrSIPdkqLCaAhlAlOJAsYFCI5NoEQKfkA4W1dn5cFyIoSkaaeADzZGKxO04fz2jBtP28TZQGmT89Lzb/qJ7+IHzr/jZv2Go/bD6xz4KRSGpRPApSAShuUEQOICTgog2XLcoy0TjmyDSjuUDclBe2Y1J5stoUrTh3GgC2gJjYggAasDB+JfMFCjU26DaiD7YBd59rO7ita2alLpiR7NoRWsafwUZwBoKzO1MF3EH+au69uHLW3/2oKSlc6vFM4nsRi1fPR3e4GnUgibEGkBWEbUEoDREoIpaAYHXnFLmxt5iYpMytXkwKwiPlUMqe2y0pxr7C/XpHZLutT/yIkc+S7frmnXa053Fh6KH884EgGTTmkqe3MTqDhnv4PiC5coWqnQA7c8cRQEZ2tqW827LCwuvLFg+3EFSXx3KwYlAZsQzOQWCI6OhWTCcpkDXtiEXLFehWDSuF2FifT3zkrA6zobj4TK6yH2ysDn28HXkYdqdFvP89/769+5df7HbSxarxUFswa9M5mUNxVFWA1hlgwU/1KBbG6wWMkQACiowGg3DMxoQBJLdhQLIGrQkwGlIeS5TBswPND0Z4+6G1Z0Hf5WYLMse/QT/3BrFK3dTwC/u99KmmV3DnC/YaiUS1EDYRJpavIOk1BaRfT3fBQXfnhapcLqqQjTl8PKTWRup6sXy9LW1t9IFhzw3UgIEHALWgk5R0WwJ0o0X1fVXBpWlT8qKyDIfb8/nWf3uiATqC612+0Ee/GXTxelfaUwqpSrbHZnMgO0MAGnQVMGgAq1jFB4Hev7RbfT6W5HQmYnQmN4uEF3eNxFqAHmKOBD+Tl+/8639lL8n9jenOSzMlXfZrhKVeuLQ+r3p76VH52+8Xhr/RsZ4YEdyrAXFZQKKLoege4l3PNvT+4GDC/sSSAgmNgpbCyqRlJEAkGKVAY5q5IC3C6IXu6U4gANrCM/rZ/DAPoHjj5hTPo9GmeKxkuU+Me24oEl+ANlL6Muk0TLsimP93mzr+RM2L9/Rth74Wiema7gNkF9c7Iu/yzBKVcY5tCCKRbxPNkpqcFQZsE5BR7gdFhUj/dIwpSp4c04JGs3ukj/acdPsQZ23/863Nljn+Hvv0v1TnwmdOjR7283j3x1ZGd3DCJdORQ0dynm3YfuKucpuFrqnCOOAVuVGsg6YBJiS8iJlemULoMqg0vrbvLdXA3YJFOLwtYE2jSTJoSkmO+KlguF2ilb8UL3GE/Gi8BcKwO059j85zHtroJh/0s5+d6T855F2TXqkDEqm6QgV06Ob/BByjPC7xu8UTk1Jl0rV4tl/lfz2nKkoIwCXRQTk69VnvFlR7HukErOvfevm5fBMAWmfMBOLHnO9+ZcfjTrwdX7J2Hjbm2TT7yq2DPih0Xm53Pz650SvTvu+J+clIyDZ0pTSLii58RWUNOvDTUpFLymODZkiRpas0BwaYwfc5f/jfoLHG/ozPAff1t4QLW9hpcD8BTOPcy6ipd7YesycEv7S+Ovq1dD7++5pXtCj2rdN08og1H6IzrKKT0EtUAa3GKt0A8T3xJNQglyHgEQlVaAc1RUFZIV0EY0mnvTS+2HU/n8TkstSIAFwCY/QBr9rh7fDx/4N0V34E9dm/1VfFcky5UyaAUFGCZ+L5UG0mTNtiwzPeXs4RnG1xLtSJHnigTH2Pj41gN6RbQArkusRzwNC/bD+p1GtpMc3p/HYDjdZLYEEy4/HHywa+9d/e+T9j9Bz3lLaYdFBqJAJZzROBGaGu5gwACswB2AtGIdItIABBMAkAqhgwwVEOAIJB6WWnBVfaIVmr18CIrh2dYGWN9SGrNt+0jCFW8WfL2mKS3cPMEroN1RC5D5SqAA/CVfZhORRIy0y4JVASdoNMwdC5aHgGSdHd4oAahbsgOfI+IHID2ZOcAWZqmxVExjTy1Hx98YXy720r5vGDt040vpq7Rl7PX/2Cta75Suk8dXwaP3oxpY96i0mkAN2AUnhvTMYoAmVipVYQJFnmclCzwxANSDeKLSFhNIEH9WSv/e9OBYaBhJ766uOYaVNkuteUDPn8TgQZZUz+dvZx1bpl8z1RMkkOUzGHxGdgAg1oQAgyq80SkYaHhtHx5JwOiZZ4Ap84OVHNKPUvKMVJkOXjsMi6OinTgdDiscmMHrtdyutKyFAyen17beU0XPMCZTw4AUF636Mn+n0u/w16wKWO+Oo0Z/Xqmn0EKSXJ2ltTEtC2xGNrIaIWkJWAohmBy3c3ieQ2nNiw7NVrqVxOKSGAB+gYa1s2D8U7O61ec1kvtWTaHppUneAZuS4fE0yNHr0sIuEgEVb4EFoSugzUKmMwjLFkxQ5c0BN0i7MIN648J05iEboTkHs1k6Q/AxmBSConhgk/mcSuoGAM6MDYHmBrNjSuV1pmPcw/6rp0Lh53ftlz5/PX17c/sa19u3aERTxwSnF3vctCz5Rd7P7uNOvIGargzxN0acohkR1IES3K5oC2Q6r36zuUAcclPjUq3AgyAHVNHbNDMo1FGXzMpYS1iZXC9QXLch/gcbdfV63bLl/g61vZP12SpLa+qkgZH6OzekMHJXe1fPpNO3AhqKBkaIIEQdmWA6Hv+OJblV1EgTJAOvLWRpJd2QQJiMC7oRGdc5KUhG0wAJgFWQFI3QnWKHYtyC6E6IRnEeJkdHNOB7TCmTS6JDw5JgQvGEsoMBCCkbefy7M6n/cD9nd/+M+SBbR4AZ+sGsSH0YP/UU67+4sPAa7yYrx7wtDRUY6NTY+oA6oQNmkBB2iRF/3QiWrnch2TSQCTieYsjSxMTNeTSjpjCegfeqvsCpXualAxrro9IrXnVmxKGDcTKbqHepOt4tuIGupj7pmh3tqRNRNCEZJGESCSZZk8iJkhLvm2DRGAUNAFClMx3nIFig1ZhqzAqbd2n+VG6HVVeiENN7RWHQ8lVBUIUmkRGkWDnjCWkIyTzdeiwig0eDFl5cO+X8q3d1vDPZPm1Y/f9m36xog7QUyrua5R/5XLzqKu30w+56l2m3Rdm0lAkBrweINcORkqTtEvKQLMTPcRw7rngNkYEecNckDsBWui00+nClMaami/wYTnvcAF6r6B82/44MFjxzoFXf3Sm1JpXJUlK7KNX8g0+krxt3ZxDZpkGsFQuSCQnM92gWhAvkggYwrwh6lqhVMQqEzqkmGHdcmk6Ubeu59EhE4nQOEhjJe0b6WB1U31iahb3EFSDMmK6lQXcU3ambTAsnhV2m9g87HwuD+609jhn4Px5kfqb59MPV8dn1PXbuvtj6nJwsY49/JWnYdMOS3ZiAtjQF/V6iAAorGOj4xkm150aiNjwSlZ0MwKJAkkrUMMbBg2oilBZ5MhB0js7QJ85M1BwqNe+flIyzmMTus8SpLa8arumubelfcXt0t/dYS8zGv15JDCKr8AoSMoNV0hnfdRZL35UTwBt4Y2SUNQZRRyFnVITY9ACSqCiU42R4qAyHJi6SQLkjOOKJz5/4ZtVoAai6s0iNo/SnTeucb16lbqz6zO4Gj7Q//eZvTyzyyoKBn7/fq1Oz+ijc9JTCvbXfdTvnlydMmkjI69egwIh7MjSinqJGAohJGXvxT/8F6QhhJCA0iMgHGhSccDkUMXXUNUpCqqreEbbFGoHN76ZIvuH+EiNSe058e4Y6W7q8+Z2ydLbNVGdSGAqWspOgE+CoFTAYIOIdG6O0ul6JIjSCtAcXY4MYreJG6WU7NCRo0nkrpmpvZIYEzaYJkaUEWKeaBIiGMnrzklzsEWAqhtWcUBxdqfTzpXFjPOlj5oWLGEZAMfq7DAhOOi+1j6imac9hPe/Htl07qQhEy4nNsgt09hZnojCMcJWAcSrPzroLtAUY8JaAdQdAUaXu//vRGDSIDcA5RDLN7EzUnEvA101xMZ0qTWv+l4JJZ6yRmrLB1W9Xe+ofMt68hGZMgQ6CyrbkRo0oVoyXjBAcjOTE5lofRQF6fSKtIhx4l8GGtA9+RvOuQRSoWRmOqKsUIfy7CHj1eGApAOEMI5ICsspNjoVjXJLg78c5Q2Cc/g5wAKpQEpoG7YzpAEJSI5cHEH7DDJjzqim2uWcV/QNUrDLh9YzL6MuDj+JyMHDl/lPZ3juNKF3mXCkbEMnJE358zkaZeJjPFkznYMsTEqUCBT8RokY0JYaypAjK5ZlM40Kgkk8AosyDEUOertxfXhd9uxSy7Iqe9otteVVr0kYziPDfUo6VLwQL1UecqS7YZwxuDX59U4bOuuB4CxJPbNZ6tPpM3KtDRIxUoZN3PGOwOYM5apKaY4ktY+FQxmmFIPhAkxZpljIiAGmcBkoKJBKaWGzy2dfOvPRIyKZbrZOYQNwAjwxNMsm/aNvD/I17OTXMtfy0mS5O1/0wUPRw9W5GXnwlHiwtR4HgL8+qmwdJ1Ulp9zMJcoG47qv0snU0pPOVIn+u1N8gSQ2hQKUUmKI/+aXNqnT3DVoDKDGFaUhKEw4F0VODC30XN/ew+e6k5ul9qw43/OmX70+U/L2Tf+KzVorcWxRqA001EoQ6AfMoHGlIdEkuVSiKM8k8q1IcM7tAg8ZlgMDs4AmvBLkSnllfBrj1X4mDpQwklVlJlQw9ky9ImaViTKRNARNDc23jDxPZvSbPMTwRgta4YA+RQpI5zCiqne+1HuAo3evW/P4D3XvtuvVLKePinnT9KY3muYcxgTWsQMgwWIMg6ohfYkyQFXKEsO0e+3rWZxcPyUBVGABMGgJt2cDrZ1iok6ATrdTl9eGN/HyiLvT+j3Hn6bBIy+DWuOqa9Iy+aqOKr8RQ+HLN3fS7oE7hVuf1IAiwImfmwXEz6VVglByMxNmsYYZJGrSgIYG4PBsiRO3TlWgJFk9wLyasLk52MR+SkdIKvWkGRQnRoftRCfDRLJZpMOTpSKAk1MAV+denPGBCl/QBkSHcICZ7zi4rpPAnTGwZiXFrpaa2/F8ac9zr/cDUFmH5gYH5TnxIQn3HdyUjtNPFrHRzA3OajdIGzdLtwRuiNR56TPPRBOvfglCdQsbMFKeQSmlFQxSCNmCgbAJkt5g7AY7cZ+Cw320z5Ba9I5WQ82Yq/0e97Y8AetJHTU0Nef8DZoTa8o0NL56ka5zRCTMzSzvR5FIT7oLOS0kuO8nFgoUmLY3jPjKdxzw9Af27XZTumTZIu4rRmdsuPMvjloJE0VS3y0CSCJgzy355h6FKQiTAGqygrZ7BQhn5CQO4TBIjNVfnqQ9VB7WFGtwaRRbvJ7g+XIIgPN1ZB7/6bSRO3qyD5l48t5d+9tj3/H0xKrEhUvWfITGAZLQVdIt6ASfGQDaLjRQvu93txGJlXkwl1LzT+6qAjH/SVKKj3dQlnboxb5ecfvOKf1bqTUvPjNJQva2GezE2vJ9c6vWgaqJscZR42YCNdgpxNIuLR9ca5AOWpeKiIQiuRl8/2NslKCVUmDbfciUOdcFKAgyr7TmUFR0drk84d6DJ/2v/m/Nh/rsr0an46Qk3jFxhlExDS8UsHFcc7YAUiAzVSbO9piMjwjdx3VLxv+Z3PxgI9smpsMd3uD3rPWI0kEiaTVF1nBKD8ezOLv72rh8QQ2YaVdvsp42pv4H8NPYo/KnAePE8pJR6EQ3CpWqRetupo2eaGGTgvAyi79oH0xkby3p1i5Jue0Y24FhcDn0PgM7POJ7i+tp2Q7l0wbY+yBBasm7PcxJtsKVnQosuE7ji/yXWR7/MewmAE2J1RgyBimmG1a6RVIakcuAOqVXZyLEKUDAjkRyMvPMBmYQidABCIEDcglyiC3U62ou58UKrujzeDtYPh7VT/3//0K3az7za11GRR06Zu82oibPWXH2SSzlMLCJUwQMcmAkIoGIAA8AYhKnZJd6niebZc2nSRiUhdA4dSpCsYBxHWcrh9aAEFlQ3ZU41is4b6dYoWq6MBB6GoelxXvz1gcj9/+NNmXCGy3PORJkpJwwSs9SieAULv/OEEkIxg8eJRMBhUXSDprQhChT6fTylJYhTyoc9SbaDVm1jZNNros58cEHpNac/sKawdfzvxVvZXv3VsuBw5bMkxrQFCKQ9LAMKIgblsKliUtKbqOp0+i+OFRx6iOy0XJJvWmNpLuIaQWysphijKM2r/thIPvhd4DIW755+WnyW/Xw1OPlD4ec5PQjjiU8JRWGZ8xEvQLb4fqSboIETSJdvu+zc9fd3MEsPCYAonz+1QGLvIr3mBTIjNQoFkoH1gAIisLXYUhZWWWk6fu4X9nj4+8tfwp07d938bripnVaRt9k/tPY5u3wKz86yMmEUwkFR4DfB0hIqkpJWjc8uo/sgMkEsZl8+nE2Q+OUVioZgPDQukdJBrKQ0B24NGOaHVOCD/TvN8Pnbs7u6tttd5daE34Ezc1t6VX+VY4o+3kbCttM1FNFbfGCXgBLerbrpVNEVsmMq+T7KZokZmdCcsSxiLOXQAsQQQMUAXJCGVh2roFuDcMAhTyGQINEi04P8SI98uwjmfGCP0P6Xz/nHoR4b9/EEUeWs0R5R5XPUL5B2TG5DboFbBKaWb0EQMezM5RV/8wlqO5rVtR971/zUoRAFEpBqRKiTlLWdgfcMFyuHsjKe1cJ9vL2p7ZdAFTXVeHLPx15mvYb6ly9mZu9+1/5j4NML90rDTtnygI0AAGbYaOUWEQOkDLitQS+NIGRp0UZOOOGBZcTFWhFQQsJpqRQjDpNbqBYVS877r9yXRYVVI9fSm0J1xGCX0fG2CfnWvHhfvPkm5cZZi8UW2VaStag3IRNEcPy9WkPhETkNiK+yG0kbwSQBChc1LQULKAEEDCAp79ZkVBJaKGFLA4CfSKYF0UnZWVREwsgy3Yy8wedIah4zWrth9OtV6OcOIK04WTU7EpzbE5r8j+H6yuo5dlNXrbn1uIBwWIwaFzin8oEm4GIdUhN84IpHNo/e+9Pf3zPDp5X3tPJeKBkNi/fZYFHACiaU9h4zVyRuDKSLlRyL1hyLlQ2XqBsOFeJHVuYmgn7bLfk9/3tL3pvv/cLI3pPt/rl29WwHHoPBqubOj2kBHWzLKVkZ+LdKojOPG9ZrhFUqJh81yXtduxXzB2zgDTjdARavFnlUj9/NsStJf27XFzS/8ocmH4Ul9oSfjtC0z4U9RO3yl0Vb+U4tdMb0giJZpqq7oCSys0mzIZFSVoZ/P7BJql2lYhIZ6IjICmdhNUInYJOu0/60+QATkb//r8PjbJLg+Y07VQ28HxcTaxaQWyJ22FVl8AXEZbUh92z/EPaMWLvIu8dt7m0mjSuMUeD1iLzyyZ6neWG9NcKmlSCDVu6gyyYWtaCEFtZ6GHfOAN0nVLj7KKNYlU2eumA0av0h3L68nbke3fG+M+eCXMBODSHXJWoSHKSEAawb38OX5VD+3MkkZPTCK2JwEBw6Ovs/l498+PjytjihV0r364QxR3oRR15QSBFyTLgJFiFnxKoWuMBQ4MHFNhS0CzSoGhHYlgP2A4QputVuOIKgxuaoWIgHb9wJm12QSO14UEJpJaENxCDIzSsuqY9J7/IMckd7UEjZqmD4UxQYKO7fblnrZNltoKOEBinRFaJiKwSEQaQwK0wkXjsgFwwJNCSpcJKpKrkUuIhYJec+QF7EK/1y+J75XvV7OmwiQgAju72k5cJB1CvXzoZ4w9J6+8PdGsKlSemWqBOUITrhk/zzKVoA6D7E8iJjA9QSCbbk1nETq3p1hWlxuzkn0FTxptpY4seWNY2Tx7P/7ZHuRx6wLq9cJXxm6UAXJoTAiaP5KVJCsOqBxlgPvieWSARtylE10A4+ODttPel/HzS+Nd/dNyOCHtGNVDJ9iLedq4nJSqA6KAVYEZSRxJepgGIPCZo8nLiMQmw4e+2SWkUT98lWN8PdB9Ur+1K+XxpJ65K7Tnx1lPDstd9hXOv1DQbDR42qiqwMm4ddBC6EMkWTCQmCpGpyY5kRQhcp0Rklcy4SmQhGwVB/UIUqGeDiwI0oQNAAHBUHLCoiH0W9JEHX+uBzMoHfVBSS0dTv6v5w6+fAo1eY9sJtgdTOy4eCXgXND9jRDC+yPtNCLHEz0fAdMfPECipGaSmvTDJETkrJruGZN4k26pUa/ZeC4+d35sLv/LhfTb45AEPx98BODMHJL1SboJbCXDBAOAy4zCDBQcX9xoHT+eWd3qPX/6xJ3ttvKrYpSgGLzqzHGChS2bOUsBYwBRe0RKE0kgGjkEpWXU4r56ZEAOQAwLyVL8QKFzvMtU8g6jIKMkO5o627WxV2w/tzPCevulI+Z/UntM/PXdOXMH05OsyijcyiydkSmAB4lSJAzsPmIBjQDXfz/rLo0Y5r4sdSbWrRERWxCr4zUzmXB+MF4TGrY8sUsvYNpa7Kug77PeSinPbieIzx8uK+ILM8gd9zSNP67Fp6N4Jvz1kot2njE8Rp6zQjG4VKPwJlKu7sVTAgkkxCCjVix+qJHRDzU8/NQuDuJniTDFgZRbHg7WRpt4vyQ8xkfvfZyy73ny9+zsAr9e8iVZxvXHignNeBlbPIGYgETUOpk7RxVFGsVMNcPDz3UwhneGrCMQmynXUs4KkzDTk/PQSJOFnVhxzGZI6DWSisMNwVeSHoYRLvarjD7HKtk7WEpfaEv7/ORG20XjC1stOFb4Nptn1dnc9JI+DW4VNaApTAS64iZQFjaAI0AIToIZTo6ilcZGIrBKRVSJs4FsKBCCCPEJcdm2Twp/CXTKFswe1rHA0vxOXtgOycRbOIjTr5EHPSWx/vHPj3q2MHyNj4CF2bVcRjSEChCXKiCHaUaEpvYrELOrI5QAiZxCOBkEwkYrCYzhlABqIBk6isiqO1JY9bvd23NtCHw0BoKzG7fVvmhkAfiAUeAAgF7cMwvYuVE2D+GSkY9PEQjIUqnJxM4fJ1kQAFRWSuBnAMQeShFE1pXRb308jVDuQ6vz9VyRFGCQbgt0B8GaH8GiXDIvK/eNXBUPEpNaE/4LI2M4yMblbHjPrS2N3r6bqSfcKue0ogtxeacMezlj+af5tiOR5zAocLF4MoAUzmfGMjw+DAqEvl2Pi6LRLlqcPWs/LCVzAykTou/VFSZTZ/KDzDD/tHfQ7bMaJRzZl5NTEpCoTVipQjSKClJSCEIsvHYNZszXXoqBCF11q5zcBBERoYnYsA1OwTBRVTUE9i7c3cPut9od9dEkE4EpNa21PZpJM3AJa0N6Dix4YgFxEJcxJQlnTwD620KPD0oBCulbUJNcEUWICU5BClyFLQLDo4YOUOBvOaoFk2kANEp1TGUQyoxINd6jMUt/Tv+A+ur6neHr818jx6equcyWQ2hKuIDl5UAdO3zmOL92LIbCRObhnoFKbTSYSvkERCkInev7x9koyYANLMg4WA0E7EDGpdaI1iEjUE8lqESUATA6c1sqKgtsEIfBg4wzOeLmLzcmmAjo+V7JzTII7CMtsf9DHNHiw3VOsRF63GrIqSVWFtJssxnCl69UHl1MGsZTYmYQTtwMJt5K1TQxKzS3udKt2g3WnNOlYARqlB4WzG3FVmpS2pHQE1nGGvrOatvfA4s5w4FYQQHksB430oxwUgcmkHYa6poErJXjU8PX8hTED1pRAeoZnNShLUXsbKKR21slIYuH53VuMpHhKMUCFhxKme4GdLFHbgJl9KLUm/JynTRtNOZUBPStofqniqGTxfld0P+gj9UNGAGoBozamRBROlgYJt+bz7eJv9n9TWSUiq2aQVSozFAcTASXZXfi1ivLTSsvZUivDVRhmitTMt1K+u7KQ37oOtdRxIImu9qgC3cEwuWIEmEDEZZeBKVBAI0ndzW4gQSNAAAxaUTRu4vXCxmLF70GU/gR7EuEvsKYN4h0vwIUPaE95O9oi6dQjQMyH7sHrxxNWCIZQBQyySQdRL8cKORNmGlRr7CscMuRYolomqCaw0e1tFfHkUAy5lPAp6enCtQoqyxgAKSUfiJCICQiJJSA5JYFCZxXDTiHPbhP8p4J8+xKAy1JrTnjhZQpdvd7j3IvJzqa0co+eJ2ADFHccN5YFhCItIoxmDXIw5DpidciTKDK1BkSJtILBZbJqmYisEpFVIqtJg5slEKeyVLCgFTAcByHPQ1TkAqmxLwaAlQPO5Xd2v1eUFJ5fRZkx3YNCUhCoqUlWHeMFL+j7SY3hsk8P6VasPiiaVEXHlV2TjvSNJofpe3DmjdT0Ubn4eOFObsDZit4tuNyRtg24osPGRcMENh1c3GXsXagjmZGNmyc2HQIqoCQsCCe5IZghDaAcogI6jtb+PF6Lychmk56NowHOCO/HWAhPGb32wokZS6gZ5iQLbAQVjGKJjkQeTWghYryr9tRfgucMOy5D2MEkz0djgbsgXdtxmzEgVQ6VRuCRpGyBpguycsQWDF7oOtHcjQYfmlc4XEiyUCOTMRWQgC2xCa0iHtMLBU2OL5KZMIDMKkgBkVKyatXDSMTBCFjSGe/+2B0Lty10vqnmeb2nKIWHPwtJLQlAGH4FbcrXdVhiR3qV4dAyoVN9mhkc7yglCBU65TIFdgYQBwtPGLT88yKIL2XzOiCRQSg0CBSCBwgeSGJWIiLIICKCnASIMAAPnL3idKrPFcwOh2K1BhAQrTkir+P+dduoSq7qM5Qy1WGjKkNSZQsvyFY6BRUgCZXSeVkvNQbdxW6qWNPEm0W8bjAZN588V2a3zKogvrMHFVmEatoRrG4ByALQgce9qVjbnSIf7CqUcQQnMkdGN6RH8W464z3g6lUdpAT08MIKQQ9shupE+a2xlNGBybhPYO9cXNzgLQgBmGPYyHhiL5TceYRWwMOCPYjmO+bICpvbIXsWsVZ4/Ds/hnR8HQp3RZYmkB6L0RvoYebBdeYco1AiCK9hbMjHtzUmrRg43YAPfBCvQujqRsGNcujajhbjpRpTBqykjF6cd5r/qAWg3zRbkSBBYqFOLkhJJVEvQKnDojTApR09DPbyapX/Ysu7evrLkNSauz6JGuWT/Gf5fb0D7mnETObAxS3QIjb60unJ7pGbNVoUIDhtsrCDtFNCKBVRhRDngwBAZP1GUIJIKzyg0M0CJGaGalcpB0qE3dGywsWyxV7El3B+1JMa/pgAHN9j5fXSoTQfLmqzAzSaaSqo5EIrNDaiJSQRECC1FQUERWVTWM9UnLxOkoJZfJpgu+AkPQvQO6lhc3JRppBIgC+IpJhhQwea47G7A1IzwXTSZORCzEM1DylXuRVIkRCclFQcS6GB+Uiy8ZyNFAgFGcgZBntG/PIAGSHggcyDEYbZphzf1QpgRG1g+GrMNZFsAFwTZSh9EBijNl2JuU2+XGIExAEQJz9sZ+fJ6XibUetgUTYnG9lY9dBpxGSAwD+FTcWbVBCFSV1VUlVQDGewc3xQiUAbl25dgHpBrLbY6cwJDnsOD19QRokuwFzXe+5Rn56fGpL1mf3HfE5qzX6fRqQ8Ky0qDue7KzaXEZWb0kQfACUIWYAdNImIBKuNNYJMG4URSCZLLd1Z5roA7klIyHAFZhDmiRWoUN8wZowvjCuO/QwvZh60v2DfYbEpXESpnpefJ73/y6nDHn83JHPgwwGw4z6/bn6v5F/+rePJgbdJFnNCefYikvAvKHeygunC4pWbnYDCT9xEKNZfTHAo4RK2RpFCbvonEcOgCJY7SNAGpUaWsxtYhOkqZ7lVFx2uVTUrMhfiqsTG00NAB565owN2ov1sbPeEF3qAUcy4TMmw5wGpEpEKDlVTIcAhPEEkHa3pXgsQBIHDvgVCcza4GIQ7RJONCVKQAn/Eo1g0iYBG4iovg9BBLwNuCeKOmHY7bEctGtWHaDSB5U6griv1u7GqgMImh4oIIImI+LK0TRkwnDFyFT7uSlDSnakUlCnXv4DWaTvb4iZTYBvjwMmEs3xFMmwTdzua69dMc/vY4fv++DhRast+/wGpTlaalO1I9+lRB1S000iYtqgZK1UJNkINSztkphtl9UZRukMkoGBYbFm/eTMoAMRaMBFoHvIEOg05IQQZgHd6/gIXn9jz6+a+i7I4hghkDr3pff+J37XpSn/qT6615ViC3rNc7+mV6CHAYEFwu1FOkQJHWoWsNoEF0IEBCspGFXeV7UxxtUMCBAmSyskcuTfKaKaFYgG4PxVjYAGG0IuCQPTCAigJxRGk2iuCa09FFiE67I95mhX+tAfWIRgg/2shfvNRmgFXXH1oPCN71gJ6hHqBqjdgs8I4wU34TGRjIMBDBID7WF0A8iHqgVsgqB+L3xBvNgIfGhKo80EXBlcENQNNOmE5+JXDqoFwfcnfnlxGr6MlEJEwkmWtyEJT0iBtBWvlhkcuAmNDDtqUqmUABVRAnKA2scVm0JwYmu274nT5FDr1MgwRSG3Z/z8gcdrLU6dp8Cfda70+3GcaHSi3KYwUdwImtHASpgBCG6vJyYx2tYnIKwqG8orFMKktKjpEAHLnAqWKzlvQBrvdWG2nWtAmbF+QU6ZnxfZirtIrvhEWohLH48jRQ5neSCalfoY50z++c+e8Q+lHASohli7aCIlYfIa35wTawLYQ56IAxpbKQlIELdm2QObMJJwM+HHCyWW8vBVIBg88TBtKRzKtmRfCzCd8QNEyBqRO3IMvAuhygygF7gjPoJz0wFYEhsNY1kwj+gQntWe4H9sYz2FLourMiAGuHgfuoxDEgg14Fs0LHU16PIsYPwV/wBP26swrxtoIVzS1HTgdhi4WJgw+C3ICiiEkH8fuZCbooPOhEkmbRTTjhoNlISOICCAwUhsgnclEkERXXFMMguQ9BoPBhpvPKDpbVzFolDMGScuqMP/UrhenazsBD47dLMcLr/xQWGrLAT+BHDtgSNm/Ps6ovGutKCqVjDtJz8/uHTBUU+aic5quB0SyMQXyAYkAJodmNizCBMIUPs08gMApirBZSXJ9R0sBFnYFq1Ac663lbxyri+56WI7Xh04P5HbLsyigJ+QY+5+Pdo+bdr/A9U0EOYE3LgxF0oniVvwYcRiLiK3wyUTIIImYYGFuTsgnyooVK50RlAUwDNuenNqTbzJwcroWkDiIBEaBFBhtDAOagHqgvg+Ls5AZgKh9/T3ZuwsFywBUQFqhsQgN2EkA2QBx4Mb4LJXPe2E7J+Rl6Smi7WBIIIB4E0kECqS1O8f9YGHbnUsJ7DuKfQtxojlo5rGDMc3BIkBJQl+81YogAgVmACNCskBxMpYRJWV4SDjnOlcAIgkoo/JKplfvm2wd03hOamy/zecBXEYYziIMtxCBEwSQIRCoUQ0FqmAR1XCMKihQCd+EyucxKwb8VyQkFk9pY5/QiZMcH6WKdA3LNBVtyhu3dpBS61LJp30RtiQiYSiCIAGGjILy/WX+BmXETAzRDEQLeliE8mBnVmGBx4o8Vqow5sEQOTLnd++WwcdIch78y/O4kc+t+dNHkIiAbBSowEOvzBUHKJRgS5I2gAi6FKUuAQOZI9NYrgFu2Dwo64FCYgYP/XhlAURzcE4mene+XSIl04jnbmynWvKA70TB1vy2DAB0CDq4RUEAtAoQgn1LfrTy8SnLwODWABeHuEmyl2qqN3wIdZ3oh2TTmShpT+to4rViiPGk7wW1xrGyoEM6AEJCttTW05rrWY1t9avbpmLUrGeXEtlZxfAzQ1Y/sWv/i2XYeTNz8q3pqtTYfk88j5b5p0w+yTtpjEycMh2qTCTLcDcwKjBkMXpWYKcUwtx8IdaTb+IljgBQcfQG/Hekjf1yu8/UeRd/teXwzgR6jeUNZcpNQQd1GVTOakJPlxvACUCevq5Aqs9JTsjP2lWbHlUnd6ICAIcMaIXW/NxgSeELelCYHtASLsXOYoPp58fjRudEqRXPONWSD/G5peUBX3x8fuS1udtBV5nt3C/iZVFErsiCVkIUoREAU0u8nIQSzRGmECeT4qL1gYy50wzJLhjCaFxpBhbQYCBtDJqfVJnN8blHPr8PUkUnmntyiNEO20f5v2IRCJUEtHiqWvHLCkgfjkc0kS5BHug35u8WkFLoSWcclwDkgxGEMmocKzMCgqTb0qAJWDWFiiomh82T66EoxNuUNL2w2637nXNldf1Tn1hjT/3Cq4jUyP6vfJYAu6gF99GU7qNJ5R7qlo4udShGeuGKjlYVcQnQJLAUPltwpByZQplMwUEsLg5yvHBVD6lVHIRz2AuXUADA5VT6/S3UdVCHj/2/MkrP0NhpjJHK9sbNyfVgpWAJcArU7kCC8WGjEAWVkq5TWlIQsafQwF6wI8OELC72UamDPYEn44TVGVR3KDCZCwf1B4uYZI1GgtSSAOx8G77vy7ueypfe73XYtbx3/MtlWD9x/zeY+GERgyHBIWArMAlhgzbPlzlyMAujgaYpUbREYpCKZKQlN4PoTcdVVIDZvGYmmXGhEjvidnNsqtUDaJGgPz+cn1trJWCF0AEBkvMDCRBcSg8nANUPezhPOlDPMNnJJIY0IBBTL2pg9xQ/Bl0K1JkkMX51uAQiYY8IQmSCJQt13DAnEkF0y0LRx3VD7HHbA3zgP/0kNXTqrTXP7G3vme2tgx5PcZ6WWNW4R8wsgqo3gh0LbARG5XWQJJbEFJwMXE5IQ2E/q1RvlMOwl9LyKO73/rvx1tLj1k9tZsl/8kGtsc+UcU7bp8CE1C7FK0WuIG+4SGtujZaWeh8FMyza2HhO2HC7jdUJgkR0SR44YCeQBLJYBgoI1c2OtBdWBvFCL8Q6YzYteIl1EGGpPQE491b/k/H1U/2XcfuOZ3nxyGdLFibDSP5aoPBGOxaICBIEc0RSOCSz2wsYAFe7cq0IRmptTx760agpymzkWcxibKjEMczxh4IG102wrz+/roU0gwCINBkAuBXArhBEYYx1oeKDw246oY0EykR1JXYMwokhmBAZsdng6Zya0pxJBByr7TdiAq9ZZmwCAmKhrOs2npgI0EHRhVZsLCr7pUb223wWrfrCPgHuaS+zLZ3KNtA6OWKC3SadwFi6BSFtJoZQ6qVLYm0qqIE8qAJuQnCYd8WrtcJazR3qAa6AB/Cl9ZStexki8X/2cajip7RzgsqDlT/y7gN4fAicaYNSQDAmD+g6EGePNtZs0M0gQi59jMYLaY9FYbVKKyXDsIgtVYcgEcGwQgE3GOaCpYESVE1WhE/ELPTqqpVRbp+SwoKVUtTrZL0FziGQWvV5FA95voBxnVJwEV4FcWhlFsCDAmkr/jwgkDk0m6BpAFozn0vKfKbeDZQVwuaNF6DOxUsR1DCN2T2QMcZk5ZM0gFQjIO6OsAUPGFvWQvoZIEBCkXESQFDtEAnVH8PLg/0kJqzjEEXIR7OoAvYpUQ4jIXSAyJnMa/0QvzSHikg6HYoAkieSCc7NM828bqVXaWOGRJMeqwYM+v+a5twtDc2ud6x8fZ9ZtT7ApOGqWm1SotkATDesZ4F19cKgLhHdJqtOrgPyYpXiZGcBrYP+oFaDGurM+GqbjRfa1sLBm3BFyFqTfv/cw/wIh1Ukaf787CRQxGf46oADQkhXkA98SIAt6ZaYYfFqw+BIimSmM7BLiswyCZrRAXUD9VxJ3i4UlW2OTtuG2Nx5J7wTgdSy5bFFHGV4a+vW47FNS/0gJ3NqSkhSmLOOVOJHMGUakz+/FdiAOFcEHYfnDLYzPpLTF79DWMldMIAOtORxFDI/P6BC7kkEwblUBTSIhBFzJL0ysvGAS6hE1MBVCSInrc8hKgcRY9ih4gNEEGa7AwEjX0SYN/XItxaiOZ0efOlgjePnKpn9g25raMo5uxlzv4VvoQm8qGBkHDM3T3aIDOwqhezg8YnhrmskG0g6SDueHEcGpBXiCrEq6dBRtkou7fC8HlGXyv8rtTSvNG+TmLKN2hJFW6RrcpkwN26vgABI4URsHLC4IRApo9ypdlT17AQJEYmPsdNS1yUiG6vJ5agDnZjUE6AG7ZPVAWuxXIktYwd6/8la1GtS+6qilDFpBXq6bgeIUgadftafY6YQmkcAJwvgzW5AKNyGSAgIJQ0cwwJGtIzLoboQ7zRr4MEMteT3cERrZQAgaDLqiSBIikOAPkQABhkeGM1InUTr2gJNFSQBaEKL4fIpcKg2pX0/nZbqP8+VqnUngwpsi9eJ1KmwJXxMs63fr2rr5KyOif17RNyiwanihihSlyIomnWGoGKlAAVUWHprsHCOzxA+C6SJgZFaFejMLtAUMYevRxekC0EU3IOSo45qlNkYD8k+qDBYLnDa6LazEjCZ10m+ygEJFpXP5yVEAtEErV3MA1vaKHK7UHKSE9Hx6Pu26kHbgJ1OnyV9TlfF5urTxTvTCuuoJ8KH9qAWAuoVDrTSVUOoNNIPi1gQJ4BgBIKbY8YR3QI9EVmAS3FCmgTpgeBqKu67MZHxxN7u5LphJYA253YhXZCrgyeQ2izjkZyAgPTb4wJQ3eFlRNFYRGAuAELR78BHbrQaoZW3ZwcM0dq2VC9zrAggSeB1z1Cf8xjUJU1b2OijWORSBABUz6YBP65hiKgx5VdKM+qNgcWguBI1ghTkJE6BGvcET/+juChsU0i+iL8mfT1ggpguUkRy+0XAyU0DqbOCsoKwEygVLoQhQqaICIASI+WBhK9IeJn8ltY2pCQi3mVgEHY0dvkSZTqlUyJQaNYMsSCKUE6WhLKsaMgfC6wXS63MYtW2Y7Vi8FY3Su7MdChpEfHEk4wv9TVoeKjaEO0PuKoFYPdl1AObAQLChoBSxNkoioFK6agPJOui5DHsEueEuC1S9yEYHCs3QLcFn0KuF7wemyAoFmgZhWhMAAS7FTACJCA3gmYT/u+Oq1bMnXhy4hI4cJlSh4gAxAwdnuhIBAEMxlGn3QKbqlyokB6Pyewd+jyCym+aujq7Ma3Xq15csgeJ8xUs7twCMEsIpyKpWuk06YzVICIIxTAyK4nIpiFO6um7oEfYiKKYDZM4R1sADY/9dB8BoPxlEEEjKA6XESUSYCYvQC3QGgECdgrEgQvggDl0dNnlWWEW6CIu8COxs+i98jgAW6SWhjoTVLnGVNwoW4EpQnJphyasiVn3n6sYACQizc3S7Geyfg06GL/O+LkD4nW9edKHn/0Y+EhmSLKBHgJJhO7N/vFIORZCTyN4AU6MHolbwWdDslZqzUbQga5+bIbsSMz+9GgWQE4/tLcDvUQqBlEKgSqpmh09PEiA5IRTX0FwNiBRhmwUcV14vMaRMycOfcVDzhOlHXy69+K+gjmg+cKCA4F1yKm549EyMhsDgtKUbFDeYTIEK/I+GEigy41uOkzh+K1+UE8gbyOkIrPCQwksV5exJt0QJANJaVNP95fVnWQuUWyhHOh30v7d3+pSmENc5lmLCcmBIxJ/y8wvQFMT7CZwvBOVe5GkkmoibAyJt82lJgBDYSaznmHWOI9iOIJfIT8M65dfWQJUpzfxRyH7S1IL2fAmQEJoUpUPodAdbRoBqpaDbBrzOlLEaHKslW5lpvXFnMk1S61K6Y7CrvpGOjYjBrC0kCUZD2mdYNb5krfhFNGFd6oP8k3hCl3tVBsiFnN+fuOizdLKqnxolRLgsEM3ABwmQFUfmqUFkgIPBc6U5OVC77N4A1fj2ylLx5DMu0YGmcaSVZpwhdK/kCHIXtOWq98/FQhk4ZHM7MsgPQXA+cgaj6PGcXI8N0LQVSIKoz9tLqilIJG5Ol5nnJTojP/V2PwmoHDRUFWMVx24O4c3lzaXQ84ibiHJ23PsL9lLgPFCxDA4vIb+D9RzfkjvdMzpxcqcMjwPidUAEhh0Bx2DbqD+nuxgg8x6IsgvZYgYJU1EREkCH4l6mChteg1l1aO2/rAbiSmSV6+MlIaFiZBQBuQQNKlo2BnOgIbBnBlVem0rLTidXxee5W8eS+ZlRxLlib8L8EAIpTwOV3kI4kI0bUfhI5APmU5iCvJXCeyI58X5nAgUT+0GXL4pFAOQoxRCKg7bSwN2gQnmoQ+GdOTADMSDOXzjzEiiNBIO06ADCLtDziQzzgoEgNqqQjCnWjJpAj68OQdmEusZExL4fyEj/bBnIWAhpAlyDnQ3UvbjsJWezVj52hxcQ/8hksp+obSF3qinuibug2LqkDRqAg1p0HTFBkgAKbGlWbeiWZZ0WUQLDYGBAKKgAZgeg5zZsHTFZekwYgpMjtkRDUghzYn8hXfjLGE3WT0oifO3g0w/Ke7mKdhFXOZlbzCQtFqAPDH589gCVYk3H8TduvUQGYR6kMR4jjPitBPfrTMAlaupBB/C3s3xMsE9lRuMDkEiiqfnY9u1sawtz3xpTyScoA1DdifcTuB6MM0G7NlE/emZOIlwsGo1YAZV1oqWMq4Ws24BEtJmgmNY5M6e1jSEU+XB8Fs0oSrEPYvQTMbPgGlPSTkUHNylkvUqdvJe9wZzeHLkRnoMUwg3E82oAVOClqAhH2qFtRFKMCtIQpaEkYEwgGsXGJWTCMO8ON2GvLInSTc7MLdAxYGcYCeQ3GMzhwWqBEaDMD3fKHcc9lka78luK8dKc6r8X+ZxBxHqRSoIqg9DUXSjkvtD7UPOKL6fB0vqqbvwmDFpFxz2Yefh/DcPGQkBaBAkINmRpiIcGHVAZ+p7c3cg2XmIOMSxSAYy/2/xVasDwWYUW/EejbPAopyC70j2j2H2QihSNdFYTqQOFRTSajV/7O/UwTX07y+p+q18wr5tPRPlIfpFmYzYUQe23VLdOmXAKd2JSZ0KUTAlFjcrpFFBmCgSMtH0pV+7KR+INRanWtVAQbyS/+NbCVwSFhHqzqsvOABWB3OdWdglFruSuXGp8Lj9gbbzfGX/ebLM645hQSEACWpPvx5dZXAHxB3Ib2OIrF1KPbDdPX4D0e7JyalEKeBCAARBJMBJcYcAgL+0GZ8dyfFBzCwAKvjqLKCIlZ0p78mmHPYKIqFK/TkVJMRrlnU2iAvi7sGag/lkCiCQugCsJwDwBf70eCJ3cJUt7fnTpluHqlFPeu5Llnc2L0VNt063+ZnT0Iywwayrl3qRdL3YBtrIYVgRXHHK9ZlFlKkHE3GEBCj8+ZcoSza76xW4LN3GxXwrrEtgaHVl3vcT+2GLQMB6H9CBY34QlZqJ/Jb4aTQL3YFaBhENf4tsmk3JQI7PJMIdgZwgSBIExCsJxKTHCgDXvnlW78+e/VifBMsgFZABIQLr5lT1IpfxLJjWYKxlwGmBCMBUgkXCj84QLLkQWgmEP6ZTZAEoYvFB7B5FRDa0DsqpgjSG4A3Xj/7OHE9jFI7toTeXSGK7/Z7Xa2c8bAwbzhTQClPX8Ki6TVfUG0+uS58Ew1ip8JbOumNkxk2QyDKyABLe1aquVATyA2XmkUAVRmVVBFXC6GwLRCnG3dTHgjo9Cnu5ftzi/BC3UCDzwj051ZMOK4YKCA9IM+Y0ZKj8XkRNIcMN3gpRDu3DSBcKvXg5jjkLCfDCpIO73kmQWwFlhmlF6Y60MHjYhrP9HKwdy+xcFAzFk1bA+TPam0fb8jejExux98bZYYbFuwrnOcMk0Yufz83WUmQwIYqh5C9V5qdfCe+Xl0x4Om7lyCugrfAWbG6YGiNpCOYqHNxDX1wSE69Yr9Lt6O/GmfGVwQBxt7QTKJ3216oEGVJ1i03XgRRk9aybcYNk6rXB+hXZ8G4mAIWdnHOF0gAYjCSdAXfADcnqU6+Gc9TItliVnQHxGvDtCOaJPjvjJuqbUN2bIMmwMM4yVuwPcTjaUwuw92e4HgCjiLEfMhnFjEOo8kgcvpg/fAACww7HN+wgp2qKGTAttRN1kWCFFCANEMX12NESw8JAbTaRTCLP4xQkM3uysrrzmPXrHQK5W9OjSTOkBJpAg3bg+oQF9M9xsSDz5YmzefBpXxwReb/EDIGhA+pRnVfAIZ687l0Sb2wN1ckimVcsovjknqqdwS3KwO0SS9pg1ekvEKhMs0aIter8pIPZ0pQVIAqNgViAIIR0AlawX6lmh+Z02oB3qhdozukHpRROyVMVp+o3UqcdDJpa0g0M4S9YMauGHi2Bsyf5U0YjWl7v/rbQMeVwQRIWQgzLn4AM2JKcAQqkwhAcs3rWAYEIMWwQRgKGLaEyaNrCMqCpf6xhBedk+iIe9Kw1wtaBti2KR68ndduDAMwsU3AAw1CIQWY1bCDB7LVO8fKY6MYuluAVmnCDICxdCbaDiJA56RAyShDIbDwmkmpDRgBLStOxFC6QU+wQIIEm0EuGz0iBXo257oqul7kzQPh1Z2b76DvHGmXQPDdpsIkSkKUeQ2GZ1EwCzCwQBRCsZ23O2U49SDT0JQWjfVbvp3G8Ilh6v194HZpL1SGeXl4yKtKebjQB0bHh2rVhDQnDmYQrAlFKCFUQUp9OKMx9AeyvZ6XuP233RlUl8k2r/hZIQtZ2GYYaMtMgDLMi1nhnRYg/+pp2qQKtfNyFJVeffyhztrxyyCM/Ug4Lv7PiedTpG3p5icQSbnAScowKSsCg0FioD2vWFgGjiI0C8IMJXXJmph0elR/Z1Pi+d4nP5pLe1aiYfu63VBT+2PyTFcZxu7dfgCHOAlBYd2/U7BQFYy5FoiQwprYwzRaW1ZSomjCQUCL27sTE1CROVCF4o+3QqDKTTHYRT3gkllI2KDPJINHEAs2FkxZefQxAcZ29onJE4zXqxNS0GAhEZwgUA6ljVjVlpqEEoVQtnvwJVhlioyc43d0a2uREk2wnULVa8VFJxdKSuNbJ259864H7eQjFFfm+ibHOt7+2LwRgd528/r2NMgTLtvwkhNSzOttUwyQMRDARRgKl5cBJxBhtUAZo9PRdTeUpOYosTtaRUxnm7pdjsXUvtrdzTz/gZMEaLsL54/V/sK4dTBDoqkeyroh/hoQM0/NgpWxNk6wE1lQABNAA7KgIJy7FCKBJzxSgeSVgIl5fkIVf9iVUfsXutXNUxwd5Wc/7AVqLg9Yq3o2vnH4G4Fodu2kZQiqNRCL3GbKk5SSKTSBRVEPAqJpQglBEVNPdACiBwAl5NFjGJBBiYwsDknO7qKURZwaOSpDcqJllN2pn1Xcxp3sKve4uge8pnO+79Hty/uuoS9fnCNUMVravYwJiCsOwvoacOZNQQpFbP3rETjS2AJRkIsUJQfJ6FcgoURQv6gwjSbmAR6oqZovRneu4eFCDXIPv7n0GFb7p7nXoINwH4/ZvPj10793hxicjcOmpRIQQx9aQxsYZRAIhwAoGJJbECaoWj7wBkF7N8pMDXYVH1i18XuxFp3KC80GncA6k4E4v1ipHSuCiqh96XNHbyXl91pbTRazq/Uj78FOrKwf+tnzksb1+glLHOiANzI4ctYQ1JKyPqpFGqRfVAAt9R2ABEARTWpQLUIXPoi4HpA2LwtOI1PEak4WGTM/GinATjM+WnInjemt8LvXat5cL+1iqH8pt8CxOvIw6cbCMCu7Xs9qTssDaoTimodM4qin10llNIxiINhLVgkhOZIMog2VyfA6RPDlD0ARALGEuRCRn5k7YQny6srEprf1hvOhn4LzOLhiOpwG4XCcO9lAOHTlRHFbIiVxFLpjcxY/FDTikGiLSmolEQjQKJZTZqevPsQFakeCitDmEK98+1aYvLQ8X9rCvz3Bf3NcwAL4LaXXg4HeiavqvlM4lii3jt5cOX7QhQSRYA6gjQA1pFDklkkgYKZQomB3YujxQg6QWG1VVCbEpNtqMQj4xaVZGTLs5hcrfRBLsIVbnDYBqPexHVGc9lcxR7bqKJb1wTB3GENaQsFHSUadImF1xZwmDWVewv2KnnMGJyWbEB3oK1izYlbPCTm+CsyFpFPMxdcnqA1A2LzMJphRxPPYYzPU1PqQ4x0VY0uXufC82u8+TuCU9A0L4DLOpMdGsu0GjRFFW5NhNNmCFzE4nOwIRxMWX+x9BMdBccAepqgeVgaqs4vGhJt9Ysq2r7Ah30Q1eQ/K8SQricYTPISwHzzC8M/E2Yvor4XR7MdqGygQqT6nZcdMBK7mpqDOKtQBpchtwAcTp2JTaolnnEqGCyMnHiqQbEbAiCGcDUAVCQCoCCuQThWCKhBrA0WKoTPKkmlY8tJ+SeY9EH2fvPg8ygOAj2ZPOjAQMYZgDsQbAmaAMCJ5w7vBuCD7Yo9HvxF7GtzU6BIDlfd7Llw59YX7GfpPsGfzvdginVtNVzexkShs7RUJZcWzM6NphKLOyob4+JyIV559bqqtOpU5pp6yLNiMU+ESsQGcqHuAMCtYP8djt1o43MWl6H1nzGLcDcae43iYfVBAaAMCJQ5LoGLJvmUSGvkaHDORcEOvvFz49ds545ThT3exvauwUaRJDBAZdK6T63NGYqWqHpedsaGyRJh9VbdigaDDYoOtMRlXI1mX3JoW3Sz5USJmnuH3ie5GbAYjDDTjhUkEqcQPQEVyBBDU7Adg8fOXyxZEv2n3Gd8lgYp46a4gRkECEBISULCOLSCuFImEgs/qPC7xzUAmTWQqWcspImXsYzZuMJnp4c0LJEQup7+MT/d4MPoOieQgfYg8gi4gLMoOTW4KTFaUI/I7Vq4kb4Wp4SGKJM+xH971ld043JOojVQXDVF3X7OoUCWVDeuMH9L0Hm5RBp8x6a3TVAyK+XHZFTjyVHFPhN614lu3glU5CV03RtiT3fnPklGyjM3wLWs8zJOC6J+sq4F21zfxamzDYmnwDdyz0OA2QpThlMj4Xt3GkTcJ7NYOt6TF4dn92mMfCg+6d7uti0J2qCWR23ykSJkqjgsQSXVvutDYrgYiEkpsVJ+QElVpXrpEvF1hEQAJZGCqWWJSw6tyYFK2g6KYNpOZUtStwiEsDr3wenkcYQlBLfDUILZyRTbjZgz2we1mCZrDSAFOEsaaHJMNNw9Fb7GEOj3GakGmcMZhRZnuwWAIksTj4MQiURAptoixZWiwz5laikUiueQYFSktPj0iP2ysWqwT30MkhBDKBEyY0EUO0nFegK0QwGtxA30qiMu6xik0abK6/L8ObsPVunQ3AoXkDL8bloFABP9CX43dP1luzB0ZDDz5k7GYM1vQY2NmSy3dwU8Xs3KAsfBFAc0FpYE7kkhHxcpWCSqkBkJgJOK0RkbRIJMwiyviqCR/7mjVRxl95oR+S0OalytJfo1icrIu0Tc9RZ6jwyWHCtnDaGdTKaRO3Tqn473QEVpFhSxuDICNKk4dmjmk7jl0AccDhri1IBaL4d4PHu9siYOpREGcIM2y+K5jpXKSIUBO2AE2CJiSnI9kdy2Ccse62p272WBfw82czL+BFkBUA5A9XxnUGB9lrUOOzYsnSzdxjbaj3HGtDGaQnqUgukcRiaINq04nek5x8wmaRJpHNwiLaAgBd8S3LGvHFEN05l1+TO/ZWtoljFw3p0ND5169UQS8nqQQGlupqaZxMbEyNNARlklG6lq4DNZBQkdUgEmBKXsdaSG41wDCKjCKnfGJ2IKkHIVCbep06QaHHa13UAwqhyF03n5nvbD1DE21wZ51bJ0qRa9hHu9YGFJ6XEQCsnxcoQ9PAAT8sZYygmneHbJIqxz+TUF9EVZELHYIiB48HDKGTYVhRVe6w8wkpIKoCx6roDvHZRuGVgU8oDS3pZ5gql4G0BNeF+EZRx+hxzEhioIUQpwQ6fFZVNYAKv3OxsnWnm6vTmKpNay69FKBYJ9WItDaBwa3dOXAWUwu2ikmhiQZVJ6t1EDesO6veKQ1aDip55qyt4HSvGriC9fGs3i8CQDUA1wA4+BwGf/DTo7FracKZQ5ba3oY4M/y9YiTRypOMmXGJxqYtqqYlbKop4Iq4EqTKLB4wQay8KCiv/jgTE1fGshnqBLkAcsrtFA8ks62ZTAZI+JlmWX2iJAMETUAg7WcqqXQUeJTcgz2BDvfk+LmyuPeH+Cf4Vvz8POZ+BhpdFkC8AKkJRWW8CBjOqXG8uh16LkHbpWjcixOyvuXFad+d/ltDdxs0eSKck+XfF6F4XYnDyURaocyI51G9IztfoRF2HO5FbD6GtbsgnImmC1O3G+bbpnYIb++F6tfKSEd0CAo/YueSu4CIhXjOBSc3FOLpB9OOzm4cn8fxszNoZyRh98jZ3Xl1KVp3p++OeD6cUCRCDcTjnvjg5jGeAcv5+Xc3Knaj/1bpu0d+uQqTXruclzkMTQsi57FhMnOykJmBCXgC9b91pKwrh9ry5we3txAmGQ8z6yazKQVNIeAGEIMpgRcxXC7kzz70MjjHi8Te3Bq4bxxbOvJ0hYOzzMBMQV1tJqdMJoAprSIAaLFIIJIWUNggHsP8tSeeeB1UJz1nMRlmhVIRkWuhBM44N4B4rF+qP1ibj3Gp9gIAin7/wTnWwDHy3BOt5U403zmW2pV1bVgFNq100o9GEYEpcSMcMkTm93vZEJNOYDlFmoDBi9YtRhLr/C15gIh6fEFKaS8vafGBEnryH34Z16nqeGUvSGH8lL9bfGGZZQu2XDDXS6bEHQBYAPRs3B+vSgzAeQ8O3A3LjsR5KK6D8Z5LQCbOMq53CEuH4nV1HA9DOwj/vnT40A3kEDCL0GzgggGXeMw70XsFlptZlAo8QDqYB5LBeHAgYXfH3mkcvSQTXqadVBwmsy6KydOwkRfgRHxpPqJ5+M9jdT+iZ3IsEYnUTDyGkXI4zoPwOQSnY0hMxn9/yHFMP5x/Ls+7I5Akgv8/H8wEh+J0edYdwPVBfDUR719r57UPJXMSeTlEz4MtBs0WoKmEZGI8menOMUaXnXOi2ZNlFczPBHXNpGpW4AdObk9tTz7biOtP6HiRcdiLq5Y/u2x8JvJRBSeNqiYmC9QJbg9aQJt//nR2m0UiImiQ3pBOe4CC0TSgdSoNP6zHBLdE17CrHFcRm3jaudrt1MvSEl7fnlh4qqQIwHUREThBbFKaG5ljv13tZnPnIFtXHaMxbGeCa40rzc9kqGr1Nadz04s3MQuAyAOLjT6y6AGGXNrrCjKSDjziYCAgESShSVlWUOW0OH22F/FjMRsf078CcHKuF4Tu13CIUjCO16/I8cnEyMO+5E1nmnO5MwSMZb2MWfiMY5azuUHry48ADoNq0Jp5CXwkmttlQxwSzaWByAIaUqAPY/4hHNwPLzuTyJxB5ErOXXUqoPLlf3AuMcUsGc7U7pASYBDqegW+KHzIPJjvR5KYDt1MQuXNBWAK0gFsvju+uzThUt/xqqwexgdJuJohNME1BXAuLUdpwrRM6rx4n5td8RjqasE14VqqKbUJ9HXi2Jn4lqFzvJS8NkJqz87G5w7b3GAJVUXh9ATUA9iOnWMnSCZEi4fTzVW0hkWJSFqltDBgKF26r4SCOOGRHikCR8cItikbN4LTadAlfNnrZr5lbSNBjj58AiH4CKJwiHj5fiSWoiQWnuodp2X4Ysqhgf2D+N4BTBUh3MyEtAZE3OJaSpMiWgFKaIBMzGoLCnhNnmA0CulWiIEYQOhOHESaEqDSMq1gu0H3vKjoom2NfcDegvfiOwCuzuV2oKETlwMRhHBecxBpt8PVC7NvAFpZlydhDuuyYJyqdiSbH83eKBKmEOgUaiwI5RyAcizliCB0wIBmDNsKMBsQXDwctAAaVKEUwSYRH8UKO8W454BGUkUU6AZWzgHJIB+QszkJr+l8eCEcJcohGWRzLW+u4MA98dskwhqoLhSshAoFv2Myb4zm7URUEndP6hAupqAUTqzrADoDVxaYC9JBLjBBGeAgeRGczssWIxxxjmjwUa91wnd623XreRsMZ+bDnuxd43ARAKp2/IjF+oW73N7p5akCljJnNmLQOiTHTpA0xs2UBqu8kjV33CzStCEXBhIua/Qzfg8hACfg8KX3BsoGWV1dlF/XyyyHFhlwE52qtmrvip02tOKgNayqUaOt7WQkAQZgSkE0I6AlCDozQNAjYSB+gwTCSMgATEyJjVhBLANtg853fKqLvbuc1ueWIcU1dl0wd2PoN+e3GOo0EE5IxG0guZfl6a3z0SVxvhsYeziKrSNxAsdYlJOItXPbULMILEXFKQj04ioA/C9vsJ47S6FGoloZhHUXHm7MuTJ67oTFl+Ldzaj3ggepmRDD+LgQByk9vBtkBVwPuvtzvRUVefQWUKmHC0GWxYzDyR5D0Du1guZJxIcxTeK3M+ykNMwH++F0LGo37L0puxjv3jkrL83cO2P5LfB1VwaM8CTUfOgpLBpMuM3LPJgTe7GsAMD1bx73zHwXycBXLEBWhHYuIePIOoaIfFwkoiAvxYJgxkjT3uDpOLoD+TG0+aEvwiEJ36uwZDRZf1IPIfpTvw3JjAHHi8ifMW35ux/b7/9i2ZjNMrZsY0qyRoKQljudjZ1ATdMWIMqTU1vFW5tXEB1P92eHSqlmYk0bbCs2IHFfAxRn8bnVgPB0srffV1HEMpmtU+qRbg60d2JH/gBJsqjUTJyVQFUF1gSNsxjIw7KlyoQigSAguFuPAENaDJv0d5Ze33ASIbATEQZanQNH39b3zueyDB/FnNg746le39r2A1A9V8PmvDgbH21I3TroAHDNAwm+a94fRfp0lhbhbO+yLB7KQrVWFMOMYupjSXXDu4RpJmiV/LHp+dVGj60UhlSYwELQDn1Xfo/lFsA4dyt80ZeNXai7H5XUGSCTVCkPjIGwncj350YBIgBgjL2nMjrK2D4dT+5cnkb2N7exQuggVfDVU4Ef9r78fXqyu/Al4yTjKuM0Y9dNs3hD7vrCcxLJOJnIOBoGQCm+t0DF0Sib4YXtDJw5IzsY/bDtzu1olHlIJQ4kfCTjG0n1YaA7p7tgvAYAjMbrID44hlVWaPVxdmMP43NHjECL6ODs/cJ9dkbvJMm4KWWMnDwmPYHn8zgQ1TEMlQNWfp4JpH7t5vwbXWE4sBsUOZYAzsVy6M92qHja5vQ6lL2Q7XVBGJ09AneQCgeoXTXjCWtBAuqvoxOzkQTJ6FQlo/hjTw60BSCVi4ABhCTMgwH5JPkmUFi6oqF11VqUlCGv0poA8mAt4Fx8Nb8tfnd51/4KNr2MudqyM3DhjKzelJshAFCBHJALJhM1h3m5ZNgZguZgcv4UyoEFZhwZY/CVmohfMjENcANRNIZQb8OgBQxAVSLgYzmeSjsANHXjQTfO+2AlIRrmEiblQ0EH/u6LDHb78yAX0xSmm6HU9V/kHMhsLBBEUMkdbMXtM7OTUcLgAIBxb0PeT6DZBaUQzGB9Bf4A0plyXu5/OoIXI7uz+X1A8q0xXsLWG6aIhW7YNNTF8LQVlZC+VWZehfzZSFUj6IVuT7wYZkeM3BQ+iGDkjWOrKdvtlxN2ZfzUvVF7+sluehRgRacmo0DGlGsAoqSnhwj8ja3NFkIlJ6Q0QGiIsKoXY4cVfH6xbVVSAwE4MPAhFOhKzhVQa5aYSvOqESOajUuremWkDQBCciAAQpGAQZ44+WlZ2oVGDV2MtIoMIiczLKJHx6B8p06vZUUf4OU+H7hpAsC1uRpWMAp3ZuNZOdyDkVpAKKS8/XSScpgwDCcJjCRzIGlOYYJIwW86ARIv05fwbOQWQL5wbbi/LR02OiwMkRBwRdNgoBSSazbhXlsMnAs1jchHk2A0MJ7DPsMUTdscgn4gmcE81KUobeCEpqENOAc7GZ2Q3pTyDfjFhxHhUhJxNxAGIJO083JnHhCaB5Zz8gXjIym7ZtgApnGCH/2xPDcisnMQjpfly31Zx8Xb2hc/RqtDZsaxf3LKmbgv48btj79OOGpJVC3JZQnh0sTArZOKQkWlTYSLiIRhsdaud3Y8wzmwV7LKXs7r8fk4UNCJOfHOs8+khv6IP0+vP6dflH0WsWQ/pySjx+y6RLlBYDhdoiIpCGCBLJhN+jIRbY45kRMGtAZNgaaTMIGElzWn3VxRUPYMdEpx6Zzzmz4fX/4ee4+8/SHM1QBGM2PTRViyE9XxDP09F7ha25CFNBP3kbheEtLmlgg6mM+XcrUI7dP8WptZyPPIWiqEN71tucoYsbHAuuDEfQRQH4lEChtQ2w6zIgg5zC5FLWF3b9gs2F8chzwWxzbo/bGvJ/Wa5YglNDTjPrpxk1EFux+8PUUGhkhVG4pxA1BMwMUoHYHSqbo2oHtTPg7h/MXRNcm5AnGHwXOQGz2b8y/sX5j374qPiL7uHsx+IIeNAJAEDWpP2zq1P7K56z5aM2sCPD2pW4a2zIgJGhMyLQtEKxWTlViSaKddrPV8UcPrhY1d3ibJz70TzsIPXUJScy8Y9DhXFbB+k5jNEebsSzHruW2ARKhCkToGSLQBQTp/xm+aJwJgIqL6HtZ0WT69aKlKyWSKPamG3qhlQ2LhKv6wXYw9uDzY+xxWwCJKYRPp0CACNWICBarAowIEZeBQBh6FMI/Sx5wLAd+BEXljrNuYS63p9EXQINZrP3A+XjqsTQAuiziRDVNxXY9SJOXMvAscbfxJmcDEpaDWtPagFpIqkXDH5keHOxI7euzeCKRCrC6BtXdVXCYQMBGvPORnwDEWt2DcDPjOgnYSBFw6CBs9gg4BBG8QQTFkBmLwxQqVnCW4AsClObwvOQXAaQRqDOjEYzfOJlDTi7Ifam9nIjk0tQLRUELvHCcrXBGUEcEKUQbpAYeTPFg6iP9w4QsuwTuM/Y6bGYEQHHnUM5InmVVWaU0oszslNoCUMbAMI7ECiGVMuGQv4gytzaW92rUSHQOp2QCUPgcANvS9YDlcW1NqJZdixiACJxIgFTUCaK0isuKwhUWQiI3MxEbBZelV7QBn1+HxHp9JoCaMgX3QC1HhPoJ9+iL32v1RYh08ZnKlUUynGMGRRxVKVHDBUgxZYnq4pkLutzP7b8nD88ULatJTu4ohtQXQkUu3SM7O7OhPQQR2FwkuKIbqPgwCwBAyJ5KzCifMJmUEjjZzyXhKoa7bjGtRdEoYsZQjUrn44MG0toews+x+OBcQFgSpW0F5iyw2ER6IPAB6ZQ44gdZxF0BQrAg2JzEEkFjnRZscP0zPEURKIe42+5MwmFMTCFrvcvJ1fnAxNLWloBe3t+IxQy91GKGcO3kePhP4byiqMsAg8cBWSB0cHqUIVSFaiHUX4siZ2frBHToiMvRKD+ANRCfoXUxPI4T+dWAahAc6hMEjBg9kIHNi71P4gVsu5Aezd8KVnpROaKZgMujkfj0UchW+aJJia/MGZWE9KIALLNBy2TmWDuJ61ROBkAhTAkmcA+akXMLktFGM1eXEIMzwahJ5gMAiC2VnYS777H4eK5A4BavYBnP4+cXUlFp0DaO3D39vw9p2/NmCVlJIWIA71m5UPjyAyxCWTd48ZDCDOWi9CQCQQcQkljYDEWAjziyTuJ5GCpZ4YIbdcgSCANfcICU6439TfOLNcABcI4yA17r8QQhYnQcAguQDWyGFgMtMnxw9vDuoFYKXoLXZH7qYucP4fip+qwChaR5YfRjaifsXYC/jX4lsojlpzuvn4yp0UCoJAZAgwelMlN4KGQ/v6JmzX2qvP1fOl/wv+77Ay6nyExnuTDU/pgSaTHSkycpN3m0GnanGy8BgWcdqWR6AhZ7QzQrpuUkYhZEAQxQcp7RL++2AtBwycjuAHfhz3A4pAWvAuUVd/MO9cd7Xf+1UAr8T5c+jWvyTtQew5hrX8Ka7HOJ+IAR25ekO/MoAgHFkHUWMRsXAnQW/FpjEzONwUhEEtqTkDLRD0gLJUUmCIOC6NqNJOIKP/xah1h3ehNUdewv4OIQI7kbxLJXIq/NmETRUkngGFYK4HrscBlUA0Uwgb/ptgFx89+TwAFJyEV1PBZFWO4FlW7H3YtyrZwC4cVgQQC6VO7mArYCoOz0VN83MazjyZuzzCWs/7Q5mJe7U+ry3JFEzIw1MQfEKsNMtBGcCxNrLfL+NHHyMjlOBjtQjIhLUR63CCgaUCCK9ElV0pQGBKGBI6MGYA+cK+pWdAS3mIfsxfh97t74d+8a6v0bUtozb+lxu7sfH17cAsoJkIkwI/xvAOXiaTpQmVo/hzcMIxjcfz9RvxUUE3Ha80yRV1TbDUA5kWSAc12p90PXhfi8KOlNnYjAHczos9iZqFun/GOASIGiq04wgJw/xEnCh+tMqhXnQOUQOZeXRzMrCtRjVCc0CUwkaxKHdeQ0A/OhaKVQKw3hmCs/O/TPxiMHhgU+yoWd4XFdvDm9MX72jb+h/RaRyWzuWHrdhFZinu7s1R88qKMOdrKxwbbcJkGRV68p04BMLdpDOS5QTEUmLNKTRVBoNEGJlGsyRJeSEFD4KFYBNsCZrKaklvUbOFxZfKMvgCbSCHSTPdbAhJYyoiTAmQMiErcDxhgC24YU/5kaoiYhnMQltCEohVNF4LC2fHYvSCsTfAzCZxLksrNOUaAY6cKgT/ZBcUwElAKcdEhCeeMjJxCEUM1Ss/Mh2gIlophJyHH5ZZM5gdjLyZjRPJORovrGJoDoMcAFPOndi67lYeh6yfLCXQMCuF8KX8makHo7/Pj8+13Ru8b7y68tvEvt7MtfARISEAZCgUdjgNpBgVQAQnUSEliKRSEQCEVmLoGxrulUpgJJ2cFkr6MDqupUvGIbguHB6xSv1Q/36xGn/Du4+1pn7+DISgCIdQlgACqHKUTKGADD0u3HWD4BWjyUThzJ7Du5o/uRtuYRFowL45nPwTcWDcHIgVUE0QzoHrTsWgLiUEITV+cTICIM+Gv9QRkAUBEoYkAHgimgnkzCBz8YQ04DlM0meiwRAKC1/CyQsMAugGX03RM3DXp/gyMRO/5DuMmZtHQMzDYk5le6SehL43TElSwlSQBOfYQRMIpIORCQdCCjEp9QZ1rdEbPD1NIsoht/JZeg5MyZgF0n/2rNGiS+9mEWfwQPwFDJrvwODCYJfI6s7ynxG74MLGBE+H2xbU7QxbeuEMoKpKcyaQVQ2UlA0L704tmhIAOgEwXBYDtKWRaKWeuSz4e2JnStCSIE4XspxzJ4CvcROMj7xJK8E0ApdDgZ5wEXZsyfvfgaBRxjLVAABVAbQowIleB7L/FIUqIE49FNIt9jmVsp2r1NfmnIJVFHOBxOdwMCUgNIZSsQZbAmYpPq0iMhlaxuy0RYGfT0hp8QaVmknNoKHLSbRei2QoGJ8UztO3l/uKb177AufQ25tNzyoKbyfhqEt5xgtMvohuitmhmAhIi0Am55+iaWbsOfrEhKRHcu1CFY38HV+1P5oe49rw2UEIlyXACIAUyDcYASpQoc6B9NamzCIWyR5HhrOicgIL8HRTM3H4V3M5h35hWGQ6AtxFiZ+bQ76WwGcGAxrk4viRHtHs+TK/DQGFcEHuDMMYAo1wbxoBHJhjmHukaTICYYpQFhSQ0DiO+OzIcN3iqzDHO8cRl0+rrhJbISiOo0kkgCOvmFfE4ACOZqJBCISdvssFBoGYBIRUOgK0JxCSHpwnanXLbmy0AcndHfqmDzBy+Ukw+HO/0+o5RYGe3t0HIkymPuBvNyF650oZAxK5BJwRyz8wI/CIdCRomxICYzhSix9XDQMAhOBKn5ve+4lMGDvtwNcJRmFcOCAsLk4fAUGN9CM5dmEmDAyOmwuRuAOLPDDDk7AeptHuS7A8e72Z09vDp2H368BYGfEN0dWRzxWauDRdM3lCQBMJOYu2NyNv7bi9hqJKZAZ7DqQ99KRCOEHvKgAcHGs0VyORM81JYWAw/jiCFbdJiebpO6ewKGs8mdAz0GGrYbAdt/+PSXwmf551YPr94nB/c367vOpdJygBE0FQjgEnCl0iTxADGyBSWR0hJnUSyDLnQJEtkbSJKC0QlrRUnAHYEeSiAwgQQU8Irph+YlX6zOJF74xDZ5H3drNFOJbo/AgIk2grj29YXSH0eGJMYK2fJQ5eJqQvqV4jI11DUSdQBRfQfqsmNpzKRBYgTIJzAYu8qF5a64ssQdAU57IDG2vHJpBCAigHB5gCEZGTl4vls4hMINcA4Xx1PtiWohqLJN9iXqOLlezINUAacMgP3/deiF4Itoj2JZOmBdt/XicBTmf2P2Z0IkhjehUK3wEVzoit7kcay7CLx3p7s6jbjzqzItQOgeg2w51NsETmXwQ68YS9NXU2jY0MQwAmjajIJb7jVxbfRzRV+OH3bjaiUffLYDRMqhcXFLxTyHyWNKS8OrGyy4kM8ZqCDyPuwOwY5uPPz9dduNyk1uNXErJVAMlsnIFAtda6LGR54NBdZGk6wUoLRcBEiJNgkpB0JpOa3JIHUkyYlBBw7lRUUnJCrUnR/xl2kibw2cQrtVwc/HoIFIKgcsJ0MlivVPjcHH+fDbibdhlWAM5Fka7C0uVZn+EBLoYLbBfAcGpGW7wnljt4XE5F3jSXCRAfUcqE6hMJtIMQUUw44mbwKZSgiuQNAcDCsfeDmsiTDEEOKS/Ggn65B3AeJCKbBxTZ5FQQQppHFxTi0B76ttSBNt9Wbgb55yNMSAWxNPtR1k+HsmMnw4yQa2mJWDehM9hy+jZmtOtaFdU0XwsDvdERgvQFrjoEdLAquVchwU1CAH4lr/GV3Ldf007Pdc6ZBjSJJZM9umvZQVkEgmqEwECkU5g0Rp0tQIoSHe1SmAEjIN4nayUFDlXwJptOtACVMR7E3PrmFF179mMKb3jkO+3NosMcjfuDCJ1dRkAFwQBqMSdnvAJdIfxwyxYe+hAbzDNLnAFMRh34gBk/kAFmvJ+TTD2WsJBBYQBwRcrgNuhtC37i1iVjoor+MLZYLnL5YutMxcC0A9kjQ7apdLT21zXAL9eE193F56Phj+KxAyoInAc4Jy4gnU9aWjNUUheieXn5qSmCkGkaioI8ej78EVb/pLAxcnfiY82pvLnkEvjv2MUIHIS8ToPhivgaxDIgOVlUYX1LUlZJ7mTXkeTMrMAkRST38UGAUtaOzMRaVUNgIF0pX2pliis1EpoBBSIwek2RpSF5FELMNGIc6AdK044eOKbkVeb4ZKxaSzrFxBRAPu5ITh3EiygNhSEU6ejLpQiL5SQGUtvZ+4HMkaCDKA9zdtwX44B0zpPAMUD/sHt5UC40dqoUK073X8PAEPYkmsm2vNZMg1Ns0pCaJEgkitW6lNJyifxBwrxEP/TBhqBYwFfd6bqCry3kHlZKJcSgfNIDFEURXIO0vuQvjtXMxAtdxJUaOp9RGINoaQ/+7bm0KuUarp9TlyQ7I3Jb81Ao9pMQhGEuljMLzCK0wHYltQg+DNiH1h+tI8zJXG0DuI2IlQlbkEaBQkC8im1tEpCZqyXzkjqAQOSIzaGFAuI053c3EViC6omngjcU1W63pGsvDMA0dpsfIiGEVBGahETk0lYiG8p9HqX6qrzxuBJrx8XyiiOwjEDGnJP6cVDI3pw8cn78NdaOZ50b8LReQRZ4K0wXvQnUGVvMqZOHN2VB1bsOkjem/NG+gGA0XM2js3hRTA7c4jNR6JwVwv+DeGUieEeEAMQd6PLgOQt6eADGPBBt9ZGCBIWYID+LJuSF4y0jIWZxDY4qTGaYg+uGemE3VFIDmDVHNJSSS/C4S81Q/VBeOvh/BvHLyHcOT3fMXSwu4ZRuBNvn45tu3J9S7oKcSqCdXKXJzZ3LC1obM8BH+61p2sFahICcBI+evpEHddH1N2nRCw3LroOQuF6RSGpdggkdde7alK3RrtLTNY4vQO3MwMIKqHkKzc58S+9/W3il9vdv3UtJp0SHia8PBj7gdfZlHZUYRbOVsTCAtCLpq04CrmMdkYOADBq7K1hnGGkAsAKG5zIqGDsZpTeAy4VaMzYvGgHAEYl4/3rAFgLCShcAE/41RjHxlE2Ht9yHNwZZTSg0mMJKEKph1yyOVVNAE6E3GszTjBmMTwvCBWNZwXaCsgAum+ImodFM8SnbXuTZG8U6QGhVzEnLllRX38ZWTgaszJbfZWp6VGVz/IvcBl5tV6VZ+E1lDWZaF2iLo58Rr+sRf+wT4hFWv+wjCFU5zWMNtRMLE1bg6KtHGx1S1XVgKAgqyYdkwecFgKTZGqIm0CNgrubyVNLdppbTSEkm/Bmhb8af+6hhvFDAtH7fOYyXK8erqkzk4RteKBUTFYi5uTX31XWzq6weooAY0hsTylVd+QO+CXUmTtNQTyLDel4wNUYxY1OFNY0Gm6Ij/nzWkc1QvcaKxMQBMSQFgECQKoxSsFpU1XNCCVpWFlMdeCfIjRX8iV3OIsWQhqACMEczAPGQE0j2MgO8dFtf3v3pNzd4iGRKUjKiEp2zMkMxwhQF9VMkQRQpScnsHvXqfR4uosv4dcAFM5d0nIRt0Z9dbhSiET8cnjr2Wrk/LDdubUhZtQ0dqZlYDlKU8cVjiOG4BpuR0xuDh4zIW0gqsknQaSsWJRHU1lKTmwPEQCuzF0OY3oamdkQbqA1qhI4gKgthhacwvH/GfSAoOJJao7wzFpW1E3CGROUa4Q1XLLOKeC88xjh5ajVpNUVMihMrKgpOSZIEgCn5i45jJuLjwmpSyO4nF2xtOX/MxDdM/Bh3+9p0AMqxVJjRC9rVmxz6Wl4UjWoOCmrBWsSkMHNwM0FJFItkRl89WpyN3AhWSjlA01Lb6NxMwD/nbuUw7hjp2YVQA/MHdmNew4/v6ZyxWmEZVhriowrok4youbis0Dhkmw2y4nkLFaCWk0uUUyGAhMk21BV7c1l7urNqCfSXCh+6vWD6A6lOoQT+TD3LBixGRDcYGvVCsxl8Kgp6ozQJDkyBOF6iJ2o63shJMBaUEbGC4wKoppgC5YRiSMOdELJCYYNXjnHHnOu0paHQTS/OjPkSwxgNI6yjRjAPY/xNHryOATWyYsxzCegxkhV7fUrCQgEEVQkNvpll52na3I75BaECqiuEBPUjjixBlM5d4ZWMJO6AByaq4RSfiOc9mNUK4bUI8U9lxemM4CTJjpEMEhD4QZRYySpyPwmyYgTUKJml5JKAFa8KGNkCJ47lGrCmm60kJBMStQS1MySueqatb+vCfd81q9gmFGDtPC9a2bs9jpq8nO/p72VgJNL9jrBRD3hZkg7a7yrXCig+4VqYnIFKWC8UlBEk2T+XGVWQ3OXmsxA51hlmtuTQVYEjMKshGEYQlSTrGFgE5eccQYmxucXgHSMEE62htlwbbanGvYP1eUsD01suuIbNkkT5xcAQcjCpIdBoSFKgxJCIIgBm4AhFNXlMYBAR/JRw3PlwLL5BGC5R2C/pBelQtKbWiRcSwTZKMpCrSahy/QGVUwuBUbQCSXzCUztoS7elt9XrRtSOIUNeiR7jAgDwhCimtz85qyGWZF04DaFnf3sfAFDfx4JY954NXzq/fm22LoMq9y9dQkQhdkeycoikSwsTagmLWQCQPVYhFgHvrP5AUp+NppOKLXv+NQ/Ld84xqcdTqlUFpIOJZsVCUXCFy2qSVYcpKx2ZAFLoJ/F81DjSZjLqjxc/0gZkhiKi/lyRbUbjzqTqDA8ajYMvYKg/JneGtZz0tS75a5JI8kxaeKqUCX8wuGmTV31kcyYDbI1RAEQzvUTcKCXrAoxNkjtf4O9EQ0PyfQQ/5TPejdB3jNgRHIEWXfDhjtlwZ2zZA/mDSI7Ei2qeRJiRkoK25NJ82VgW275c46hr6lwAby0JyaOtOaEw9MNVRh3u0djnNlIMBGOFRxAuwTONWbDcNOiLpGMNLYFNQSRKIGVqySEHXCyCCio/SaF7K6YvRXR+/LJXfPJM/zSFJakhfT4FwavB+5QaFb1eBaDanZOiBtn4SiOzEQrMkkoZGVfnn/Mmgrw2neSxs/u7i+ftlFlu3OzxF6paa2r2P7w3BwXnOFg3KByl2zMJgnDMCuyNiOSrSGKEsUAoXIZdC6HcXc+X/sNJ9aT+QsQBrNtCNuHsu3TjuHTqYQe/8oQnopD6ACq+1joGQSnoBVQv3Epyxgnayj0+0T2mPjW9/1jyl7cUXHIWqoxbkyuPUnMPTIBNAFLA5NGJ6rMO8lKiAKhbBYRObaGoAXN4JIqWKiUyBHot9Ra72smkxgEZwBFYNWqR0hHO4no418JQjmcAiKqFueESkd0ir00GA/IugLAy4EHMGKCQ7Qtamubqwz9N5d46V5LKbsfySOOyi+Te7iTtjY8A050iTJQTCi05NiwEZnkwuAY5CSZatBgtqQRApCESQAJhgJLXYjwl1mZAnIlc+VyTHBSpTcJs8ub88aibomTHsBpBQrKUE9l0ZDwPd55QeihXC6hmmk1YF9USZBZOExF3peJabz1L7bnG8YPdtCFZ234dyaBJuhXG4HenZ8dI4sykcxNCz57ToN7MiGxpVMrt6Rz8n5NcJH+vTAXCmGC9YEI+MHpdMoBeiCBsGtzKItm6Jl1GWKjG4Up3RrJXc+4ivyBserWVtvF0huOv5Ps3LDo29iv2wYsLrtltnlz3FSSWqFywaWRekIS40cSdrwDFIXICpmKdVH1wWNvPvVg8oFg1dctRgn7m3P//Kwazob5RFUwGMw/s2AdI3PVof91jYCifnJHu5Ruc9Bk0V5V0Zo4E0ggZCUnM19hESiCb3LjojaJRCTIzjqAEPLDIsFYQDSY1A+KLoEAeWEw47SK0aBXb0oKYBsn7C5Js60WTGfWcnBf0AbUgXJxLmLC8GCPf9UzA5d01BxERowyGNwrvBBbJuEThGg2NGocQkfSx6Tx5LR9jsB1TU5ULezqTEUR5kQkzFXXGCOwCQxRpBjWiYg0EUBm/eotIAMwpSEpNKWISNNniI6y/4glXdVkN/Ch09WBD4wVUvtnksK5EkxbTw57odfUfOhcMoehumdBIAt+Uf0JMwRcTmcpchnAiYxq1Djs86k9r2qv3lN1r4yr2EQ7dxfhF+hYMgzoxRsPQwlzUj1HeKM26KSEAAqxUChNG+4UZWbdiuZ1DEXSMFVgQttK6QppRVYwzdhOCvpnhQ9dqzB/9o7U/gfEO++ZNDWMkmD+8mKQxPKpxBXhfs8CEAa5qCogjAhC4Zo7Blk1Dof+14xWjqRmxaE2n/zG/Jvy0H+VPCDcByJI+IAx2UhJgayEIpILq8mx0bULGE7askWk/iylSepT81MCuOuoZBiGSXSypLUKQRlsasRgkhJ2OF/W65Knar8b7EWON4AaCLrzrB0dcbz8yYQMEMj8tGCq6mjIHaFC0Hohr5IH/tMZaMMxjcW4rFKkR/gFVXTnEPV2LgvrgV0rBZpajmhRpUKFITGjNEFEMtQLU72804YiNSD3xhbG2FqH2LQi2k6KY0Zi25qpu3NtOrYwtY5TAOrQJ4hORdBxEMmFIqFUqw0MkwYVMtgEW47tEkMkF2Y6U/JTuwx1wLYBFAz137NLQIPGoJSWMRnMqgHnUUCLtkRq/30Z1wlwzdmaln4URNDRm8t6bCTKwDj+k0akrP2JvBrz0vH2wFKCOIHSW+ccYwBDcClgaQTR98CJTly4MY7cGj8eSq4Bv0okEJPBnFy8OsG2Bq8gHTTEwm1AQySXGHXyYIVqAY1+0FNIGsmcUqT1p3lhOgcnnljOEaTfCIt9sJoRfnMcz87LhTtibSn+JsSnpzOcMU4iDxzM0gBuf7EHdoOLpeGcnFkKjMZjMovSCHjjObBldBZw5DpyDsN1OnPOwcQ0iGzgCR5iDsRRoDPD/bjWjvtrpRjK8aSNIGMWovbg6YsR0oABoh39W/CMke/gGvr/EIO7556l64eHK2rtPi0feYkGoFYUnzwKcwAKPtmE0wRU5IQBuVBmmg3kSy9hsEB3OqmrXYEezYAUREpH80KAgkhgwx3QuQXQKtQFaJUsgOeHovMbU969PeTgmjwX2Ie8FgCEjjzajboVG1HyyEJYwCjcZjNF1hxmzCZRD2+GNcLrYDpw8YY65lyNLaEYP+REVqeyPIm5SSzKYPF0NhxNhJwrMiec9QOgAzAHw9e6SoAViRvSfERpeB9L8nbc3I9fZQk9rp4wYNiPZc2d820+KlKf6jycYGTL8eP9AngD7Gn+cG2pz6BxIdMzkLwLM7yLoBaCwxn3s5/UAKwI3eiehf+LA8YTeQw7ZuCqQ3iqIJSRnH90e3eNupDs0zErDMOHdFlBs2pE7YYkHUUysS14fl5OrLA5jP9cnSw/9O+ilisWWDdkVtg0HOYQeSlOMu47sob+5ffDk5cPyVPKc5dx4eH5cd1tjDsyjgI3hAnQEiAApYzPLIDEFhGRXDgTAYIQDGJExQR3cYnWA1F7qEgYolmHUFsUFCN4bEPacoISJaMqnlMYWNm3hx/7PViuS+2fHM4VOBHUUDg/qhk8YujqwZiLVBOYwNS/KaccyXqnBULzRVaCfB6xB7ARwJMKiKWvfQEiM9yOEHZyyb57MgkAGYDQUACRiSgTx+PIycdqRCkH3x5APjG3yLVPoQnsRMMtk3gde7Gk3QSACUIEgz5cOZRYM4IrH+gBQOTEAmgVlIOYQQFgyIuQ5UMB7iivzzDYuRiKi/L+XABNc5FQuJIDlYPrdw6inDEGHAATzvsZOINzrnIuRB50OvIAAhglDqyh/wvJU2Pek7w7hlXtSs+yl192dmt1I0y753MddoK8IRwAK6YiDRI8UJCU1wgkACYrQS+lPhGmECUJLCHjiAg0CYgw6wjFv/fFWxSUbewGICUuZ8nsRnxYJOfDgItcheeu/5Ha/wZ7ERdHJ7hoyVN3hoGt6N6FHfchgNGkHMEsORZIIgEj/ukcHgxq4QFqaxtUobiEEWsklfVSh5KtuUiID+IHnKsegRPmIkpm6RAWy0IAFNAf+ka4MpCZr0KIdgyfhxzGH/aKWP23XKrWkrEI7hzEZB+sdQoACJDQhCiDsEICqEBlQC0APAqky0kcyKeZQKtrdkI01i4XnJ6rOyQwAXkLsi8HajVVOTUW0Pr1q1a7yrHAYT30X0SNxD67lh+PgRUFp1eOPEbTimvF2cBIqhzAEqjCWGE7+5EoUwD628BcA0CllpE0KKBCLEFfS30Ak0FJg/brKRC2BAAmmFWgCQ1YgEW0gKke7ibMHM7TkF6d32umK2UuuDfqVqQGYueKy5+yNBigvhsFIegIlIJiOKlynurPqcRng9HACwSBrhTqaPTAsBGnulMWBiBIRIAu3GF0SZlhtNp4BkKofd1GXhnp+nNmNEXEJzE+G0bhyWimsuVCqOWYGcnDBiCR+DuncDIA94Hrz5H9yW2SmoL6kviB+LUS+AvzGG7JoBvUA5agTUG1XMW6FxbESysMEEutAR0AHQJIwL6OmMPJWq1BaKfG0xtAjYE+HZYKFF8uj/hZSHKhHrdpBGRHEucRVUu8tiN9oRS40WbA3mRBa8KhhKiZRBYgOKxinz+mwhufT0xu738v3xtZsG1RnFQGi1OSK4+AE7u0rAWSglh8eGDG89BCA1OTWtQokg9tpRfVl2kyQzsxpbeISDhrEAJJEYesD0qK4Svtu0rbPFR+LJwfy2RuOB2tF54aKICxclpmQgJ4+PY8W0fcBJ1FuAE3GbACQL3mNd/WjpxNJT8WjReic7B7a76K4iVqNfAITGcmT2pbRA+xES1+/Gil1x9xBSp/GD+E+RjK6J/LW4lMywVwphB+HHPkWBlNxAqgP8TpaBmCTxnQqCfXb4E1jF6p1rwWR68LSlv6Q/kOPy2Ob0tofwhfoseS9+vAg8F2nNexowICiGbMTCsAC6QQAuKB620ujWYHlvlg0zipMaALz3z5ZYUbKgvMG8xnJBBNLgtT8MlChlAUBzPJCzs1qh3pjeA9X2TZsP6QnpC/5/e5o7cQOYIJjqlCaAC/gQbOXgya/mreNf3VrRscCzMFJJHQqyQ5cKmwFTmDIpnfIgPQ4QfRcQcppIknRLMl7C9SA4Z0k4qJkIIvugCphEg5kWSo4JQAWbMkEoqEs0LrTunO7cw4LYAW4MX/0fv8Y0nh8vk/hcAymSsWk2TGaAAwIkRTrUcP226cCuFVKi6qmkPCIF5j5MsgzoX2knbmGOMtRjtj8MTrMKpvhrzOPKhAcJKSh8RKiFRXCnrTF85nsK1f8bBdOTeRtdPwVnk+5I+Ss8YDAUB9H/bGwZMViFKijiIGkmGI92bW1+WKK547wBJG94qmVliS8HNDTqK2DUWMJgBYA8ACR0TgTQBwCYhBZMxiYTGMUqe1xnarbGd8B9sXyviNkYbfhykoFhJlhq4D78vnN83HDAsW+wOMsAQW+JlOOw1IgGVCLVR4WSNQI2fKK2ycbK9PJHbH2OQdMMfOnTqjyUS3Op5XTtMBESmQBtbhOMVpJZM4vlGAHJjAFIQZmMgXSTf6yyNgukMIEKggoAEpsQtxH/p7p6PsnS56vYxGTedQ67omEAQqWMlvFETw0NJ1fGCVyeQjSXc1oqZGj00xVAB5x8HFcihg3budHdYXc1yR2Q4tIxRGqBPV+GDpdJDuCZmJkcI5aBarHsIl3LC4UdYXmUQiL/zo5k4LmIfDXMZvB7vCnlBVl2jPizZ8Cslrx1EcCOdy0uoZxEidk/9tTC/sv8IA3HLxcinLk0iQo0OWAAsAczgTSRVUkY77bJJ9EUnMxNEdsYu0GEZLeA7JBy+CYlCCNB087OuhIAiCQdrcBWwKGbNRqlQKwjH348B9QXYpdAHKVaT6go348hb40AEAmAhkK1DAprKbCVEgqRQhoxaadJxN3I14oerq2pLvMV/vWpRPlIn0RbsBloM5LmEFqYiUSwqdSHi2zyAB7kS3Q+Zu5ITf2gKqGAIokRcRODLerSAjaGj9UqQhlg+F+Xa0qLdu6rPSV6u585kjR8d+FS/dvTGulJATBbYVRwNqtgbKOtThharY/UwUDrb8CZsz4QpRKTSpmJQFozOwRtFGDbvC4V7ea75vHnRxnXmARyCzP643AQ+2wEEH2mgQ4sr4M5JEaMgWmIx4c0xGqAuI4AYAb4yetENyc0YjeHkfq6jBQnoGHowWeyBSPkg41ZvQJ4WNeRyPTYGiZOEntQJ2O0OWIjMjy+HVCQpOSCdcjgFtFoJNV4xRFF+LxEJQQPhcxDZng0gmLB5CGIESSmmzlB6CFMACrJAyNECFtB/eC0lTIBoTKI/iEORHYPKn8yGWq7XdaTk9O87DNYZpsd8CH1tqbGU4lPSbIWdVbVP4GQ07A2lX9lUdUv76dZx7snZM7gGfiMpxqAKRkHGwiglUcirBdSR1J7/hMbvTnzFquAGqyBovtCbKBGuI7R8RnKIdDwYzcO45EV9TsbI8Wvx87qro1pxYOkdl5Na7SWoDfSYNLk+OGaHTtH3CE2NNK27UD80sTDDsAAQACSmkVRSqheMRAki93D+BgnJzxWLU4gWvPCloqm1LOd13r/wlsZlXeo0QkdkPz4yQDpGoiCHlDKNgqggLjkdRI6JAKLLBn2OGsz4UEKEVVa0wS/Vg5Cf60ZyOv2oGSUwoZOr3kQEgkOFYSo/AaOdvh8ABWFqA5oIQEtJjkWYRMYuobHwqmGbGEoOFW4FQ/rIc6QszFkd+MG0czjziTPjb3DX0fGa+cVI+iI7KHkikFmk2b6TgRoJCMHTgwqZ0VqIjhgiqA7CnQnPhBaJ4tTlPtuILRvHiPvFQwQ88r0cZq2uXwn+qIXgckWlkrade2zdV3gC+d6anDmODSZiYDBIGQZyYkweUPCQ4Gls8IAIQk4iuwwjdEjQRCBJZBJaEpAdFKBoM31oi6zuwtqbIjNu8JlEw1Jt2chww4j4eHLGbTcedWBxjCRMmJIXJKvLkChElja4RjRBCmkiEAlmilAgjAIaqmJPSHV3u3034pSPXHTDc06UmHvKriCamWzOT9poCEGQJoJawpbXKqO2RozllfriPJs8N6IEFoA2PDkZ0p4gA3BQioC01PnQBVpCCaC5TIZsMjMbT2mTHm7GTBEhUkArpf8twLCVjBktnkBoPvEEUOHWdCyRQlQxhe0p8qa0HpeCdRZZNImwaUzjQkvZwGlENU0meD6kI7sFAB4rWVuL3deWPUEqOI8ENohyo5AteWFuaN+PzDP7YGQvDvjgP4OQGrRsuvqjyMEy7h56H//gXrQHYWYtc+XtbbMqVdbB7n6OTN6b+7hOKRkVBuaFyIChyxgi5CC4FYIeWulYGcjSRVo1/t3895o7dBtBhStbU6ZHQh0pHqHqHM0tESywqXIkjvfvxQmWczkqK0w+QZvZbjyl7nDR5Yp3LRzV3cmkZFTODUdktnE2gnEoBrEN2wIFC99VCJxV1WdSvJ6f7eTtoef2I0n5IaiTkIzT2W5A97fanD498/fOJR73+Bbfc/KxkyiD93YygLXkIJ3PsRMapegCicSwyMlsH/8AA8CRmJAsIVokwmYxWhD2xLCNjoehg9+E4AE5SE3EvY9MMUnKx+gMOHYDLdR9W4KwaLEDXmeog7IKywDRm2UQQPp8IkAHBj7qN6K8OBbg0CK6YGG5NOyrLqNmSb4/gy0QClgvBUdcSxFEcz8VOnMqjvWnxHRNJazrdna48VAd+OZs89U/I29s/iMX38+0PPww8d97zWLUDCDJgHTdMfJKDucrxFVt7G2dbYG1MTYkKFBGwMAxudIhUIIriJmhgo3aCAAqpYRoyiG4zswEQpgJsAHUo5GYDhsF2AHMXcei2+G77pu94PwzB0yXlbZxE4Hlkjx49azzpUBqMr1mzAiUbfTawi35HQoskCleTIdBCcQLbid4GieP2bmJqR7GyKyVAUVHYojDeo1IT4b+NoOK1VvOIq+jzUJcfJ0zb+26PCetf1KzcHqwICpuXa4hYksfOGXa3k/QcMi4cipjlCYgrdVMJTSX28wMAAQJQaTKOo/kvY5Mcof4Je3oIDoJgtEiMI2EaKz4INwBoLu31+8H5UWakJYvJ03HhapWs2ZIzbRgktQLMJlhPBIBkdqUhITUM7uWjOpYjIuL40eGMVgp3wj83w4wk3p7AvAzgVGsVoq/Qmcfb8i3jzuI7BkmTBEETz8TEa3T4Fdy0zeMoeypPLF/u/H77FwCv1Qr3+e/n6MSf2XpUvZ6f0G3NMTcQhxMJlCoTA7iE0rgNmJSW3wQB2DpMXRoJXBCRWgcYUkNzGaCBWQCF9KlsAWxQktgH7VxMoF+2/s8sxL6KB1uGzMrp1xEvkjnXGUcXJ5ZEwyWuo8fcUEJgUm3gZQZWnGC9vs1gy9774S0iNfWQn7DGB3b3p0a/uQ868qWlRtXOA2jSC7RUKOsMxOthIWFJrSpCwAhzyDxC56EhPVD4UuKqFAkIEjlgLGmQy5++HMqeCRogqFY6GQIAPZqRbDHDEYlr9aI6moJyanPozsdkwSUSbSLLppACQFQBAqlqTQMnSkH0KwGMZ86PMwDREWMEV6uFG1ZA4RbYPKSVq2fcaIlbMlPSWTaGmfNgnJwU15/oTvdtMoNRu9gOLOUY4vFWrkYTSo1dT6yN2ejPTbHiQbj6p+ur90Hrju3Dm+f79cf3L3VOgy1EqnZlctk/1+/L39beFW9viVAnhXDSJZQMQiVDYkekxJoadHRaQWkQgAKjWxILnTZIMLNQhOKCySnZKThjSU0LlSpEkey66Reh+IFN4Vp/m89d3pPZ+jKkJsNfGbkj9cV9e8X5b/tbCU9bT1TfAAsaG8QOMRASsFsARgC6/RtlCTKnTiQ8jJHaBq4KrsBWQAhymQFRDk5dyGBcl7BCkYAifok9A7yACs4ZBLAj5DDS55BGhDiwMz9E8BCSV4JfiBMBJIPsrdmWX9oBzq95GG8A4UR+URXYiAuwb4H8E1whpYrCaPhbXECHfDZulbM9P/IxLJzIovFMmoDqc8OliLPQcjEmMboW1/ki4kVAqSMkkEVQOaMDr6Z4b7czcGpIWV/e/uS6cDf55P8vZg6CjyOAp5GSuC4503evfSrXOdlsWj84qDSUqd1pAHcJJ5VZeut20sSWok4iEIBiglBSRZDIesvE7Y2KtVoEFU57ZQ2peKybVcl5MbfVkVoSPj2Cw198K+8wf9t2Su9h3IjsMm3StILxkYndbZsZIWQQU2ISYOoUMEAlNEKDcA45MBx7EXuqpgdqOKZIOsqxWBH0EDbA4z59OcrZ+GhCTUd5EK/fAXlrbaqYMQnA3oimkpyCC3hjS05m0AjpBThAoIq7caEHTyCQiayEFAa7JxszgUBrLF7ckKGHf9InhdB0CFUTy5MQoNapDKeJxLeAqRIA7QkZydYJzJqGVzPX9FhvmvcZXy2uA4issAEwdcpvj60gEytOdQ6rgnpgl/r3w/Dsuqf/KmbvRPwEgMNzzoCDNzVKb+Bu2rHR7l1vpfckXe0JnhU6mASB64AYGrFNWoVWhxTONwbHrjMeFghDGSMQAIZUJBSXOisqVTXhq4GsU/Nd4Woetc5tm4tkLI6NEZPact//EN1GTObfjT9+OeDI+ibVzMiqIZmttDiFR1IvSxjFKQgDJroVdpc2u1DRnDESn0h8NOL30Z1rG3KmBaaVS/UQNku94c0QM/G5CudGoyKeCz2NsKNxZbQtAtsC6CKcS4CmtAB6XnaGkTocuisuxJUqYgwncD4YCJ6P8nAWBBFwJNMbsLILj/Iwy3hSNwBBigVUTQDVYYzCyXNQzmT6KJyqCueHHcriPTiVDAR3gz8Tv16ZDfWL6bpDJtUCySCF2xErzhIQcQRISptQlkR5wnzo1UHRbjV27Ebjq8Hd6ywAjs8Z/WdftqhaLz0rNm1Y5X3r7RxbNk+7l22QOHdARQbUgBaAdE/jgpU6UMIkHh5NdG5lJAnTaEEll0IooVi0IhHsGiqIlkzBsB8vLMbMfmX5vt/8OAA9xKR2PORfv4gX7+ydD8OriQfrGHBkzKZ8MjOxSmYACOCJudPNKn/PCwEGzGAyaNDsSbZD0nMGIyIDgQNBYD6/A6ivtwHAuN2Rp1dkllOgjPCJTNmBM4soE5qhgUDdd8+AljqayV3oQNX7cKU91RrlwaayMoVThXiq/FQvfodMHcTjcsELQT4eVVNKXRA1pPKl05iURGaV4QzI75bRA0AR4HqEXfnr1ljBsC2mAyKGyAOocVkeWRhL2gkQerlit1DZVTpCTAfqD7jYDZwPV3H6+tDxd3/1mHPC8OKYW7ptE8s28yV7fYd7N2hWKXMUNyE42JJHEi1AIc8CQIBEYNTT2JhZKMKaGoIUcmEuvM1K7SGeq77d6fAO8zKj5Nz+2Y8otSScH6F9/uI0aG+PFw6Jpa2zcxLffs5pxWMUTgxwqhyCMUBKIVDK530/8JoligJGmDPMrCwFegAeRt+9Q35b7kSBOUAgC+ck0mchWUS4dwE3kA4YHjr6ltkko81jiTdoLAZV1op2X27WVoAnTUQ7glgzYhhADD2T6ZATjPlV6qFVdVUKyVXjz3A4V/47hMhAOZavOhLPKLITgaIEiqFHCMzG+B+O2t65YPbAui84AW5w5+QAIw+L6ckrDwwwKaWNhgoNBscNKHSh4gIxMeEMnfkosi4pq6FYokLQ9iHt2v/y49gpvjTtA7kLgIqa9RYAoaon+03mZvmNc0/7mNGUloxHTiq4dt+I6yoKzxARJUIEbRttV6ABIFwzTFXSTTpuxK0ABY8FmIdPU75lTJAzDqKZKZCIld9y1rwsfup8pvdpPD1kOM28u9SSh3z2dXzCW7fDynbffno/31tNmTTubEGpcLOEOaAP66g2VjkpaBagt8J2phDpNAA6hSQEIE+Pcc/4hGSOnBSTi2A0wAc+lMcxuFQimAvxlA9jPOGEDOLT0SyCvwQgGqueHk0pByaQxswZjOpojcGITCTH4urO8icnTqKqzoo5hMoojFz9dINBDoAPQiCXWqKQ40VfBjKGjFTnZKItzI+gvA3GJJRLwxAzzMCyZTLWbMiprtz6hkJdPxLFjVG4Jd8X81cHhsIZC8c2G+ksVDriU9jmReEFeYehvwIhKdypoC2aj9vR0o5hP0ZPGQu5GYoJqBfw+pXZnwJI88Ryq2x+XYvNODGASEAp6pK0Mkin0xnflyu89NLbEoaQESxQ1AIWiILWi5szAUAoM5DghsqRVQzFgywbQrZx552+4iqjb2/o993vzb+g5sBlJDij0sJZL92qSo51Kgwyx4Jr49ikBT2xE4DwNZFRm2JIMym25HsXC5PwjgNN3SBgOGUWQ4RLlineSEiWCACg9nrmgA7AB5BkS5RCRz8uyabD2wy3n+Lv8q13l9oR/vTI2w/vdzson3sd6c+3T22kdoUBlA00BSYVUQYsAUmoVmA0hM7zAK7bY3JMsK4xvD22pJsEGBgp2iprWFIDmLvxiZgCRiB7qK4pkUEOYlotgBfjR+EEyEoE0e3Dw8YS4FLSCCxnls3jCgK9g6eyZ0EgAmChkiEAntjCqQ/CmItUqEmEZrE7D2spxnIET6T+ONR+kDBQAEwA0GOXUAmAlWFPCHv1vXkQRWEtGn6HkwIYNVMJub4MuSNegISgB5OgBnOmFUVB6HLx8MF4brYwKgArIxUYAE6PYoOX0YaTbemzANLUuWAgecHoQ2gO55UHpgU4ZuGdhU8R5IacBUogCqHGkjyGfyJ5GU5bGDVevCxCVcqEDHyTSZyBlKt8C6puiixG7WIzC1J87Q4DIoMsgNafjkjN8jMtEaWrQOS20o6UbiTSDhSUXqXB1BI0I0gEHpL5AB0T96m/ZuUuFc7scebxzl1PHlcCUFpd3vlLfyP0zr72N1tU3ilPJu/JwMJ1ptFYPfyaLc3McHPkhOZE2ECY1WqJkFwETEgBaTinmx2s33w8J7rFjQrsARIck2w7SkkHo8i4koA7LkjlXUHOwkGZrxv3O1/fsvvSW4UvQ2rJiT8+p44IeHSvqNPHT095FbunECchKTI5NOEtYIRofQgMZ/pgQkUKjgs9IPJZBKrTAKMrFBFAArcFp2BlTdmHpBCioQdC+DMUQT8quSKSilhGE1EQpcKMJ9cGKgR/3AZ7bpCCOJTPzyCAFRtzpR1lScQoYn0qnulE5+P49F6gMQD04a4e72EEagJWSCkILqwMFWKzh5uhLZZiD2wQULWWtH5hWR98a+7OYvosWDegLE1BPIJJtUvb0V+OFIByGoQQFgQJbMv5Hfm+O1gHoWRBTMNB8wG0dClOLcNuhIMXgh5udSKy2nUPZ8Rogf0eq1dzdWV3+s9IZm+Kliw2ezKz08N7NeXVKZiBqlutDW9kHFiNEv9vQ3NogwQiIkAEBCISNLFA+pKWnLQxAlGwC3Cxc7Xrd+pgwBmzx8fm3Xt+KJ4aPFy/vGlNgAa5cBuj3o4H9t9P/QP3Yy/hUFQF5XDK/+WaSLFozUiqsXRm24ZEuZ2JmzckkxtZjdPV8Alp2wFtwLnS+ZfO1woFUC8wWaVHLix2al5VznXF50zRHJ57yr3fv1JqS/gPI/fQYr7z6k9ef3fQ859lTdkUziTpZBSJVKRbRAQgEELaG8N0YPigQbedaneIBFQZP/v3gQVmwPYEaNcLHVTPK2vKCJu5eQCA1plebwYqgz0J2YPj40hS9ABtwRS8Ge0MoByGc4IR8j3ae78eCE7NCnjTW2wCnnhX7u/NoTEoOadm4gK9Kb8QKw/jo8szX+POckibTEgDtAVA43psX1FG/VbcTSVhOgrBhQ57Nwogn/HlpswdyTiVaygEQnNHMGADdoEYhNYJTekI+jOZ8UgCOC9+t8fPB5DuXM+5+ghqY22z0xsC9WUQBgihceFErWgm1G5MR38yGWVYfP5gqT6+Tz2/NDkdGJjroNEWHYXXACBZGvgSSCaflxlESAgNzlztS6glgYBrg3JuIUkybjfwotnmUj2zXef07uBy+WqHM5eCfh/B1ecxe+CPIQINMstfQsPkATon6vM0d+ZsrpRUAJFBCGRCgtaFTAJZpKRckLOaGqMcA6JlzCT1mo2QgavhJgUFxHJyRVg19m3n8nPAZT7MI01qR/jgOXT475hyD1VvUZp9cd9IugwZ+9aW4R4Z04LtC8VCUm8TkbRIo6SlrUGYFJBoX3ArjWQI/lJN6p5JUYRz5OFqiO4H2xJdEPbHtUJQNL+h0tNhL85X43nz1eohzJARWMYz5X0AITS0oT0D0Zr/GUOHF6P2DFjDaPdDeV3x9hZggS3jdBype/HBGMaXIP+voDcejq4nz7fhS8bzY/n+ULIaBEXxbF+IeuAtRlKaQM0cHA0I5SCI5jgoGWjD4zCso0njTgNogTWEokrgImTqSTqENRk4lMG+3zrFHbMnfQuRAfU/zI1hd7ye6ou1pK8fq3+bHYTjOIkdo1iYiaYYiRlRBYSLf7yH60RvV84XwgOe9BZy3Z3kmbiakFwPJE56456Y29K1MX/05lprypYtRnuygtv3VX1zyvguI5kaVKGMiAEYQBzQAAZNf8lqpQIoiOSjKJJq/zIwaEpLU9DFFto0uZBIoBhXkt3r+g7Utqt+dPgiPtxudX4DgLOzZ9Bkrl127fwszbI7brVGtKO0VsoVYGILaPrtFMNCCMJIyuVSer7giE0sUymhQiNC3JWZWAgQWg1mbPT52t7pbOf2UUVDORdf4CZ7Pr6ChyOQWhL+IMJX/5Y3LUfE8ceRIw6dctAyKsYzbowiYWxg6djgaEi0RUQk1xi0+docQxg3IddEoIPSDaaVJthg3Ey5JpEdr/SrP02VGtqSYx0p/Xx6hAe+bhHiyuHy+M9i/G//Yv/VjxEPngNI4NqurM9HbsRWiiiK9jha7PWnXc+HYUjIAEqxJuEpAUTgMZoZmXhZcSUTvJ7+zlSdjbsMPWbhP4Vx79cd/oFb014PYM0G3NiV3BzUbvBoQUcpo3KCEdIRAaDNKUwFlXmYWE50pbMIzffwRG2BMmHwps+A+fsB6ENZGCcDMDX9Vx/08bz44PbQHtnBTJiLbx6SItTuyBjssgp0wYwG0meBAbB0Ww7HU5WBWxbaUhzdkbtBPUoZYz8plKGNKD8/hfVYnL7fLmqNKpYXRnR80qiQKlKhZid6esBQJiTFGxAHlJgFJmoipnxeIpkpUSFBg3SDgacgCKBBGsohAJc2rUYXYg56L8qVbQay735PTbOu3D9/AMDVWQYfRQDPow7f1VumXO6TLKsBl8opgXuGu8Z4AQoWCMtBERElcgK9ABZpJErJuAVxhUyoDs0dtxkofV5nPzFaAUmBXegOYdEl8w6GoX8f5/DG9KCuMh3cHpXaEX4BoakvWbt9gXsOwlOfSak3n1oiys0EosoBOeSgCAI/JUbq3iIiaV+kTYQwOR1l9XrSEAuls6SfWEqYOad4VFyoIlm/gc/+crimMGoYVUATFjHjFgAss9fEqGQ0Qn4rqADEEcCM0AtzEyrJeMW4CwBNcg5hki9WqBQENuIrVPr3Pd/Xtj/6iZiKEEphIflDn/tbQ+UZgzfGgBfWVLgoyN4QkGaMMup/G84PU4DICPHjjFgZFixuZ0Io8QIbji5a/4P6z+685sLeYzImpllgKkiAs9XPD5zASEVCE5uBIIpk5meLeNIdsEKYk7Dd5c6iCpPqJk7u8Im9drbdaSndY7V9stv8Yca3Nqv6lD07uYu/JCd9JM60GkeF5QrfhboZZoSWMMF6FMGSDBIw5XuQKSWW4vh04HV7eQD5Le2hxeGbjIU0qCd7irr+uZvlbj27hKWWhP+E+MFdH3SgfTZ7//acMHFSInB4i2Yzq608BpA6stAjqUdSbU7afAmWtAMHtJA/j9hoVcQEArtmz85sL/OysZ2Pq2TecjTpPtg1hR7HkzuVA7CGYW7CIl2yYg0cgz/7U8V27xGu/OmodsmbOl3i1vgOtMbNEprSmtwAbu7YVE8mkw5mstrLhCAElNoBAgxucR6Y8hUCEbCE49IqNgrGMBR3064PyMUdz+6z+61s/wFg2yzY7YM1lHxRW9L6dgdcy1sqd0ZzK00wnzhOOeywQwppBUanOGBIDiVXAnujRWCkWKJP4uYp6TZoTezA7RgO6jxWUi0oA7LEhVBBODkV9t6ILz6do/60wvHtE3U6Aqkln/IzzyJFr327c/n95ckRU/Q9lD+N8OxINQsjCYScwT3OXKQrwmai0RgMUUoi3b6PBn4YKpCEa0y4WgilUo0JuQMcNrrfDViciwbPtVMUy5wJk3mfzFveKWF90DRCe05t+QoOXb4Z8YPSy3bXmCsjx3RH7+mBvadapccHPyCBViCJ67RFf3kmEwFRPhCRJq+9g0V0+0wKDE477wl9bYEJiB1watRNASgQAv0OFp/0WtsMnVtWFDXTlw+4XNcMvbDtgQetFIDqlOBtpCbf1oZV+2wJM/aqavq9vJsxOAF0gimxJBTqeMYaQlOqJwJy4Pect5EZouUpIRJSYBYIcwqq0gagwYGz+2Ty4PZEnz4U8BDbmx+HZqTAMOJSO8KPIuXwo6njg2fZc/zgizETyzedEscFt+ZCI84LGiEJaREGeHL028RbETGSDxQsBFYCLi53c2EVXa9MzxS3hy0DJjfrhsp5E3QjLvOWl0S6NctCsBO3gBj6snjs2BHhr3h073db+1H19MThuBk8pZqyKlOlUkFkQMELJR8hQU8kMygL0l6/qbkdSAhb4QOE6JgYYSU7El0ViFn2+zFh4w4fxIau79yo3GWx7Bk6LJ/26dU3X2oqu79XI1XPjV6l2/Jvs11r8pZmqyOLQEmQ4LrGuuerhLrsRNdWoBPIk3GwEZQUBLICJyR1y3dKHEGgqQu/77xGsENwOhCb88LYIJabfmwwTRbAvCVI7YhgcPhzHzcYbTbxiDqmHFqXZmXlgZo4VTpD4mdSKoJkHjAJ1RoBVRLKLAQCNpD61R3AYJSwcRcCG/CqpHeoGty3Q737+wp7uG+TecyzQgzHayFr5qNzAzAAf6yh5OegcPQIE4KnfMA4dOoNRyxe3xrJ6Obkm6amNougKwyEAEE1YEEkau9qF/EZRgRpaERVACGCnIxLGQWhkkIILU1ipdm2Z2UPMPCd97bw5tXitfwOgEvVgSAF1jHA2cTgsl1MhW1J5lGTrMUvawplMpFBFnYKqKJ1481uzk5sgVacp0Hr1pCnniClD/7mWki3g2oH6iTuhqolZS+C3Q2FjU6uuvmivM/J5xH42DGQ2nHYL9xlH3k8/XK/qvzy6ulad2rbo6phwDQ4xS5ZgI4C2ZF0SlWsUjfz2jLkADhhNGh09MRDhpPdBJ52oANVuaS6oaT3YNAiDSH8E6ZvrRj7FGIyT7kPM8pwPTfDd8A4D+ZFY9cD7gaaI6ntzjM4giuuSL0Ds5e3VaWpcZVKJGGIczI+A4JA6qsLRSSQGRlK5GRUAFNZDwiAErmkIJAER9H+RSfmC52tirtvbD/YS3frP38uznefD0hx8B+UXX7LfRh+FclwC5nTajR1FvwvicnoDQeF3jMwKbQaI2RywZnY6HMKbEk50wZEBMhvBIN8zxZgYoOGVSmtYxIBI52sM9C5lsVVDxWKriz02w8wjDypHXf7Yxqq+P2n9Ku/750Wjn+acCAefzNuZCbxUwyVgZGBXIcQbw6hlFHA7BCm2/PEb0nLLOxc7cakHSkBk1JVk4oXu96ruDZATxu2J/xXp/tEmbeMRHH7fDwMTT4ql0bcCtCeV/Fcj4Z0CIm8B//4YXFR96nMDVHHHp1SHdXQndaH4XqphkWkW9JBk0h3syfycruXdJzg5UMy0hBtaMKjbKNiQ6biUpSsmCEPrgcGPfT47C6L25IrXViOw1NrvfIjmw53dEhis7U1pYZcBTb4JECDUlAp5FquhRCGijXE4AYyTBmtpJTAiERQppihMZaACcBRSoTJ+TG3+yB1MaiVvOiexvrEac4svp0RqS1H/bWly5hb+kjiSMYdUY8azsiYRqgoEv6BjcAZcD1R1cR4hxoUHMKRDx6zAhiIhYrFywWsgGAWgKWMYgABphAvRN9FMeBDP7dl2AevX1n5s+2wMAUyj2mCL0PJObmsQKxLoD+B/WGwcBC/u//rekH92ZudanyztGj+9TlY/rB3VbEjKBONbok5saQPhwMgpUbUxEzioSmAQlQNHmLlhQxD3DCfoDnABnX1Sy9FEi+FybQtbmgFvvffuHyCfmF8V5Df6+1en3qQej54f9GOAGdaqWRfp26pMBVci9UNQCIgJGUgjZdvVA4UB0RQlDJ+Z8+yDSu70REFYAF0qb6lDUm1rAIJHUBhVbdCZ/sLOK3UGiCXbwrvTT8UTkeazhGT2vG+f3ak8tKh68SH3x79EL+E4RNbiappUwGh2qIlQmoMTYDFKwK4i5YxKaKiM2AWvlz8dR/n+a/eByJisblbVEoXBYTZOuYNo1sfJ+E0Rinp4LC/spa/NOxSrN++uPtg+Ds/XzfkvQ+HZd7TC6gmQOQNgsFjGzkRAgOHMQDXATh+la/7yTW7x3Wj1psapc3UmOqmoBV3Mj79CSecpyKcRAzSDaaAKrBJAyIhzroZ9DMZXpA8gzYou0C9eKFKE7H6axUKpCJcCwLIr7l+4cpz5E7YBkvf2AEX9w1U70pZjTGDRERAtMCodJNkpkAURd2/O4KYKPLzmKBJEUSL1ryWRQjVAhDIQhjhuosohdV2R5UsBkUdLumFgh7ewxW/DM9OIaktRz587Hqgy78dIm9qx2eTgvGJ1RbJTNlNwZLIA5JJt6AOKyXKSrWRdAd+zmcSWy/vlqj5dETxK2R0CMnGOa073eYCO2Hbc1p4L9/8+ewdP/zRK1fi8x4AKmXe04y1E0X+TPxWFA1aUhTBl6MZOjcEHMkXvJlhX/PwzeD8uzsq5x6bTu6UDNDbiJ4uCiYiNkuq3bmZ4qKIl8CgO7Eb2AVE94mDLlhveMrONH8CaYOpYSzIJsQLpsYHDL80klt7Haai7XRNiXQHshkQu11gdhXTC2SnxEZgDZthJR3TzETkWgoqux6IwAH7ZFxiByQp3awcqLZSsSG3+7MwXwEHSEmhcWYG2Kih4a4w3Sh3HsV56xvK2ZILOloXl0BqySE/81miPn/Tb9TZt2Zc49em/lPkwG5ncZ1FryWWFPkVyIAW0hiNSopErZFUmcIJt3z/X72OoFvQgMA3EK6brVG60QqcBM9ObFHGBbV4rur90IdX9/i6j765t29cX91hhTtveoHMgy47O3mbcSUIjRFzHgOjkMPh/JgP3H9dMLBaNurm7hz7nuX4a67LziF1HpBqsxUyBgTi7qrMXQu0QJtkgQLzan0sXjAmxmbEB8zNYuB0Z8aQVqSAijbUDdqqTww7UbUDiW0NimwwBpRSC6Ago0ZLIaWIGVBEPSg0SDcS9SgiBaFAmc3KJWShRIASmAIma05AN1HRxdbiYu9V/apwEbP0Er+LfeASSO14v//jIXni2Zdtn/bT74w/TEafqXLhRtOrmRWmykeIbtcNJ61fiVEsy0rqTAdrmEC1SVSCSxnwPLYQ6GKwwaLgRrKkUJnjYlWythbt8A5bssMjl7n39q3/f9m3JvOojMETnxAO6Zu+gAe+8NNrEr2nU8U8kiBa3Yp2ioJWyigEcWsA6eL8Rd1vNGA0hhZGDphUcfuBV+9iRjz7jZnFXS9FCmmGcqVI95nttku0I4btbSjRLpbcDQwZRHXMEq/HTynDIlYrJgVQBAFSuugiUNBEyuDyuz3usmuBCiVG5YY96NVQ/I5tuX2hL4w/io2xz49KqS33eRy/nIh1YmJW88omJ7F0VNQc6FYxzFogIElaFIfwYUpjI5ryUyM++pm0rnRaXSo+ofokWBQgIBxQ4hQsAYepcOiu9OHX+4Y89p15Q993+XhPv+24QOrePsTk3ai+l8nTLm2dx81tUw/sx8RptYqdHCTsDqqz2jMVd81ozeKbXSpME6aTs6346DgjcGegrgPZIIlrMQLbVXEzDMJu16AGOyhEcuuUNJFU8++hkM9Gv5tyFwD1v6REQfyaSunRb7Ts0ckJFpHf8kec/ffpOpA2XzR7wjzQskv2z/rOqdjI/li4LkdhkgnwgRaS2nGPN95kV9woQ/b69OGZkU/W7NGvRWrlWKEpw04lskBflFhChJCo3RK2xmccoBpABdisT+mln0c4YTk67dxPBfkMaQcaIE0gHX1wFWffiM092LXZbIP6rrv9YkG/9ZIEH0FI6uhOW29N98OLe/Yb4pajeluD6eVN9BWp9uLva2aqiAULAA1pRMU4Qpif7Dhi1wEM+XaDdFdbUz+I7fNqp6Io5DPSriwWrjqFAkkBiE2kO7QTXw+pkJSBxZrbKYjz6nuYBYsAoS3A5J95zjoQSNsCsVZOFmJazdi/hY7Xllryfl/8NP6QX17qTt59vGPk8/nwob+EHN55CcuT03zjBkhOAxhKGIkMCoNxEeSOF17Y3i4p35pFNZ4KpMAALUm3t2jd+u2a06VBcdlWUuIjmv88T+rw8mcRfpp/orY4NFsfc16qN489WGqW1o1unzmfuAO/o3xwPbCmeEm6XukUEtkNJFhLrI4HNWzBNtEHu+2x2Z3cYDuj5ErFJE0oIqDqbIVCZNEiotS2LjWE0ErIxAybyAvKFXjBTlEw4GgTefoidU3cC7gYFTDcT9E8Corm+JLUmn1+7NM6I748pk16/vaOkU8dmky/YUxZoCoEBEim3tCKeAWJHgehgBQ1AprKywtwAN6BhdQwrpCTUwhmhVSBzlRTQFvp1rHsVP+iX8+LBvp1f6/Fx7cT/Xpe6vYyIVT6ess8/MrS65rxYeSYNgaOP57zncmtWFs52CF3KCHAVjw3zw1ABPVKqRtpVayboRh2ddUQJ5igXKFKAzoC0DHZzXkJgCBqN5hkUwOFV4QiwCkKAllEnEAl0DFg6yCla7uLInG2sCTFku0tur+81WuCK5CQVFv0+2/nxpO7eGC/TyyDj/rq6D3p9SUGs1vcFITh5389n4NKSqEwMjzusidGM7eTZd7FQOGuHphBUykxCkzJikPzX2o8aVdQVzkd6NOlwTUXFEyxYcARj0NAgtT5ZSAY8eKWO2n/xYSDN26nj9goLaaNwx+O1rm4yj2xnRoj4PorTSb7l2oSQyB2dtVwvyugi/JWVCplo5sACSAFJvL5rkVRXv5aMOhK6bzPAZhYBHnR6msQNOEJtIJNQlnAXmEP2uYiwqpkPvbCssSktuz3uU9bXv2L464j75+7TN0nPX0JT15iO2h3+YLDFbgVRtKt0WhcCcYnUEA1mNTtghwgNKMFpAEoQWokZQXV6gicE48QVGWqwKuh+XR9qONnRfmXhw/LPotJ3eAjrr/OHLOvt+9zC0+O37pJK9s/RLEsfuqnD1wxSNETg52C69+6XbHZOUD/uCmPqSwBekVy4EplMUFbhEjp8e4CnASJ0qdIk0QpNSoQCJ0PSt+RjmDVgyWdzgYeDLA4qvRqFnOBt+KZLJDasvgTPxMrecfSrapXf/u0/sv3TRt/f9FbbxRlE2Tz2i0RTOSxDHcRkQuXCBh0QYIATXQ351DFxenUCGfXsfSG64qqnor3H/UbPhRu654WDgD+LXWH+Q2kHHbztuvVNjBuQtnHTzmOnIpJwVG8FDay04MSwBA0O3dmAxmSsfuPslnDQgl8PYaEMtHjASUgyvvSJGAJMbQBq5TEZ1KLWnI9J6kMeAhYYGcxtdW9s7oUnTSDR0qolrjfn/g0Oq570+maP/S1gSOPvhh/2ME1pqPrmx/d02JAJyh1iokSKMDJIm2LGnMeI3W0hgwQhhG2qntJaojKdYTZKh66EuSpgdVxT5/JceFge6yGnTVSh0jk4CuRNmULk47cWm4beX/qPWnkqpKzWW032e3K1XZCOnZVLTmJzn7oH3A5OzgZBXSrbgNMHScjifZN2S6EU+jaSZqUMpvXoSm5XJEr7CirxxJ9hlvwMZtV8dGHRQAUSi25+2ee0ve5rEMmHDw9XnqEpmWbJ4X1SSGAQ4GhMRw+LCWrBlSwzTz0aW1EdD2lTpu72BiwC7KEVd3ijlmGEkB3l5RcN7F9VZLfVw7s7vsGFI/zCn3fKXWNr/niXazsrZo6pfOm7bj6w79NPfI+O42e22P7oEQa0OQYPP2spdCd2+oziwutGNaxU+QNOdV6plJoaj7zVA+xyp7dxgQRGyDDCmBo63E7KtErfsLC2WDXA2fknKv4klwsWPNHrSNbVpI8LrXkA7zwWbj8p6dBT/a/3D550PXazKqfiePACqTDDtzZwzAJNOF5IjlfJGoDgc23vTMigAGjalotF9/5YnSCRa1lg9WXKFXKQIFcF1jc81V+oPP3Bgy3ku2O3/td6Z3jAetgTpA6yPwGYpP3phurdqxTbD8a2Rvj8USkZKInarFJKRKtKGKrtCGEVmrdutn3gyAQP+N1MyCMPE9JIgWyoJm6CGKrDmAlMomQRAXBUdglc5QVLZ1+tnNcKnwaQa3wgN/3eajyW1rSUdmz7H3/0PXeQ37+9ZTKWSrBQsdGk9i4sWsLWKqXFJlhDWA4rqFrCRgJArq9iz80k2C19ORWiwNYoQn+zT4o1/dMp5nFOb4DfJgqdZXL37TadPP6fsXGlsdHrYFVlhRsZiYVyVC5RfEPNKgU4lWyWvgT0ARC6ESYSClt6GIAObgbO0ijASh0SVfXpRu72SirWcTrTXy0omxWPpgc5icHt82kiSoba3qlxvSi08i2vrn9AMDhWmDaf/of4aL/e9t28htj6vRZPnLoy1+Nw/FJAam4e6TCl5Q82oh0RHgfU1J0JqkqDJqdsYrQEE1EMG00ds3dBgqILKjHIUpsgCwuItASFZKeG3r143LvQe7vHezb2MYIS91lvowInKBW1dGo70xbj6r5PtZhJulYYGXuoVpCIhBhCiIn2JGoBKpNSgVC5JnhbiTABBtEovomMAAFUtICrGAseUpIOeNQM5bMIVGMVeegs6BoBuOO9ozErHWdvI+WA/it0C6r95vit7bDAFTMWTt88aOg15UXdSt+6w8Oej/+5Tpu6uhSo3RyFofrEyafIaD60IFMnjlo28gnkZIgA6tCUkBCEMA2tC3ZyiQWYwJlqiWrQEgDFYPqDfGVYXA1r+hzdFpSWJVzlfXrVKnTzEAALyKPqrJfQUJcaUOo0Oge0AgkwUFQEBwIhJjoHrqBnDIwjjpvyALSxAAQiETAyG8hTWDB9ibmwEGa0g6jZpvD1U1io/JJUSjiZEyVrLIYc7Ir47XrVPem5yS6aT64a28D8PMc9Tb+4Dk45B66HHLzw79MPPJa5vjAjM0gt1BpR5yUEXNF3BCb6Jf+mHv+2pRO/bwgwfeuKHgBAU5bvPhbEWDwNAxAGQDgyu6nnd5fTm/3vvxKd9Yj/fY+jUidZwBWvOd/9YP1086t9bC4DrXGHlKzCEOU8C/BWriZ+TlAxP+xhpnWMUH9ijASAYMNXc3XWSDg6IO721SejKrUYZiNzGbkioGsfgwTO0xBgzQ10Mxw8sy4rUN8yvbcKpaV53f53P3VHdzDa4M3t4UAlM8x8fd/t8FeD5Y/8U9kw6LRc0apuB9URglekXSKXZevTChVALHZZME/NyVyHflBNUYnhaTa200Qjw1EqnU6Op0SkXBZARxmQS+O6kGPomzIe/Dtlb9hef7ef5NslbrQF7z533BaEj+uP3DDKpOjdrKIXtAS1IJUKYi1wLQcCKRn6eqbbCYGDxQELAACcgByWx4/kcLYpjhyFsa2K4ehl0yKqSBKRpMms8U3ApcbS7arKtqwX3tvWtLBRc3b91Y2ZdGOwFrrscMhAErmhDcfvxQ9Mk31Dhyz40iRftR7YxCKHe1OXARL0ELIxnLGRVoYBF25s5iM35QSy8BuwFigGmRFAAIBBrQgoOmU3wdFqXzQndB71S71X7VN9/rx+t0DfM+nXwFwAoDqOlECQBEA+wHY3Pe3jxMwkRrWWFrFDjMHG6Ebc77J6dU+fqQaUImWEhJlxA6eAFtq0gKg3bk6qCVj979w2Ma90VGU8iJWvFJMjZXcC1UpaRUvmbiirPpyUdym45XN7MnR5HFzQPvdxMKl8zPu4pY18GhbDMDMOeA+vnmJPY1rnw3Q0+uI/vWcmdx8z7DmTt8iqLkHNg/GrdawVIYrZAESEDuVurts+UiAT+Q1pXTjO/ytBgU4ABfOfelowC0obbROEBMTHvV9wA15V64b8Nj29c7vyk8AOA3ACQDUnebPIAwOGdNP0DkZ13fcXcnn7QZmcB5W0A6knKAwGKBEmi6yGriYXWdIgExscUkR0/hglMGhWI3yw7TyhqEZOkASqOLr7iaiL4WlCG78MSuEGwMKQgc8YDL/id1Tg85PF3b5cDu469fijX4PyzcAXK1ZD/LY92dP2Y0hB8+O9+xbWIuRUnISViPQKtDAtkPrXgroDJNSGizrVgIEc2HyE3YNg7QNOq789z8loBnaQrEDcYBO1TsdFdMNBJm8gl5XuqpKOrAzTMkxZsQODgcGb30nEd73lUDqVvMGEuEaWji3tXfVNY5ypt4TKkZhHIyqe1JRvdo1F6k26YkzHHTWKSmSbpJgNZbUAWkzwq1cVyieWL4gGGBQUGCEtImYCNgAq2/kuIcJmgEFyE5JR9UEuXr/TeFiZ1eDHsfZPT82PdtX8dn9fsu4cNOaM+Z3/fnwrr/8r1OpO425Bl3eOni8JfB0QfWRyxUqMNylyrotD40QmiAHRNL2HW/JAZQi6NqSEpo6GygooS4dEyg8jusNe7AoDU712ratbuzdPP6rkB+TpC525XOaX3r34XHezsH6drSESUVNkywmiV7DInQEPXIFh8O3nxxC0qnxXB2A5ghWpdQYKbTB121isGhl2xmTo1CQqDd6OcC9Jm07tEFZarqFAjG6h0m6E8Mz4JlKScWhMFwU9h/t/vWn60M/Nt6vXHj5MgAFNeRB3vOV8FEba639KSZMHvG+kRWal+4kqmZGGhIgGbgT1jIUVrQWscsCJoCKYc5HpMvXA6lAQbQDQUrgE/sO1D2RagD5BPws2QHsNwPy6+VBxbVgKJ6eHzB7LJK62fwZxCAgD/ZQp3R/uzOJep+7b5yZglShERgoTTqB42lCZ3aEDodgN4WFE2ZfCkKtAB2+EQ0BUA2//62U0SWo0MQsjFTGNUSKQV8c8ITUMIISQaZA6QlfD2RdbImKH0jbX5yW736uzO+34h9/CDXgQU69Ck977XX9EXToP6bN0YfCR4xDcqLiunBR2I1QMTAF5HSMYcVUKBZAQ8RMRLQFQEjFFcuQaNXNO9FESgzYitpoBZKCCsGDboD0or4zWd57d17Zp+QpsHNc6mwzIUg86w3pbh1ZeVv7uNsy2Boz2TTCsFBZKvXpcHT708F41yWgNFfGGRQhZKlDGbx6hHg2CheohFYoo2afxBhXkJ9kFnynZLcIJxYu2HYK7nGSmLxk4w2FZM9dxXpXA9a8eNg321v3/9tfvgHAodk3LN3VP7B9+seBso2aeIRMuFU5QZlQmGJiGb0irJxVhqYXzGJM1iSjsP2QAUm3BFI9t7hibe66X66clxKIqseoiApNoiQ3vfJeuR3rm1h8cXC/Dy8RqdvNzyOt9GRdPH1ztIK9KQrT29jh9WLfZjjKTKUXVppoKJcDwlnqiENmy2YWYN4RCrQFwBCIObUhgTLxS+u207phhu8YI1wi1bJBW04xXaQXFtu+c3Lv34SFfWf9/8MtzgJQNTue3O5fDr1T3/z3G0+/yl8/eDxOOyxBVa1+BdAgqVrsQEXXVmS4S06TyueQBCCtR1JAkygHCGmAUqqYFZPqBkd3hjjTzQkPB+d0Vvc6j9I9lvHO7vv1JanzzS8jCg1yYRONJt9h372bfv++M689sTQuXgAsiJIm4QWr2+Qud4nyYQtQ6mACpCT5vHhRByZCo5mIINFFyWD0PBWvuUQY5VUTnkvKXWFRf7r+mLPqfv/Sbwz2++R94wn30H3yTp906KvXwVOn4bvlBtJoKiV/ifghksjlfL/tVCaRRqSApToLWADTZQoAcIrMqe06UzBU/bJiN61Ld+P6Tp8Mp+DCy6Dul4iMeAEZRx6Ne464j6ljN/Y206evOPoK45HyzsAhKtAjUKU0KLtQNjQQz9jEXU7vvK7cRrLNUdAERv7MekQ6VQBjSdWAQI41LzVK5vPwbsNpJwAVs8g+/6zVgU+vT45+VfpNfatmlm40kIKywHyh4IgmqQEd1J+nkJpeDxMoSv6FQAVz0/xBIJunx25GvrqU6cpiIuuWKFSWzUoWsrjfRds8tCerthvUOUM2fq5c6oafMPmZOfXQjVpvCr0ZdljrY0ePs0fVuMHmGTWePTorAQYSaiVq2BqNtIA5LQJKUbQo6khn/RYvX121F8dIuDAtSU1JUro9VMNsyVCNFQ+9/ssHAKicBb2X321/9V+b/nTw89cbSvcvTacfjzhUg0JwvQAySossxi4lZkFFWhj+blkkkc/LktOUiiUk1bUfBtPqUUErtBuoBroHNC94Ydhh2E8MkdMLA6ey+D7DJwXwE/8mJHXIRz8z9dp/u02/xm4fMeq4pdDhgd3CxYiBHLErwIolFoYOZuiIoijywaArG3QxILUXZ0M5KFo0CvYm0RVTB1ta0bI0L1457B2+fLsRgLKjs1eB8LbtYcKI5/n0yOfQeNqbRo1BUQC7Qt9pVxA3DiaGlN1sUoqMEwJGpx8jEhxTfxpCZcEJYHfxi7sCrVI2c6WAUAzvVA9Y6JydwtOsbeXDywCoY37oDtKP2u59R9/jM6PuTQ2m7izJbjMjQPengtatRFr4DZvAVIsPEB3RIg8hAoKIZlg9Q480IYjZvVrXhdOsqokfG3VANCXdoM34DNXlK8tBAK6los/VxCOuT32nXNE/j3jGe4x7+wKPCmWNb8g5YXBzxwBQsGZg1YotpKbcWYuCIZowzL9vsoodfViP+2x+m+MiTJP/BmyhTKEE7FwMWGHpkGWsHbAyPw/Acql7zkBk8hfm5k/tzjJ4nG0TJrfeffKIYNqoFtAEErHAwtM1AUK0LwukQ9LBZQSVTym7+LYsRoN0UtnjjBtMH6q6g8NSXLkzXY4d16xt54+nhhy8LnwZ1ZQsnHKOfHLrs89L7D1xysHjrvfmzpGCCLoVbCpczaKuSwTL7sGWmlIKUCtEoUgckwcRx25mAi0gq/8ANkGkVkEmoC/6DNUgyDd9oyy9iq0/DsPnpE46X0Zk727tMvZQbhu1MU0Yu6W1SsdpGYCMcz2sabWC8XNRBByidFMXwVQzU+IKSFwaLT2DET6KLnZqia4nZloTY0trs9jZNSOOsX/bhduCC0RkevF2k0Of+vKJI557HDfytcgt3z3gcVHPLoAMng9W/d4qKZFzz41SarSiWuJ9EkwEDNoBCBiDBsXUjVAWC8uBI6ooFzsOWsHQ+Zy751nOO/xDf+Kg1F0fuYWmV38Tj19jmw+UJYOyQV4pWikOYNC1KWcgLlsfRbcPjoZxFbDACLpxKiZMw21PAkpAFcYK4pGJEy6H5ME5ovQmv7e/Ke8DbALgcgmvuSOvHh5+yM/x8X0vI7l8X8TgHJDG2Rf9HZsw8YLPQjVBGwAMoPpevmO0eyn5jAVwIkrIG0Xh+lSHeDJWMqwVYoY8M6Iqi8FaOxt2Xst2Wh0v7rgwXgbgpNRpr3jO6u6//XI46iGFac2vqhly27RaiTCJ7qhFNH0UJ3dIU5YhUiMpTkVNKnZNx0UoDcO8KbQKaZbTcaP4rPJMkVzbYdivTz2JxNKTpzZjbuzjJlyrUXf/hCrx227G5Bbf8lthUPDfQQQF2nRalpxBvUhpy2Jkums+n7NIMRFDRUaIJRQOYMCanB96dt5xLyIvbRvGWanrzkAQ/zef/1i0eEkE32Ignu5ij1RFutUlxoREJ0cA+n5OY0BqIsvRUnMWrQLMMBVok8tNByjbxKYrnYZ/GaTgiarcR75bknOokmVjkWBaQXiErqPpe8DCpYguuPAPfXosRQNq99t4kKqU2sgn8AAS1iELFRWiQogt4AL2Xb9TqBrwzti90/ueZg394O1nUgf+BPhVpD7Vzqv6k8vPbh1X+rRRzZ7rTBqeHkE906qIgF0Ccs//ibJAIrUmheQtXyOvBE2gBgYwdYp3yg1JO4o7MmkgCswqBmWIyEDLowAhOD3nQijtvIWPINnVOqY8E5EoE6r8X59Sk2qGtu+FpPpeWNSNF0JnUzLcDMyxpvdMPiu7//J0n+MP0+D9t0FNOBHhZ5E15WAauld1c/8+k/teE6YKZweuQfhsgcLzV9GgUSa103MeeWIHwihQ6frNt0XbEAfKThQTVbuYgUvF76MJlHNkA1mwYThVFirQR/Wbt0ooDeds8bduuU5KohTYIM9sGjOBIhrgrWInlrnDcD9f6tJfE3cx9+r9kGseXF8ccSC1yg8OqW5VA44KI+lE9RsQBlEh0Zf7bNEBMTT72exiYHH81mPk6LsxKJ2IKGwIjzZ5Skm3UN8hzC6bQzP3aDW5+nJZRAcgNS+9/n93Wnj28uQq6anAE7CrQctGrw1wul/ZeU13Dabp14d3fzAudev5aaQeXt60OmiqQw5v18GjmqceZtrwbEKNMiSsJEDUk0Rr0RSZ+fDbZGs+8qVHZrknXsaTahdL/pxz0MBnMijFq2dRJ38Ud9ZR4KRhcbobqJfihV4ZUOnmQeO2Kt7up+FhDUud+5Hrx8TJR687jdzOqaMODsNHHqGWKWc6HhgkygRk6QWpJCxVr+TNdUc3BKY8mJgd4nkSVScAasXklqaD05JUKFe0GnIKg8LONVF8uIDgaBiG9nFhQLd/hZ2xa8gP//eQ1MU/YdSzp4SJdN/10DheOPTYO48fzWAy0xF0LSyFNFACci4DSLqh+GCmcXYwJc/r9kT8GcRuzlgqIxPjJovBOltXl4J2IIXxM/Y3sDBV8x8YMmx2QXvbHrWZRz17jg345leB1NFnIFz6dG1y4NHduP1nPmVUemyerJOblEZa55JRgM6TXx0S+C3Lgvys65BIRBr9SES8Jd3dkWQR6i/VpGyBBA2Koa/YlV2asrV32r+A7HWu1Onf76Y13a/+/K9xMGYayUwAIc1ACbQIAi26GTJlQanNmy2SFpFgs0ggRAsmp/gMuBOMBdvCssZ1ZPLVwKUoGjLYdycWfV6f069+ljr+J0x+fkrl2bLBXmzHY2fQtyyB26R7KKO2ZWhitSLR1ioiDBDpmhV3bcxJ2pdICBAhCUbKt4BWVqQshIH8ijtdrwUxuDPtLdabOUXNoWCn6YdJUvcfgGNv/3/9/RuH9tcdVlPzzUzq0MR9ritWICufjE7tmg1Rh4jkRMJFXWsZxAw2GzcRK1gQLrmiHAYvLIYMj3NLijcrizqPyTJfIAAVAOx6gN/zA7PwAWxOLnizRC4ZpIhSXYEWFwMEivBk1qMKET8rIgvyLmCrxeIjd20S48YUwhl69aAz5+t9T18WDFjtr8j8gwCUv5XfyEODeFqHcb7gUGahY56jwBQegSk1zQZJS1qECWSRQepRBESwhmSl86Ffn/riZnl/e7liILIELs7BfAQCQCUAp3f4uK/vNd+29+ognbTUS7Qj5hox0+pGEQmla5ZIFkCBiByrWJ1kLCU1xDqqV4cGLuDogAX/rmBwPjBi+RKT+Qwf7gF/31eOjvndf/3b4e8fc4vOSHqZZWu3JqgAIUQYILMGjMAg7fueBrisfjdkYQxsEX2LWdHjv2bQynEObb16a+yzc2zQ90sg8x8+HACn3ryPbduLqlaUmLaaiTLjBMaWNJ5ZL12eF0hjPrOgXnxfPE8kf4nnAYW7Ll1CAMWEkq7bO0xXhhTL1Z0Hd78vDecMmU8RgIv3+me+siz5I3/vy76dDIxrzSsck/nowMwWbEJboLAB2RkEyxK0RllBPGEPiCcsKSLMQM2Zd750JXnxecXHM4Az2Yo7G2MJ20alma3KzkjNXcu2e3js73N2/Bcf8KUAmJ8xezbymHjdR6cO33Od2OtUlEgNMAkggWy0CW0ASTAK5OIYnzFBMud1IAniG6c1qHiGdJGYb5QpKCtslQZQ7sxwwCUYGnS934N8/VPaF91eSPHMOCZucirpapauS5PEPmpVbCOwoR5ag4zBcnRKAV4y4+ChmzVW3ccAGuIijdYpvUp2C4KKtcKuUl7naZs+L27fzXn28PX2KRMjjWf2EYCiB/zJP7wD/vXfuVqeSt/KKaM0tbCGIVPoC4fEEzKU97srcsDAgcjtEA++UNUoTM8Q3YlPP/HsqdvRUBSvsGSHvmwqMXljwOGHcXlmI9+5P3usKv/OP5VReXOqNhMmTzetYRAhMHe8AiGJZ7MFGUgKMBKkrg04MQlfeQEB+mYwsMaavlMsKdGPT8EbPxeW+SYH/c+/eo6W/RrnWUfFnl++l4lUCkVFp6IVUEIOxi0AIgDqFrAQifJL8lI1rBP7CzrbMqu/b5P5Knf67KV68N/8g+cLB3t5BdAkyVHPObr4NW5oaIZUrXiFD23oKDE4oeGupP/a4IV1b9+ifJjc0gMFVz9Pgm/8RjB/hQBQ/Y7/myiPveubFVXbWgdur3lVcUlw1CJuI+IMtm4SWaGQVpUIq0qQV/uQ7NyezstlfsznAcCFnf/kD+4dlzQzwVKTZ55KxyOsU9DoYAi9luRqSfa0c5jl7ILO20dkfs09/uwfSIQdFPJ4y6lqpLmTWaRAoF+Ktb12xmcDZ6PULr5Ilvk3354/hKKi974IYt2WrbvPw5p8J/rHXU/tvTdhma/zeXQDsFreP/8/K//XmAY=;" parent="1" vertex="1">
          <mxGeometry x="935.38" y="260" width="199.24" height="70" as="geometry" />
        </mxCell>
        <mxCell id="QhQH7k_Fv8NDYgwHrIGU-19" value="Analytics" style="text;html=1;align=center;verticalAlign=middle;resizable=0;points=[];autosize=1;strokeColor=none;fillColor=none;" parent="1" vertex="1">
          <mxGeometry x="1000" y="220" width="70" height="30" as="geometry" />
        </mxCell>
        <mxCell id="QhQH7k_Fv8NDYgwHrIGU-20" style="edgeStyle=orthogonalEdgeStyle;rounded=0;orthogonalLoop=1;jettySize=auto;html=1;endArrow=block;endFill=1;entryX=0.5;entryY=1;entryDx=0;entryDy=0;" parent="1" target="2e422b75-70e7-471e-af71-00d837bd0d44" edge="1">
          <mxGeometry relative="1" as="geometry">
            <mxPoint x="940" y="440" as="sourcePoint" />
            <mxPoint x="1035" y="350" as="targetPoint" />
          </mxGeometry>
        </mxCell>
        <mxCell id="QhQH7k_Fv8NDYgwHrIGU-21" value="" style="shape=image;verticalLabelPosition=bottom;labelBackgroundColor=default;verticalAlign=top;aspect=fixed;imageAspect=0;image=data:image/jpeg,/9j/4AAQSkZJRgABAQAAAQABAAD/2wCEAAkGBw0NDQ0ODQ4PDQ0PEBIQDw0NDxANDg0NFh0iFhUdExMkKDQgGBolHh8YIjEhJSkuLi4vGB81ODYtOCgtMCsBCgoKDg0OGxAPFisdHiEtLS0vNy4sNzctMCsuNystKyswLS0tNy0uLSsuLi8rKysxMis1ListLS8tMjAtOC0tK//AABEIAKgBLAMBEQACEQEDEQH/xAAbAAEAAgMBAQAAAAAAAAAAAAAAAQUEBgcDAv/EAEYQAAIBAwEDBQsICQMFAAAAAAABAgMEEQUGEiEHEzFBcRQVIjM0UXOBgrHRIzJSYXKRorIIFkJTY3SSocEkNaM2YoOEs//EABsBAQACAwEBAAAAAAAAAAAAAAABBAMFBgIH/8QANBEBAAECAwQHBgYDAAAAAAAAAAECAwQRcQUyMzQUFVFSgaHREjFBYZGxEyEiU+HwBiPB/9oADAMBAAIRAxEAPwDuIAAAAAAAAAAAAAAAAAAAAAGPqF2qFKdRrO70LozJ8EVsXiYw9mq7VGeX9hls2pu1xTDWJbS3OeCppebdfD+5y0/5Bic/yin6T6ttGzrXzR+slz/D/pfxI6/xXZT9P5Or7XzR+stz/D/pfxJ6/wAV2U/T+U9X2fmfrLc/w/6X8R1/iuyn6fydX2vmmntPcJpyjTlHrWHFtfU88D1R/kGIif1U0zH9+aKtnWpj8pmG2W1aNWnCpH5s4qSz04fnOstXIu0RXT7pjNpq6Joqmmfg9DI8gAAAAAAAAAAAAAAAAAAAAAAAAAAAAAAAAAAKnafyWX2o+81O2+Tq8PuuYDjR4tMOHb4yBGSRAEAb9onktD7CPoOz+Vt6Q53FcarVnFxXAAAAAAAAAAAAAAAAAAAAAAAAAAAAAAAAAAAVO1Hkk/tQ95qdt8nV4fdcwHGjxaVk4hvgCAIySIyEugaH5JQ+wj6Bs/lbekOcxXGq1ZxcVwAAAAAAAAAAAAAAAAAAAAAAAAAAAAAAAAAAFRtS/wDST+1D3mq21ydXh913AcaPFpO8cRk3yMgMkgBGQOgaF5Jb/YR3+z+Vt6Q5zFcarVnlxXAAAAAAAAAAAAAAAAAAAAAAAAAAAAAAADCvtQVJ7qW9LpfHCRqsftOMNV7FNPtT9lmzh/bjOZyhid+J/Qj97Nf17c/bj6s3Q6e1Hfif0I/eyOvrn7cfU6HT2sTU7t3NJ0pJQTae9Hi+HErYvatWItTbmiIz+bNYsRar9qJzU3eqP05fcjT5QvfjT2MW9snSW8pb0c4eVhoiaWSi57X5SxsnhkCRGQOhaF5Jb/YR32z+Wt6Q5zFcarVnlxXAAAAAAAAAAAAAAAAAAAAAAAAAAAAAAACg1Xx0/V7jjtr83V4faG0w3DhhmsWEECMkJQ2Qlhau/kJ9sfzIR73u3vQqE+CPC0ARkkdE0HyS39GjvcBy1vSHOYrjVas8uK4AAAAAAAAAAAAAAAAAAAAAAAAAAAAAAAa/q3j5+z7jjdr83V4faG1w3DhhZNWsIbIzShsjMfOSM0sPWPJ59sPzI9Ue97t7yoi+C7DzKyZAjJKXRdA8jt/Ro73Actb0hzeK41WqwLauAAAAAAAAAAAAAAAAAAAAAAAAAAAAAAAGu6u/l5+z7ji9sc3V4faG2wvChhNmrzWHzkjNIQlDYGFq7/08+2P5keqN57o3lQnwXYJWQASOjaB5Hb+jR3mA5a3pDm8VxqtVgW1cAAAAAAAAAAAAAAAAAAAAAAAAAACG8cX0ETMRGcjElqEc8Itrz9Bq6tq0RP6aZlYjDz8ZR3wX0X95HWtPc809H+Z3wX0X9461p7nmdH+asvafO1JTT3c44dPQsGixtPSL03I/LPJctVfh0RSx3Zv6S+4qThJ7zJ+NHYxppxbT6UVKqZpnKWaJzjOHy2eXp8tkZmTC1d/IT9n8yPVveh7o96qj0LsPcrBkCGwOkbP+R2/o0d5gOWo0hzeK41WqwLauAAAAAAAAAAAAAAAAAAAAAAAAAAB43fi59hXxfAr0e7e/CoOXXwAACUZIzFfevw/UjWYqf9ngtWd1jNlXNlQ2RMpYWqv5Cfs/mR6tT+uHun3qtPguwzyzAEZCXStn/I7b0aO7wHLUaQ5rF8arVYFtXAAAAAAAAAAAAAAAAAAAAAAAAAAA8bzxc+wr4vgV6PdvfhUHLtgZIzEEZgRmlGSMxXX78P1I1mLn/Z4LVndYuSrmzZIISxNV8RP2fzIy2d+E0+9VJ8F2FiWYCQDpWz3kdt6NHdYHlqNIc1i+NVqsS2rgAAAAAAAAAAAAAAAAAAAAAAAAAAeN54ufYVsZwK9GS1vwpzls19GSM0mSMxBGaUZIzFdf/P8AUjWYvieC3Z3WMVmVGQMPVX8hP2fzIy2d+Ex71XF8F2FmWcyQIbJHTNnfIrb0aO5wPLUaQ5rF8arVYltXAAAAAAAAAAAAAAAAAAAAAAAAAAA8bzxc+wrYzgV6SyWt+FKcpm2AQlGSMxGSMwPOaVbfvw/UjXYrieC1Z3WNkrsqAliaq/kJ+z+ZGWxvwmFUnwXYWmYAjIS6ds75FbejR3OB5ejSHM4vjVarEtK4AAAAAAAAAAAAAAAAAAAAAAAAAAHhe+Kn2FbG8vXpLJa34UuTkc2xRkjNIRmIIzAjNKtv/n+pGvxG+tWd1jZMDK+cgYmqeIn7PvRmsb8JhVJ8F2FlmAkJHTtnPIrb0aO4wPL0aQ5nF8arVZFpXAAAAAAAAAAAAAAAAAAAAAAAAAAA8L3xU+wq43l69JZLW/CjOPzbIIzSZIzEZIzEZIzSrb9+H6kUsRvrVrdY2TAyoyEsTU/Ez9n3ozWN+BVR6EWpZTIShsDqGzfkVt6NHcYHl6NIczi+NVqsi0rgAAAAAAAAAAAAAAAAAAAAAAAAAAeF94qfYVcdy9ekslnfhRZONzbMyRmIyRmlGSMxGSM0q2/fh+pFO/vLVrdYxhZUZJGLqXiZ+z70ZbG/AqU+CLbNBkCAOpbN+Q23o0dvgeXo0hzOL41WqyLSuAAAAAAAAAAAAAAAAAAAAAAAAAAB8VYKUZRfQ1gx3bcXKJon4xk9U1ezMSp56fVT4JSXnTSOXr2ViaZyinPxj/q/GItz8cnz3BW+h+KPxPHVeL7nnHqnpFvtO99b6H4o/EjqvF9zzj1T0i32o731vofij8SOqsX3POPU6Rb7TvfW+h+KPxHVWL7nnHqdIt9rBvNHuZTzGnlYX7cF/kr3dj4yqrOLfnHqz28XZiMpq8peHeO7/dfjp/E8dS439vzj1ZOm2O95T6HeO7/dfjp/EdS439vzj1Om2O95T6Me+2fvJ0pRjRy3jC5ymutPzmS1sfGU1RM2/OPU6bY73lPor1stqH7j/kpfEsdVYruecerJGPw/e8p9D9VtQ/cf8lL4jqrF9zzj1T0/D97yn0elDZK+lJKVONNdc5VINL1Jtnu3sjE1VZVRlGsf8eatoWIjOJz8HQLG2VCjTpReVTiopvpeOs6m1bi3RFEfCMmhuVzXXNU/F7mR4AAAAAAAAAAAAAAAAAAAAAAAGm8o23L0ONnu2jval1UlTjBVuYw446915bbSxgChuuU/VLWPO3uzN5Qto8alaNZ1eaj52ubS+9oDedltpLTV7SF3ZzcqcnuyjNKNSjUXFxqR6pLK+rimspgW4AAAAAAAAAAAAeVzWVOnUqNZUISm0ulpLIHLNG5WdTv6TrWezla4pKbg50rzeippJteL6cNfeBebJ8plG+vO913aV9L1BpuNvc5am0t7EZYTzjjxisroAv8AbjaHvRptzfqj3Q6HN/Jb/Nb2/ONP52HjG9no6gMvZrVe77G0vOb5ruijCrze9v7m8s43sLPbgCyAAAAAAAAAAAAAAAAAAAAAA5Fy+eN0D+cl76YHWa8oKE3UcVTUW5ueFBQx4W9nhjAHIP0eoeHrtSipKxlcUlb5zu8HUfBPoai6ee1AWEtutY1i8uLfZy3tu5LaThU1G9cnTqT6ubS6E8PHCTaw3u5wB519udc0O5t6e0NvbVLGvLcV/Y7+KUuveXXhcd3dTay1nGALvlT2wvNFp6fdW8KNW0qV+auVOMp1HFrfjzTTSTcY1OLz1Abdq2p07WzuLxtSp0aE6+V+1GMXLh2/5A0rkf28r65RvFdxpQuLepB4oRlCLozT3eDby04y/sBk7UbX3dHXtJ0iyjRk7lc7dSqxlKUaCbb3GmsS3YVHxz+yB97c7b1rK6ttM023jeatdrep06jcaNClx8Ko+GfmyeMrCi22uGQpNY1va7SKLvb2jpl/aU2nXpWbrQrUqb61JpYSeMvEsdOMZaDfLLXKV3pq1C1e9TqW8q1PfXQ0m8TSfSmmmk+lMDl2z/KRr2s0KVvpdrQnfxU53t1UhKnaW1PeapRWXxnJL6+vC4NxDqOy1TUJ2NGWqU6dK+8NVoUWnT4Tag44b6Ybr6evq6EGZqvk1x6Gp+Vgck5BNoNPtNIrU7q9tLao72pJU7i4pUZuDhTSai2njKfH6mA16dPXdq9KnpbVelp3NzvL+j4VBRhPnFDnFwllZSw3xqPzMDbOW7/pvUf/AF//ALUwLXk2/wBi0n+Uo+4DZAAAAAAAAAAAAAAAAAAAAAAOPfpC05TehwjN05SuakY1FxcJPcSa7OkCwqclN7crm9R2j1C7tn86hFSpKfXxzOUX64gbXeaPR0rQ72302lzSpWdzKklmU5V9xtOUumUm8cQNd5AIU1oMHDG9K4rOrjp5zKSz9e6oAenL1Cm9n67njejWoOlnpVTew8fXuuX9wPrW9GqajsdSozUncLTLatHK+UdxSpxqY4/tPDj7TA07Utpp3exVhb03vXd1Wo6Xuxl4W9Tlwy/+6EYZ9IBaadp8NB2utKFPMbTUdPhbx44gq1GKguHXL5KPF8c1X5wMrk8h3y2k17Vnl0qElY2zbzBpYi3HzeDBP/ysChuVqtTbfVFpk7SF1G3gou/5x0lQ3KWVDdTalxT9cgNo1TSNs7u2uLarcaJzVxSqUam6rtS3JxcZYe5weGBc7I7PV9J2edlczp1KtKldNyouUqaU3KaUW0m+nzICj/R6pxWhykopSld1d6SXGWFFLLA6cBi6r5NcehqflYHEuRPYfSdU0yvXv7VXFaF5OlGbq16eKap05JYjJLplL7wPXlK2apbL9x6todSpZt3EaFW1dSpVo1cxlNb2XlrwZJxbfSsYxxDcuWG4VbZW8qpOKqQtJpPpSlVpsC85Nv8AYtJ/lKPuA2QAAAAAAAAAAAAAAAAAAAAADnfK3svfanPR3ZUlVVtcudbNSnT5um3Hj4TWVwfRl/UB0QCJRTTTSaaw0+Ka+sDkdhsxtBs3c3C0WlR1PTLipznclaqqVWg/qcmuKWI7ybykspdQel3sxr20dxQ7+UqOm6Xb1FU7io1VVrXEsY8KUW10OSzlNJvC45A6xGKSSSSSWEksJLsA4js1yaanba7SVWklolpe17y3lz1OUXJpc1iGd/e8GknlYW4+PnDbeWDZa91CjYXGmQ3tQsblVKXh06bUHhtxcmo5Uo03x8z9YWfJVszU0jSKNvXgoXU5TrXEYyU0qsnhLeXBtQUFw4cAKrb3Yy/qahb61otWnT1GhHcq0a3CndUllLj58PdaeMrDTi48Q81r+2VSKpx0O0oVXhSuK13TnRi+t7invfc36wNyoW95LTeau5U6t7K3lCrKl4NKVZxa8HOOGfqA13kd2fvNL0nua+pczX7oqVOb36dTEHhLjFtdT6wN4A8L6k6lGrCON6dOcVnoy1hZA4zsVo22Oh2tS1tLCwqU51pV3K4qqc9+UYweHGoljEV1ecCzutitf1+4tpbQVba2sKD3+4bJybqT68vLxlcN7eeFnCWWwNv5T9FuL/Q7yzsqaqV6io83S3oU01CpCbSbaS4J9LAsNibCtaaVp9tcR3K1G2pwqQ3oy3ZpcVlcH6gLsAAAAAAAAAAAf//Z;" parent="1" vertex="1">
          <mxGeometry x="1260" y="260" width="142.86" height="80" as="geometry" />
        </mxCell>
        <mxCell id="QhQH7k_Fv8NDYgwHrIGU-22" value="Dashboards" style="text;html=1;align=center;verticalAlign=middle;resizable=0;points=[];autosize=1;strokeColor=none;fillColor=none;" parent="1" vertex="1">
          <mxGeometry x="1283.57" y="220" width="90" height="30" as="geometry" />
        </mxCell>
      </root>
    </mxGraphModel>
  </diagram>
</mxfile>
